<svg height="13" viewBox="0 0 10 13" width="10" xmlns="http://www.w3.org/2000/svg"><path d="m5.47087096 1.31843868 4.04216525 11.31806272c.09287673.2600548-.04264791.5461624-.30270276.6390391-.14464629.0516594-.30501002.0339712-.43491986-.0479719l-2.70840693-1.7083798c-.65191104-.4112054-1.48210228-.4112054-2.13401332 0l-2.70840693 1.7083798c-.23356066.1473228-.54232777.0774133-.68965065-.1561473-.08194312-.1299099-.09963136-.2902736-.04797197-.4349199l4.04216525-11.31806272c.09287674-.26005485.37898431-.39557949.63903916-.30270276.1411773.05042046.25228229.16152546.30270276.30270276z" fill="#1065cf" fill-rule="evenodd" transform="matrix(1 0 0 -1 0 13.304735)"/></svg>