<?xml version="1.0" encoding="UTF-8"?>
<svg width="10px" height="13px" viewBox="0 0 10 13" version="1.1" xmlns="http://www.w3.org/2000/svg" xmlns:xlink="http://www.w3.org/1999/xlink">
    <title>arrow</title>
    <g id="Dashboard" stroke="none" stroke-width="1" fill="none" fill-rule="evenodd">
        <g id="编组-12" transform="translate(0.000000, -0.695265)" fill="#1065CF">
            <path d="M5.47087096,1.31843868 L9.51303621,12.6365014 C9.60591294,12.8965562 9.4703883,13.1826638 9.21033345,13.2755405 C9.06568716,13.3271999 8.90532343,13.3095117 8.77541359,13.2275686 L6.06700666,11.5191888 C5.41509562,11.1079834 4.58490438,11.1079834 3.93299334,11.5191888 L1.22458641,13.2275686 C0.991025752,13.3748914 0.682258639,13.3049819 0.534935763,13.0714213 C0.452992635,12.9415114 0.435304399,12.7811477 0.486963789,12.6365014 L4.52912904,1.31843868 C4.62200578,1.05838383 4.90811335,0.922859187 5.1681682,1.01573592 C5.3093455,1.06615638 5.42045049,1.17726138 5.47087096,1.31843868 Z" id="三角形" transform="translate(5.000000, 7.000000) scale(1, -1) translate(-5.000000, -7.000000) "></path>
        </g>
    </g>
</svg>