<svg height="29" viewBox="0 0 10 29" width="10" xmlns="http://www.w3.org/2000/svg"><g fill="none" fill-rule="evenodd"><path d="m5.47087096 15.6231732 4.04216525 11.3180627c.09287673.2600549-.04264791.5461625-.30270276.6390392-.14464629.0516594-.30501002.0339712-.43491986-.047972l-2.70840693-1.7083797c-.65191104-.4112055-1.48210228-.4112055-2.13401332 0l-2.70840693 1.7083797c-.23356066.1473229-.54232777.0774134-.68965065-.1561473-.08194312-.1299098-.09963136-.2902736-.04797197-.4349199l4.04216525-11.3180627c.09287674-.2600548.37898431-.3955795.63903916-.3027027.1411773.0504204.25228229.1615254.30270276.3027027z" fill="#12a75c" transform="matrix(1 0 0 -1 0 42.60947)"/><path d="m8.77541359 10.077166c.12990984-.08194314.29027357-.09963138.43491986-.047972.26005485.0928767.39557949.3789843.30270276.6390392l-.89620325 2.5087668-2.5498263 1.6085457c-.65191104.4112055-1.48210228.4112055-2.13401332 0l-2.55016038-1.6085457-.89586917-2.5087668c-.04132751-.1157171-.03827254-.2414933.00655743-.3536889l.04141454-.081231c.14732288-.23356066.45608999-.30347019.68965065-.1561473l2.70840693 1.7083797c.65191104.4112055 1.48210228.4112055 2.13401332 0z" fill="#1ac46f"/><path d="m8.77541359 5.07716598c.12990984-.08194312.29027357-.09963136.43491986-.04797197.26005485.09287673.39557949.37898431.30270276.63903915l-.89620325 2.50876684-2.5498263 1.60854574c-.65191104.41120546-1.48210228.41120546-2.13401332 0l-2.55016038-1.60854574-.89586917-2.50876684c-.04132751-.11571703-.03827254-.24149323.00655743-.35368886l.04141454-.081231c.14732288-.23356066.45608999-.30347019.68965065-.15614732l2.70840693 1.70837976c.65191104.41120543 1.48210228.41120543 2.13401332 0z" fill="#54d393"/><path d="m8.77541359.07716598c.12990984-.08194312.29027357-.09963136.43491986-.04797197.26005485.09287673.39557949.37898431.30270276.63903915l-.89620325 2.50876684-2.5498263 1.60854574c-.65191104.41120543-1.48210228.41120543-2.13401332 0l-2.55016038-1.60854574-.89586917-2.50876684c-.04132751-.11571703-.03827254-.24149323.00655743-.35368886l.04141454-.081231c.14732288-.23356066.45608999-.30347019.68965065-.15614732l2.70840693 1.70837976c.65191104.41120543 1.48210228.41120543 2.13401332 0z" fill="#8ce1b7"/></g></svg>