<?xml version="1.0" encoding="UTF-8"?>
<svg width="10px" height="29px" viewBox="0 0 10 29" version="1.1" xmlns="http://www.w3.org/2000/svg" xmlns:xlink="http://www.w3.org/1999/xlink">
    <title>arrow_blue</title>
    <g id="Dashboard" stroke="none" stroke-width="1" fill="none" fill-rule="evenodd">
        <g id="04-开发环境-创建环境-创建共享开发环境-第一步填充态-流量启动1" transform="translate(-1023.000000, -146.000000)">
            <g id="创建共享开发环境" transform="translate(244.000000, 104.000000)">
                <g id="Right" transform="translate(420.000000, 0.000000)">
                    <g id="终端" transform="translate(312.000000, 24.000000)">
                        <g id="编组-12" transform="translate(47.000000, 18.000000)">
                            <path d="M5.47087096,15.6231732 L9.51303621,26.9412359 C9.60591294,27.2012908 9.4703883,27.4873984 9.21033345,27.5802751 C9.06568716,27.6319345 8.90532343,27.6142463 8.77541359,27.5323031 L6.06700666,25.8239234 C5.41509562,25.4127179 4.58490438,25.4127179 3.93299334,25.8239234 L1.22458641,27.5323031 C0.991025752,27.679626 0.682258639,27.6097165 0.534935763,27.3761558 C0.452992635,27.246246 0.435304399,27.0858822 0.486963789,26.9412359 L4.52912904,15.6231732 C4.62200578,15.3631184 4.90811335,15.2275937 5.1681682,15.3204705 C5.3093455,15.3708909 5.42045049,15.4819959 5.47087096,15.6231732 Z" id="三角形" fill="#1065CF" transform="translate(5.000000, 21.304735) scale(1, -1) translate(-5.000000, -21.304735) "></path>
                            <path d="M8.77541359,10.077166 C8.90532343,9.99522286 9.06568716,9.97753462 9.21033345,10.029194 C9.4703883,10.1220707 9.60591294,10.4081783 9.51303621,10.6682332 L9.51303621,10.6682332 L8.61683296,13.177 L6.06700666,14.7855457 C5.41509562,15.1967512 4.58490438,15.1967512 3.93299334,14.7855457 L1.38283296,13.177 L0.486963789,10.6682332 C0.445636277,10.5525161 0.448691246,10.4267399 0.493521215,10.3145443 L0.534935763,10.2333133 C0.682258639,9.99975264 0.991025752,9.92984311 1.22458641,10.077166 L1.22458641,10.077166 L3.93299334,11.7855457 C4.58490438,12.1967512 5.41509562,12.1967512 6.06700666,11.7855457 L6.06700666,11.7855457 Z" id="形状结合" fill="#1676EE"></path>
                            <path d="M8.77541359,5.07716598 C8.90532343,4.99522286 9.06568716,4.97753462 9.21033345,5.02919401 C9.4703883,5.12207074 9.60591294,5.40817832 9.51303621,5.66823316 L9.51303621,5.66823316 L8.61683296,8.177 L6.06700666,9.78554574 C5.41509562,10.1967512 4.58490438,10.1967512 3.93299334,9.78554574 L1.38283296,8.177 L0.486963789,5.66823316 C0.445636277,5.55251613 0.448691246,5.42673993 0.493521215,5.3145443 L0.534935763,5.2333133 C0.682258639,4.99975264 0.991025752,4.92984311 1.22458641,5.07716598 L1.22458641,5.07716598 L3.93299334,6.78554574 C4.58490438,7.19675117 5.41509562,7.19675117 6.06700666,6.78554574 L6.06700666,6.78554574 Z" id="形状结合备份" fill="#4E97F3"></path>
                            <path d="M8.77541359,0.0771659827 C8.90532343,-0.0047771449 9.06568716,-0.0224653805 9.21033345,0.0291940088 C9.4703883,0.12207074 9.60591294,0.408178315 9.51303621,0.668233163 L9.51303621,0.668233163 L8.61683296,3.177 L6.06700666,4.78554574 C5.41509562,5.19675117 4.58490438,5.19675117 3.93299334,4.78554574 L1.38283296,3.177 L0.486963789,0.668233163 C0.445636277,0.552516131 0.448691246,0.426739933 0.493521215,0.314544298 L0.534935763,0.233313299 C0.682258639,-0.000247359353 0.991025752,-0.0701568942 1.22458641,0.0771659827 L1.22458641,0.0771659827 L3.93299334,1.78554574 C4.58490438,2.19675117 5.41509562,2.19675117 6.06700666,1.78554574 L6.06700666,1.78554574 Z" id="形状结合备份" fill="#85B7F6"></path>
                        </g>
                    </g>
                </g>
            </g>
        </g>
    </g>
</svg>