<?xml version="1.0" encoding="UTF-8"?>
<svg width="240px" height="260px" viewBox="0 0 240 260" version="1.1" xmlns="http://www.w3.org/2000/svg" xmlns:xlink="http://www.w3.org/1999/xlink">
    <title>bg_popup_sharing_space</title>
    <defs>
        <linearGradient x1="-16.487965%" y1="-175.021298%" x2="108.31914%" y2="140.895834%" id="linearGradient-1">
            <stop stop-color="#FFF5EA" offset="0%"></stop>
            <stop stop-color="#EEF6FF" offset="59.7447602%"></stop>
            <stop stop-color="#F7FAFF" offset="100%"></stop>
        </linearGradient>
        <polygon id="path-2" points="0 -1.19432242e-12 240 -1.84741111e-12 240 260 0 260"></polygon>
        <filter x="-17.9%" y="-27.1%" width="135.3%" height="154.3%" filterUnits="objectBoundingBox" id="filter-4">
            <feGaussianBlur stdDeviation="10" in="SourceGraphic"></feGaussianBlur>
        </filter>
        <linearGradient x1="100%" y1="21.7209093%" x2="0%" y2="21.7209093%" id="linearGradient-5">
            <stop stop-color="#D7DAEF" offset="0%"></stop>
            <stop stop-color="#E5E9FE" offset="8.37695577%"></stop>
            <stop stop-color="#C3C7EF" offset="50.3491217%"></stop>
            <stop stop-color="#A9ADDF" offset="75.0724066%"></stop>
            <stop stop-color="#B1B8E6" offset="97.0005755%"></stop>
            <stop stop-color="#E2E6FB" offset="100%"></stop>
        </linearGradient>
        <linearGradient x1="100%" y1="21.7209093%" x2="0%" y2="21.7209093%" id="linearGradient-6">
            <stop stop-color="#D7DAEF" offset="0%"></stop>
            <stop stop-color="#E5E9FE" offset="8.37695577%"></stop>
            <stop stop-color="#C3C7EF" offset="50.3491217%"></stop>
            <stop stop-color="#A9ADDF" offset="75.0724066%"></stop>
            <stop stop-color="#B1B8E6" offset="97.0005755%"></stop>
            <stop stop-color="#E2E6FB" offset="100%"></stop>
        </linearGradient>
        <path d="M135.507441,3.45024586 L154.120889,15.212385 C155.521527,16.0974711 155.939465,17.9504172 155.054379,19.3510558 C154.827105,19.7107137 154.525932,20.0179177 154.17085,20.2522768 L33.3905011,99.9690753 C30.1092771,102.134731 25.8635385,102.17682 22.5400262,100.076639 L2.6177188,87.4874105 C1.68395974,86.897353 1.40533455,85.6620557 1.99539201,84.7282966 C2.1469078,84.4885247 2.34768979,84.283722 2.58441091,84.1274826 L124.656966,3.5578096 C127.93819,1.39215379 132.183928,1.35006461 135.507441,3.45024586 Z" id="path-7"></path>
        <linearGradient x1="81.9258538%" y1="64.8554259%" x2="68.2683431%" y2="58.9753199%" id="linearGradient-9">
            <stop stop-color="#A6ACDA" offset="0%"></stop>
            <stop stop-color="#EFF0FC" offset="100%"></stop>
        </linearGradient>
        <filter x="-59.5%" y="-93.9%" width="217.2%" height="287.8%" filterUnits="objectBoundingBox" id="filter-10">
            <feGaussianBlur stdDeviation="10" in="SourceGraphic"></feGaussianBlur>
        </filter>
        <linearGradient x1="100%" y1="21.7209093%" x2="0%" y2="21.7209093%" id="linearGradient-11">
            <stop stop-color="#D7DAEF" offset="0%"></stop>
            <stop stop-color="#E5E9FE" offset="8.37695577%"></stop>
            <stop stop-color="#C3C7EF" offset="50.3491217%"></stop>
            <stop stop-color="#A9ADDF" offset="75.0724066%"></stop>
            <stop stop-color="#B1B8E6" offset="97.0005755%"></stop>
            <stop stop-color="#E2E6FB" offset="100%"></stop>
        </linearGradient>
        <path d="M30.6391425,1.05020977 L51.4322624,1.05124498 L51.4336283,14.8703468 C51.4857591,15.4749006 51.3555288,16.1008976 51.0210672,16.6618848 C50.7794676,17.0671159 50.4457006,17.4096535 50.046871,17.6616803 L31.5198223,29.3692224 C28.2569458,31.4310868 24.0987633,31.4310868 20.8358868,29.3692224 L0.931843536,16.7915352 C0.332479364,16.4127873 0.00303947359,15.7681915 3.12100823e-13,15.1081375 L8.83348202e-06,15.1080293 L8.83348202e-06,1.05124498 L21.7163041,1.05034068 C24.5241378,-0.350069923 27.8312776,-0.350113559 30.6391425,1.05020977 Z" id="path-12"></path>
        <linearGradient x1="100%" y1="21.7209093%" x2="0%" y2="21.7209093%" id="linearGradient-14">
            <stop stop-color="#D7DAEF" offset="0%"></stop>
            <stop stop-color="#E5E9FE" offset="8.37695577%"></stop>
            <stop stop-color="#C3C7EF" offset="50.3491217%"></stop>
            <stop stop-color="#A9ADDF" offset="75.0724066%"></stop>
            <stop stop-color="#B1B8E6" offset="97.0005755%"></stop>
            <stop stop-color="#E2E6FB" offset="100%"></stop>
        </linearGradient>
        <path d="M33.3419677,3.37567589 L51.9866822,15.1575728 C53.3873208,16.042659 53.8052586,17.895605 52.9201724,19.2962436 C52.6821822,19.6728603 52.3632989,19.9917436 51.9866822,20.2297338 L33.3419677,32.0116307 C30.0790912,34.0734951 25.9209088,34.0734951 22.6580323,32.0116307 L2.67554521,19.3843736 C1.74178615,18.7943161 1.46316096,17.5590188 2.05321842,16.6252597 C2.21187854,16.374182 2.42446743,16.1615931 2.67554521,16.0029329 L22.6580323,3.37567589 C25.9209088,1.31381141 30.0790912,1.31381141 33.3419677,3.37567589 Z" id="path-15"></path>
        <linearGradient x1="59.6165335%" y1="56.5531009%" x2="36.8832235%" y2="48.6176602%" id="linearGradient-17">
            <stop stop-color="#A6ACDA" offset="0%"></stop>
            <stop stop-color="#EFF0FC" offset="100%"></stop>
        </linearGradient>
        <filter x="5.8%" y="0.6%" width="91.4%" height="97.7%" filterUnits="objectBoundingBox" id="filter-18">
            <feGaussianBlur stdDeviation="0 0" in="SourceGraphic"></feGaussianBlur>
        </filter>
        <filter x="-59.5%" y="-93.9%" width="217.2%" height="287.8%" filterUnits="objectBoundingBox" id="filter-19">
            <feGaussianBlur stdDeviation="10" in="SourceGraphic"></feGaussianBlur>
        </filter>
        <path d="M30.6391425,1.05020977 L51.4322624,1.05124498 L51.4336283,14.8703468 C51.4857591,15.4749006 51.3555288,16.1008976 51.0210672,16.6618848 C50.7794676,17.0671159 50.4457006,17.4096535 50.046871,17.6616803 L31.5198223,29.3692224 C28.2569458,31.4310868 24.0987633,31.4310868 20.8358868,29.3692224 L0.931843536,16.7915352 C0.332479364,16.4127873 0.00303947359,15.7681915 3.12100823e-13,15.1081375 L8.83348202e-06,15.1080293 L8.83348202e-06,1.05124498 L21.7163041,1.05034068 C24.5241378,-0.350069923 27.8312776,-0.350113559 30.6391425,1.05020977 Z" id="path-20"></path>
        <path d="M33.3419677,3.37567589 L51.9866822,15.1575728 C53.3873208,16.042659 53.8052586,17.895605 52.9201724,19.2962436 C52.6821822,19.6728603 52.3632989,19.9917436 51.9866822,20.2297338 L33.3419677,32.0116307 C30.0790912,34.0734951 25.9209088,34.0734951 22.6580323,32.0116307 L2.67554521,19.3843736 C1.74178615,18.7943161 1.46316096,17.5590188 2.05321842,16.6252597 C2.21187854,16.374182 2.42446743,16.1615931 2.67554521,16.0029329 L22.6580323,3.37567589 C25.9209088,1.31381141 30.0790912,1.31381141 33.3419677,3.37567589 Z" id="path-22"></path>
        <filter x="5.8%" y="0.6%" width="91.4%" height="97.7%" filterUnits="objectBoundingBox" id="filter-24">
            <feGaussianBlur stdDeviation="0 0" in="SourceGraphic"></feGaussianBlur>
        </filter>
        <linearGradient x1="37.5507914%" y1="29.4513087%" x2="77.6753074%" y2="67.5973773%" id="linearGradient-25">
            <stop stop-color="#A1E1E4" offset="0%"></stop>
            <stop stop-color="#457DFF" offset="39.3255748%"></stop>
            <stop stop-color="#A060FA" offset="100%"></stop>
        </linearGradient>
        <linearGradient x1="34.2562966%" y1="11.6118961%" x2="72.7246292%" y2="96.2182366%" id="linearGradient-26">
            <stop stop-color="#FFD252" offset="0%"></stop>
            <stop stop-color="#8161F7" offset="41.7993568%"></stop>
            <stop stop-color="#FF426B" offset="100%"></stop>
        </linearGradient>
        <path d="M13.0555288,2.75 L16.0695991,4.65463984 C16.5364787,4.94966857 16.6757913,5.56731725 16.3807625,6.03419677 C16.3014325,6.15973566 16.195138,6.26603011 16.0695991,6.34536016 L9.77207941,10.3248648 C9.11950412,10.7372377 8.28786762,10.7372377 7.63529232,10.3248648 L2.67554521,7.19072033 C1.74178615,6.60066287 1.46316096,5.36536551 2.05321842,4.43160645 C2.21187854,4.18052867 2.42446743,3.96793978 2.67554521,3.80927967 L4.35184293,2.75 C7.00995072,1.07029866 10.397421,1.07029866 13.0555288,2.75 Z" id="path-27"></path>
        <filter x="7.1%" y="9.0%" width="90.7%" height="101.3%" filterUnits="objectBoundingBox" id="filter-29">
            <feOffset dx="0" dy="1" in="SourceAlpha" result="shadowOffsetOuter1"></feOffset>
            <feColorMatrix values="0 0 0 0 0.560784314   0 0 0 0 0.6   0 0 0 0 0.823529412  0 0 0 1 0" type="matrix" in="shadowOffsetOuter1"></feColorMatrix>
        </filter>
        <filter x="5.8%" y="0.6%" width="91.4%" height="97.7%" filterUnits="objectBoundingBox" id="filter-30">
            <feGaussianBlur stdDeviation="0 0" in="SourceGraphic"></feGaussianBlur>
        </filter>
        <linearGradient x1="61.7253259%" y1="7.07155424%" x2="12.2216993%" y2="56.1591218%" id="linearGradient-31">
            <stop stop-color="#E1E5FA" offset="0%"></stop>
            <stop stop-color="#AEB4E3" offset="100%"></stop>
        </linearGradient>
        <linearGradient x1="74.1559047%" y1="1.45371551%" x2="46.9290414%" y2="85.4097976%" id="linearGradient-32">
            <stop stop-color="#FFD98D" offset="0%"></stop>
            <stop stop-color="#FF3869" offset="100%"></stop>
        </linearGradient>
        <path d="M10.3393034,34.5409213 L32.1890616,20.9804977 C33.0041989,20.4746062 33.3452961,19.4611682 33.0019363,18.5653563 L26.7461799,2.244342 C26.3508496,1.21294116 25.1942554,0.697304152 24.1628546,1.09263451 C24.0489958,1.13627595 23.9393667,1.19023851 23.8353368,1.25384805 L1.46391567,14.9329553 C0.621713791,15.4479235 0.281214101,16.5003533 0.662159558,17.4110545 L7.43957886,33.6133852 C7.86583021,34.6323963 9.0374469,35.112923 10.056458,34.6866717 C10.154461,34.6456771 10.249042,34.5969394 10.3393034,34.5409213 Z" id="path-33"></path>
        <linearGradient x1="100%" y1="21.7209093%" x2="0%" y2="21.7209093%" id="linearGradient-35">
            <stop stop-color="#D7DAEF" offset="0%"></stop>
            <stop stop-color="#E5E9FE" offset="8.37695577%"></stop>
            <stop stop-color="#C3C7EF" offset="50.3491217%"></stop>
            <stop stop-color="#A9ADDF" offset="75.0724066%"></stop>
            <stop stop-color="#B1B8E6" offset="97.0005755%"></stop>
            <stop stop-color="#E2E6FB" offset="100%"></stop>
        </linearGradient>
        <linearGradient x1="50%" y1="44.0598677%" x2="51.3428608%" y2="80.8673616%" id="linearGradient-36">
            <stop stop-color="#FFFFFF" stop-opacity="0" offset="0%"></stop>
            <stop stop-color="#7478D2" offset="100%"></stop>
        </linearGradient>
        <filter x="-46.2%" y="-88.0%" width="192.3%" height="276.0%" filterUnits="objectBoundingBox" id="filter-37">
            <feGaussianBlur stdDeviation="2" in="SourceGraphic"></feGaussianBlur>
        </filter>
        <filter x="-46.2%" y="-88.0%" width="192.3%" height="276.0%" filterUnits="objectBoundingBox" id="filter-38">
            <feGaussianBlur stdDeviation="2" in="SourceGraphic"></feGaussianBlur>
        </filter>
        <filter x="-46.2%" y="-88.0%" width="192.3%" height="276.0%" filterUnits="objectBoundingBox" id="filter-39">
            <feGaussianBlur stdDeviation="2" in="SourceGraphic"></feGaussianBlur>
        </filter>
        <filter x="-46.2%" y="-88.0%" width="192.3%" height="276.0%" filterUnits="objectBoundingBox" id="filter-40">
            <feGaussianBlur stdDeviation="2" in="SourceGraphic"></feGaussianBlur>
        </filter>
        <path d="M13.0555288,2.75 L16.0695991,4.65463984 C16.5364787,4.94966857 16.6757913,5.56731725 16.3807625,6.03419677 C16.3014325,6.15973566 16.195138,6.26603011 16.0695991,6.34536016 L9.77207941,10.3248648 C9.11950412,10.7372377 8.28786762,10.7372377 7.63529232,10.3248648 L2.67554521,7.19072033 C1.74178615,6.60066287 1.46316096,5.36536551 2.05321842,4.43160645 C2.21187854,4.18052867 2.42446743,3.96793978 2.67554521,3.80927967 L4.35184293,2.75 C7.00995072,1.07029866 10.397421,1.07029866 13.0555288,2.75 Z" id="path-41"></path>
        <filter x="7.1%" y="9.0%" width="90.7%" height="101.3%" filterUnits="objectBoundingBox" id="filter-43">
            <feOffset dx="0" dy="1" in="SourceAlpha" result="shadowOffsetOuter1"></feOffset>
            <feColorMatrix values="0 0 0 0 0.560784314   0 0 0 0 0.6   0 0 0 0 0.823529412  0 0 0 1 0" type="matrix" in="shadowOffsetOuter1"></feColorMatrix>
        </filter>
        <filter x="5.8%" y="0.6%" width="91.4%" height="97.7%" filterUnits="objectBoundingBox" id="filter-44">
            <feGaussianBlur stdDeviation="0 0" in="SourceGraphic"></feGaussianBlur>
        </filter>
        <linearGradient x1="74.1559047%" y1="1.45371551%" x2="46.9290414%" y2="85.4097976%" id="linearGradient-45">
            <stop stop-color="#A4F1F2" offset="0%"></stop>
            <stop stop-color="#A060FA" offset="100%"></stop>
        </linearGradient>
        <path d="M10.3393034,34.5409213 L32.1890616,20.9804977 C33.0041989,20.4746062 33.3452961,19.4611682 33.0019363,18.5653563 L26.7461799,2.244342 C26.3508496,1.21294116 25.1942554,0.697304152 24.1628546,1.09263451 C24.0489958,1.13627595 23.9393667,1.19023851 23.8353368,1.25384805 L1.46391567,14.9329553 C0.621713791,15.4479235 0.281214101,16.5003533 0.662159558,17.4110545 L7.43957886,33.6133852 C7.86583021,34.6323963 9.0374469,35.112923 10.056458,34.6866717 C10.154461,34.6456771 10.249042,34.5969394 10.3393034,34.5409213 Z" id="path-46"></path>
        <linearGradient x1="67.4737108%" y1="7.80298945%" x2="37.4530752%" y2="77.6722764%" id="linearGradient-48">
            <stop stop-color="#F1F4FF" offset="0%"></stop>
            <stop stop-color="#9D9EC5" offset="100%"></stop>
        </linearGradient>
        <linearGradient x1="100%" y1="21.7209093%" x2="0%" y2="21.7209093%" id="linearGradient-49">
            <stop stop-color="#D7DAEF" offset="0%"></stop>
            <stop stop-color="#E5E9FE" offset="8.37695577%"></stop>
            <stop stop-color="#C3C7EF" offset="50.3491217%"></stop>
            <stop stop-color="#A9ADDF" offset="75.0724066%"></stop>
            <stop stop-color="#B1B8E6" offset="97.0005755%"></stop>
            <stop stop-color="#E2E6FB" offset="100%"></stop>
        </linearGradient>
        <linearGradient x1="86.3952927%" y1="-1.29606014%" x2="36.8069654%" y2="76.7298109%" id="linearGradient-50">
            <stop stop-color="#FFFFFF" offset="0%"></stop>
            <stop stop-color="#C7CDFB" offset="7.75482707%"></stop>
            <stop stop-color="#E5E7FB" offset="26.1614064%"></stop>
            <stop stop-color="#E5E7FB" offset="75.4231233%"></stop>
            <stop stop-color="#C6CBF1" offset="89.5522495%"></stop>
            <stop stop-color="#A8AFE0" offset="100%"></stop>
        </linearGradient>
        <path d="M30.0374801,0.244801428 L33.1943431,2.13091986 L32.2225093,3.683935 L32.2232164,13.9529603 C32.2232164,15.3186488 31.5264505,16.5899567 30.3752599,17.3247119 L5.15546128,33.2980908 L3.78336346,35.069714 C2.00819275,34.0465852 1.01920936,33.4681199 0.816413276,33.3343182 C0.51221915,33.1336155 0.451994917,32.996774 0.314124187,32.7807627 C0.108989303,32.459364 0,32.0860248 0,31.7047409 L0,20.2679654 C0,18.9022769 0.696765981,17.630969 1.84795656,16.8962138 L27.9727334,0.345487312 C28.6422423,-0.0787170066 29.3304912,-0.112278968 30.0374801,0.244801428 Z" id="path-51"></path>
        <linearGradient x1="100%" y1="21.9571886%" x2="23.2097755%" y2="70.1997739%" id="linearGradient-53">
            <stop stop-color="#2C43FD" offset="0%"></stop>
            <stop stop-color="#DB57C9" offset="100%"></stop>
        </linearGradient>
    </defs>
    <g id="Dashboard" stroke="none" stroke-width="1" fill="none" fill-rule="evenodd">
        <g id="05-开发环境-选择创建空间类型" transform="translate(-1006.000000, -252.000000)">
            <g id="编组-6备份" transform="translate(740.000000, 252.000000)">
                <g id="编组-2" transform="translate(266.000000, 0.000000)">
                    <mask id="mask-3" fill="white">
                        <use xlink:href="#path-2"></use>
                    </mask>
                    <use id="bg_popup_sharing_space" fill-opacity="0.45" fill="url(#linearGradient-1)" xlink:href="#path-2"></use>
                    <g id="编组-37" mask="url(#mask-3)">
                        <g transform="translate(7.231225, 42.473115)">
                            <g id="编组-30" stroke="none" stroke-width="1" fill-rule="evenodd" transform="translate(3.758168, 0.000000)">
                                <path d="M135.507441,32.4502459 L154.120889,44.212385 C155.521527,45.0974711 155.939465,46.9504172 155.054379,48.3510558 C154.827105,48.7107137 154.525932,49.0179177 154.17085,49.2522768 L33.3905011,128.969075 C30.1092771,131.134731 25.8635385,131.17682 22.5400262,129.076639 L2.6177188,116.487411 C1.68395974,115.897353 1.40533455,114.662056 1.99539201,113.728297 C2.1469078,113.488525 2.34768979,113.283722 2.58441091,113.127483 L124.656966,32.5578096 C127.93819,30.3921538 132.183928,30.3500646 135.507441,32.4502459 Z" id="蒙版" fill="#ABAFE0" opacity="0.85" filter="url(#filter-4)"></path>
                                <g id="编组-26备份">
                                    <g id="路径-22" transform="translate(1.701355, 17.696876)">
                                        <path d="M153.815309,0 L153.704837,19.0448527 C153.718921,19.5949696 153.583464,20.1551247 153.281162,20.6621709 C153.04985,21.050146 152.733915,21.3808799 152.356927,21.6296973 L31.6891458,101.272199 C28.4079219,103.437855 24.1621832,103.479944 20.8386709,101.379763 L0.931864759,88.80033 C0.387449882,88.4563055 0.0657350805,87.8929441 0.00904395453,87.2978895 L0,87.1363557 L0.120799035,68.1363557 L153.815309,0 Z" id="路径" fill="url(#linearGradient-5)"></path>
                                        <path d="M37.6867042,95.0121973 C39.1584875,94.0322571 40.2781264,92.6918973 40.2781264,91.4072932 C40.2781264,90.5451428 39.745395,90.4170408 39.0230473,90.7341845 L39.0230473,90.691077 C39.5918961,90.122654 39.9350112,89.2906964 39.9350112,88.7044341 C39.9350112,87.5146665 38.8876072,87.8240796 37.5151467,88.7378888 L35.3029571,90.2108051 L35.3029571,96.5993396 L37.6867042,95.0121973 Z M37.4158239,91.407714 L36.6393002,91.9247377 L36.6393002,90.3038949 L37.4338826,89.7748474 C38.2374943,89.2397881 38.6347855,89.1994235 38.6347855,89.7598212 C38.6347855,90.26849 38.2645823,90.8425952 37.4158239,91.407714 Z M37.5693227,94.1075005 L36.6393002,94.7267265 L36.6393002,92.8644816 L37.5693227,92.2452556 C38.490316,91.6320415 38.9779006,91.5746654 38.9779006,92.1954137 C38.9779006,92.8592695 38.4812866,93.5002983 37.5693227,94.1075005 Z M42.5896388,91.868435 C43.1675169,91.4836732 43.6731602,90.8711185 44.1155981,90.2144321 L44.1517155,90.1903845 L44.242009,90.6475557 L45.3255304,89.9261274 L45.3255304,87.1068955 C45.3255304,85.7102118 44.6663882,85.4162529 43.3842212,86.2699431 C42.5896388,86.7989906 41.8672911,87.5644525 41.2713543,88.3147197 L41.7499097,88.8323748 C42.2194356,88.2611107 42.6709029,87.7622209 43.1404288,87.449602 C43.7634537,87.0347807 43.980158,87.2525982 44.007246,87.7087452 C41.9666139,89.2743514 41.0907674,90.4006607 41.0907674,91.4352412 C41.0907674,92.2542762 41.6867042,92.4696253 42.5896388,91.868435 Z M43.0230473,90.5883907 C42.6347855,90.8469025 42.3548758,90.8694629 42.3548758,90.4901168 C42.3548758,90.0590415 42.7702257,89.4548769 44.007246,88.4846806 L44.007246,89.4589105 C43.6821896,89.9770917 43.4022799,90.3358908 43.0230473,90.5883907 Z M48.1246275,88.1831385 C49.4429119,87.3054007 50.1381715,86.1613853 50.1381715,85.3164779 C50.1381715,84.4198415 49.3977652,84.5938219 48.7295936,84.7973006 C48.1968622,84.9623298 47.7273363,85.1456261 47.7273363,84.7921445 C47.7273363,84.5162563 47.9440406,84.1822976 48.4045372,83.8756905 C48.7747403,83.6292025 49.1268848,83.5585469 49.4880586,83.5680944 L50.0839954,82.4039949 C49.6686455,82.3787898 49.0997968,82.4644085 48.3684198,82.9513727 C47.2126636,83.7208963 46.4812866,84.8199872 46.4812866,85.6821376 C46.4812866,86.492559 47.1946049,86.3883433 47.8356884,86.1942788 C48.3684198,86.0378712 48.8921218,85.8529894 48.8921218,86.2150925 C48.8921218,86.5168452 48.6663882,86.8740589 48.1607449,87.2107254 C47.6912189,87.5233444 47.2578103,87.6222426 46.8063431,87.5865991 L46.2013769,88.782575 C46.7070203,88.8424976 47.4474266,88.6340312 48.1246275,88.1831385 Z M53.3526185,84.7022467 C53.9756433,84.2874254 54.6167268,83.6536642 55.1133408,82.9953924 L54.6618735,82.5200521 C54.3006997,82.9760658 53.9395259,83.337243 53.524176,83.6137906 C52.7747403,84.1127785 52.2329796,84.0596605 52.1246275,83.3386249 L55.2397516,81.2645184 C55.275869,81.1283913 55.3029571,80.8775749 55.3029571,80.6361728 C55.3029571,79.3084612 54.5806094,78.8151834 53.1900902,79.7410165 C51.9891873,80.5405996 50.8334311,82.2843531 50.8334311,83.8448454 C50.8334311,85.4398237 51.9350112,85.6461155 53.3526185,84.7022467 Z M54.1652595,81.1350275 L52.1065688,82.5057413 C52.2058916,81.7412686 52.6754176,81.0665464 53.2081489,80.7118442 C53.8582618,80.2789872 54.1652595,80.4884147 54.1652595,81.1350275 Z" id="Base" fill="#3F54EB" fill-rule="nonzero" opacity="0.79505"></path>
                                    </g>
                                    <path d="M135.406409,12.1950116 L153.170355,22.7852966 L155.448101,21.7775376 L155.448101,25.6259072 C155.482017,26.2040043 155.351806,26.797568 155.033599,27.3312903 C154.806143,27.7127991 154.495474,28.0380209 154.124769,28.2826912 L33.3905011,107.969075 C30.1092771,110.134731 25.8635385,110.17682 22.5400262,108.076639 L2.63322003,95.497206 C1.98443939,95.087231 1.65192741,94.3657637 1.70731266,93.6503726 L1.70135527,93.6536291 L1.70135527,89.8168867 L15.5563553,83.6842966 L124.821893,12.4087734 C128.019913,10.3226242 132.126768,10.2396834 135.406409,12.1950116 Z" id="路径" fill="#FFFFFF"></path>
                                    <path d="M134.508755,17.6936533 L155.516664,17.696876 L155.447129,24.5111073 C155.447129,25.1135243 155.225141,25.7433059 154.890679,26.3042931 C154.64908,26.7095242 154.315313,27.0520618 153.916483,27.3040886 L33.3419677,107.151209 C30.0790912,109.213073 25.9209088,109.213073 22.6580323,107.151209 L2.75398901,94.5735219 C2.20457185,94.2263363 1.76116703,93.5200049 1.70887363,92.9189109 L1.70135527,92.7542562 L1.70135527,85.6974719 L125.585916,17.6936533 C128.39375,16.2932427 131.70089,16.2933299 134.508755,17.6936533 Z" id="路径" fill="url(#linearGradient-6)"></path>
                                    <g id="路径-4">
                                        <mask id="mask-8" fill="white">
                                            <use xlink:href="#path-7"></use>
                                        </mask>
                                        <use id="蒙版" fill="#F4F5FE" xlink:href="#path-7"></use>
                                        <polygon id="矩形" fill="url(#linearGradient-9)" mask="url(#mask-8)" points="-9.67385578 70.5268849 -4.67385578 70.5268849 16.0106069 84.5268849 11.0106069 84.5268849"></polygon>
                                    </g>
                                </g>
                            </g>
                            <g id="编组-30" stroke="none" stroke-width="1" fill-rule="evenodd" transform="translate(111.768775, 127.613605)">
                                <path d="M33.3419677,36.0693292 L47.7240073,45.1575728 C49.1246459,46.042659 49.5425837,47.895605 48.6574975,49.2962436 C48.4195073,49.6728603 48.100624,49.9917436 47.7240073,50.2297338 L33.3419677,59.3179774 C30.0790912,61.3798419 25.9209088,61.3798419 22.6580323,59.3179774 L6.93822011,49.3843736 C6.00446106,48.7943161 5.72583586,47.5590188 6.31589333,46.6252597 C6.47455344,46.374182 6.68714233,46.1615931 6.93822011,46.0029329 L22.6580323,36.0693292 C25.9209088,34.0074647 30.0790912,34.0074647 33.3419677,36.0693292 Z" id="蒙版" fill="#ABAFE0" opacity="0.85" filter="url(#filter-10)"></path>
                                <g id="编组-26备份">
                                    <g id="路径-22" transform="translate(1.822145, 16.642408)">
                                        <mask id="mask-13" fill="white">
                                            <use xlink:href="#path-12"></use>
                                        </mask>
                                        <use id="蒙版" fill="url(#linearGradient-11)" xlink:href="#path-12"></use>
                                    </g>
                                    <path d="M33.12095,12.0531201 L49.2911455,21.6934083 L53.2544078,21.6936533 L53.2557738,25.5127551 C53.3079046,26.1173089 53.1776743,26.7433059 52.8432126,27.3042931 C52.6016131,27.7095242 52.2678461,28.0520618 51.8690165,28.3040886 L33.3419677,40.0116307 C30.0790912,42.0734951 25.9209088,42.0734951 22.6580323,40.0116307 L2.75398901,27.4339435 C2.15462484,27.0551956 1.82518494,26.4105998 1.82214547,25.7505458 L1.8221543,25.7504376 L1.8221543,21.6936533 L6.70814547,21.6934083 L22.87905,12.0531201 C26.0339361,10.172171 29.9660639,10.172171 33.12095,12.0531201 Z" id="形状结合" fill="#FFFFFF"></path>
                                    <path d="M32.461288,17.6936533 L53.2544078,17.6936533 L53.2557738,24.5127551 C53.3079046,25.1173089 53.1776743,25.7433059 52.8432126,26.3042931 C52.6016131,26.7095242 52.2678461,27.0520618 51.8690165,27.3040886 L33.3419677,39.0116307 C30.0790912,41.0734951 25.9209088,41.0734951 22.6580323,39.0116307 L2.75398901,26.4339435 C2.20457185,26.0867579 1.88196607,25.5161863 1.82967266,24.9150923 L1.8221543,24.7504376 L1.8221543,17.6936533 L23.5384495,17.6936533 C26.3462833,16.2932427 29.6534231,16.2933299 32.461288,17.6936533 Z" id="路径" fill="url(#linearGradient-14)"></path>
                                    <g id="路径-4">
                                        <mask id="mask-16" fill="white">
                                            <use xlink:href="#path-15"></use>
                                        </mask>
                                        <use id="蒙版" fill="#F4F5FE" xlink:href="#path-15"></use>
                                        <path d="M36.3147576,29.2700155 L32.9415033,27.0425155 C31.9760938,26.4050155 30.8373223,25.7594452 29.8762016,25.1924913 L29.9137016,25.1688869 L32.2820852,26.0073212 L38.3847576,27.9670535 L39.5097576,27.258922 L31.0936585,21.701422 L30.0436585,22.3623448 L33.405555,24.5823448 C34.3596068,25.2123448 35.5626671,25.8906942 36.4897145,26.4351481 L36.4522145,26.4587525 L34.0799731,25.6080974 L27.9811585,23.6605859 L26.8486585,24.3734383 L35.2647576,29.9309383 L36.3147576,29.2700155 Z M42.6987662,25.4566878 C43.9812662,24.6494178 43.5689171,23.4001093 42.1946283,22.4926093 C40.9793481,21.6901093 39.8894559,21.541141 38.7942188,21.6885199 L37.6010507,21.838945 C36.8446068,21.9488602 36.2388094,22.0518458 35.6368482,21.6543458 C35.080318,21.2868458 35.058443,20.8757899 35.545943,20.5689329 C36.003443,20.2809594 36.6208137,20.2146364 37.4162663,20.2852552 L36.9224947,19.2336894 C35.7796714,19.059442 34.7485076,19.2104374 34.1035076,19.6164329 C32.9785076,20.3245644 33.2397792,21.5224773 34.614068,22.4299773 C35.8407059,23.2399773 37.0846714,23.3359116 37.9992619,23.2143458 L39.2187878,23.061979 C40.031805,22.9604011 40.5623869,22.8754617 41.1870637,23.2879617 C41.7776671,23.6779617 41.8449731,24.1190176 41.2674731,24.4825251 C40.7799731,24.7893821 39.8801671,24.8723435 38.9261369,24.75505 L39.4471283,25.9213245 C40.7708136,26.0989214 41.9562662,25.9240546 42.6987662,25.4566878 Z M48.8322576,21.3908721 L47.4806843,20.4983721 L46.4381843,21.154574 L39.6008137,16.639574 L38.7833137,17.1541495 C38.7601887,17.5935308 38.5934861,17.9767955 38.1974947,18.4311404 L39.2310507,19.1136404 L40.2360507,18.4810429 L45.3356843,21.8485429 L44.1431843,22.5991623 L45.4947576,23.4916623 L48.8322576,21.3908721 Z" id="NS1" fill="#FF3869" fill-rule="nonzero" mask="url(#mask-16)"></path>
                                        <path d="M20.553556,23.393457 L41.667104,10.289941 C42.1363617,9.99870976 42.2806806,9.38221164 41.9894493,8.91295394 C41.8501296,8.68846968 41.6276342,8.52824166 41.3705632,8.4672689 L14.3386114,2.05575971 C13.8250047,1.93394111 13.2840655,2.02010572 12.8337246,2.29546871 L-8.15129023,15.1268515 C-9.09365528,15.7030649 -9.39047984,16.9341159 -8.81426644,17.876481 C-8.5327633,18.3368638 -8.07716779,18.6639573 -7.55094465,18.7834794 L16.0606874,24.1464348 C17.5990629,24.495849 19.2131582,24.2253363 20.553556,23.393457 Z" fill="url(#linearGradient-17)" opacity="0.601091" filter="url(#filter-18)" mask="url(#mask-16)"></path>
                                    </g>
                                </g>
                            </g>
                            <g id="编组-30" stroke="none" stroke-width="1" fill-rule="evenodd" transform="translate(167.768775, 77.613605)">
                                <path d="M33.3419677,36.0693292 L47.7240073,45.1575728 C49.1246459,46.042659 49.5425837,47.895605 48.6574975,49.2962436 C48.4195073,49.6728603 48.100624,49.9917436 47.7240073,50.2297338 L33.3419677,59.3179774 C30.0790912,61.3798419 25.9209088,61.3798419 22.6580323,59.3179774 L6.93822011,49.3843736 C6.00446106,48.7943161 5.72583586,47.5590188 6.31589333,46.6252597 C6.47455344,46.374182 6.68714233,46.1615931 6.93822011,46.0029329 L22.6580323,36.0693292 C25.9209088,34.0074647 30.0790912,34.0074647 33.3419677,36.0693292 Z" id="蒙版" fill="#ABAFE0" opacity="0.85" filter="url(#filter-19)"></path>
                                <g id="编组-26备份">
                                    <g id="路径-22" transform="translate(1.822145, 16.642408)">
                                        <mask id="mask-21" fill="white">
                                            <use xlink:href="#path-20"></use>
                                        </mask>
                                        <use id="蒙版" fill="url(#linearGradient-11)" xlink:href="#path-20"></use>
                                    </g>
                                    <path d="M33.12095,12.0531201 L49.2911455,21.6934083 L53.2544078,21.6936533 L53.2557738,25.5127551 C53.3079046,26.1173089 53.1776743,26.7433059 52.8432126,27.3042931 C52.6016131,27.7095242 52.2678461,28.0520618 51.8690165,28.3040886 L33.3419677,40.0116307 C30.0790912,42.0734951 25.9209088,42.0734951 22.6580323,40.0116307 L2.75398901,27.4339435 C2.15462484,27.0551956 1.82518494,26.4105998 1.82214547,25.7505458 L1.8221543,25.7504376 L1.8221543,21.6936533 L6.70814547,21.6934083 L22.87905,12.0531201 C26.0339361,10.172171 29.9660639,10.172171 33.12095,12.0531201 Z" id="形状结合" fill="#FFFFFF"></path>
                                    <path d="M32.461288,17.6936533 L53.2544078,17.6936533 L53.2557738,24.5127551 C53.3079046,25.1173089 53.1776743,25.7433059 52.8432126,26.3042931 C52.6016131,26.7095242 52.2678461,27.0520618 51.8690165,27.3040886 L33.3419677,39.0116307 C30.0790912,41.0734951 25.9209088,41.0734951 22.6580323,39.0116307 L2.75398901,26.4339435 C2.20457185,26.0867579 1.88196607,25.5161863 1.82967266,24.9150923 L1.8221543,24.7504376 L1.8221543,17.6936533 L23.5384495,17.6936533 C26.3462833,16.2932427 29.6534231,16.2933299 32.461288,17.6936533 Z" id="路径" fill="url(#linearGradient-14)"></path>
                                    <g id="路径-4">
                                        <mask id="mask-23" fill="white">
                                            <use xlink:href="#path-22"></use>
                                        </mask>
                                        <use id="蒙版" fill="#F4F5FE" xlink:href="#path-22"></use>
                                        <path d="M36.3250331,29.2214791 L32.9330871,26.9939791 C31.9623281,26.3564791 30.8177036,25.7109389 29.8515481,25.1440043 L29.8890481,25.1203862 L32.2674384,25.9586143 L38.3950331,27.9177586 L39.5200331,27.2092148 L31.0572991,21.6517148 L30.0072991,22.3130223 L33.3878244,24.5330223 C34.3471627,25.1630223 35.5563907,25.8413388 36.4882841,26.3857734 L36.4507841,26.4093916 L34.0684731,25.5589398 L27.9447991,23.6120192 L26.8122991,24.3252866 L35.2750331,29.8827866 L36.3250331,29.2214791 Z M42.7099228,25.4058703 C43.9924228,24.5981304 43.5735914,23.3485443 42.1916874,22.4410443 C40.9696732,21.6385443 39.8761937,21.4897382 38.778628,21.6373644 L37.5828796,21.7880561 C36.8248622,21.8981444 36.2178691,22.0012729 35.6125723,21.6037729 C35.0529583,21.2362729 35.0292582,20.8251043 35.5167582,20.5180687 C35.9742582,20.2299276 36.5930135,20.1634699 37.3909205,20.2339596 L36.891296,19.1821877 C35.7446337,19.0081052 34.7113301,19.1593369 34.0663301,19.5655687 C32.9413301,20.2741124 33.2084546,21.4723167 34.5903585,22.3798167 C35.8237935,23.1898167 37.0715351,23.2855448 37.9880766,23.1637729 L39.2102457,23.0111341 C40.0250251,22.9093748 40.5566769,22.8243117 41.1848151,23.2368117 C41.7786911,23.6268117 41.848074,24.0679803 41.270574,24.4316994 C40.783074,24.7387351 39.8811911,24.8218888 38.9240771,24.7047409 L39.4514879,25.8712491 C40.7795157,26.0486481 41.9674228,25.8735092 42.7099228,25.4058703 Z M48.9325331,21.2810654 L47.5163671,20.3510654 L46.3013671,21.1162927 C46.0388671,21.2816196 45.7170499,21.5430772 45.4852326,21.7478513 C44.8991769,20.0893328 44.2844867,18.5663923 42.8454794,17.6213923 C41.292265,16.6013923 39.5783233,16.3731894 38.5283233,17.0344969 C37.7708233,17.5115831 37.732651,18.1233423 38.0563617,18.9920488 L39.5700172,19.2141588 C39.3867687,18.7271611 39.3056238,18.2493216 39.7106238,17.9942458 C40.2431238,17.6588684 41.0456343,17.7999234 41.8793449,18.3474234 C43.1013591,19.1499234 43.5878665,20.6948238 44.2417741,22.9864834 L45.2125331,23.6239834 L48.9325331,21.2810654 Z" id="NS2" fill="#A060FA" fill-rule="nonzero" mask="url(#mask-23)"></path>
                                        <path d="M20.553556,23.393457 L41.667104,10.289941 C42.1363617,9.99870976 42.2806806,9.38221164 41.9894493,8.91295394 C41.8501296,8.68846968 41.6276342,8.52824166 41.3705632,8.4672689 L14.3386114,2.05575971 C13.8250047,1.93394111 13.2840655,2.02010572 12.8337246,2.29546871 L-8.15129023,15.1268515 C-9.09365528,15.7030649 -9.39047984,16.9341159 -8.81426644,17.876481 C-8.5327633,18.3368638 -8.07716779,18.6639573 -7.55094465,18.7834794 L16.0606874,24.1464348 C17.5990629,24.495849 19.2131582,24.2253363 20.553556,23.393457 Z" fill="url(#linearGradient-17)" opacity="0.601091" filter="url(#filter-24)" mask="url(#mask-23)"></path>
                                    </g>
                                </g>
                            </g>
                            <path d="M112.548764,47.8420132 L109.465933,49.8268257 L109.465933,49.8268257 C101.771245,54.8094694 91.8819061,54.8643009 84.1324394,49.9672875 C79.6414348,47.129349 78.3013599,41.1880666 81.1392985,36.697062 C81.8831663,35.5198998 82.8737444,34.5182759 84.0425857,33.7614006 L118.43353,11.4917771 C126.128219,6.50913334 136.017558,6.4543018 143.767024,11.3513152 C148.258029,14.1892538 149.598104,20.1305361 146.760165,24.6215407 C146.016297,25.7987029 145.025719,26.8003268 143.856878,27.5572021 L139.874921,30.1356911 C135.239128,33.1375678 133.914577,39.3291228 136.916453,43.9649163 C137.56786,44.9708832 138.394793,45.8515636 139.357802,46.5649452 L194.770292,87.6136049 L194.770292,87.6136049 L191.851308,91 L146.080135,56.6838058 L141.708221,53.4060338 L135.372738,48.6561084 C128.682874,43.6404917 119.578971,43.3157699 112.548764,47.8420132 Z" id="路径" stroke="url(#linearGradient-25)" stroke-width="2"></path>
                            <path d="M77.4659335,70.8268257 L77.4659335,70.8268257 L77.4659335,70.8268257 C69.7712447,75.8094694 59.8819061,75.8643009 52.1324394,70.9672875 C47.6414348,68.129349 46.3013599,62.1880666 49.1392985,57.697062 C49.8831663,56.5198998 50.8737444,55.5182759 52.0425857,54.7614006 L86.4335302,32.4917771 C94.128219,27.5091333 104.017558,27.4543018 111.767024,32.3513152 C116.258029,35.1892538 117.598104,41.1305361 114.760165,45.6215407 C114.016297,46.7987029 113.025719,47.8003268 111.856878,48.5572021 L111.55706,48.7513472 C102.683621,54.4972826 99.8142706,66.15646 105.007563,75.3642504 L138.424835,134.613605 L138.424835,134.613605 L135.505851,138 L100.879586,76.6203929 C96.3808766,68.6458398 86.2692998,65.8281115 78.2947467,70.3268205 C78.0136679,70.4853864 77.737279,70.6521258 77.4659335,70.8268257 Z" id="路径备份" stroke="url(#linearGradient-26)" stroke-width="2"></path>
                            <g id="编组-27" stroke="none" stroke-width="1" fill-rule="evenodd" transform="translate(119.768775, 113.526885)">
                                <g id="路径-4" transform="translate(12.629618, 24.086720)">
                                    <mask id="mask-28" fill="white">
                                        <use xlink:href="#path-27"></use>
                                    </mask>
                                    <g id="蒙版">
                                        <use fill="black" fill-opacity="1" filter="url(#filter-29)" xlink:href="#path-27"></use>
                                        <use fill="#E3E7FD" fill-rule="evenodd" xlink:href="#path-27"></use>
                                    </g>
                                    <path d="M-0.0390722675,13.393457 L21.0744757,0.289941047 C21.5437334,-0.00129023699 21.6880523,-0.617788363 21.396821,-1.08704606 C21.2575014,-1.31153032 21.0350059,-1.47175834 20.7779349,-1.5327311 L-6.25401683,-7.94424029 C-6.76762361,-8.06605889 -7.30856279,-7.97989428 -7.75890368,-7.70453129 L-28.7439185,5.12685148 C-29.6862835,5.70306488 -29.9831081,6.93411595 -29.4068947,7.876481 C-29.1253916,8.33686378 -28.6697961,8.66395732 -28.1435729,8.78347939 L-4.53194082,14.1464348 C-2.99356534,14.495849 -1.37947005,14.2253363 -0.0390722675,13.393457 Z" fill="url(#linearGradient-17)" opacity="0.601091" filter="url(#filter-30)" mask="url(#mask-28)"></path>
                                </g>
                                <path d="M26.0502122,0.953681482 L25.6527545,1.78604322 C25.751815,1.92342133 25.8349185,2.07573272 25.8983954,2.24134135 L25.8983954,2.24134135 L32.1545496,18.5633934 C32.4982459,19.4600831 32.1561203,20.4744818 31.3395528,20.97985 L31.3395528,20.97985 L10.182,34.0736815 L9.85518852,34.7557227 L8.39405303,34.5689391 L8.40109472,34.5554356 C7.7655623,34.432909 7.20134539,34.0046956 6.93285603,33.3628358 L6.93285603,33.3628358 L0.155174503,17.1598782 C-0.226155885,16.2482567 0.11544617,15.1947865 0.959176587,14.6804077 L0.959176587,14.6804077 L22.9897983,1.24947613 C23.0931613,1.18646107 23.2020321,1.13296071 23.3150701,1.08963386 C23.5540931,0.998017618 23.7998399,0.955325994 24.0412772,0.956640203 L24.0430864,0.953681482 L26.0502122,0.953681482 Z" id="形状结合" fill="url(#linearGradient-31)"></path>
                                <g id="路径-20" transform="translate(1.153366, 0.000000)">
                                    <mask id="mask-34" fill="white">
                                        <use xlink:href="#path-33"></use>
                                    </mask>
                                    <use id="蒙版" fill="url(#linearGradient-32)" xlink:href="#path-33"></use>
                                    <path d="M9.96084996,6.11302732 C9.96084996,6.11302732 17.5050823,9.72611823 32.5935469,16.9523001 L26.3042338,-3.5372795 C15.4086446,2.89625838 9.96084996,6.11302732 9.96084996,6.11302732 Z" fill="#FFFFFF" opacity="0.300000012" mask="url(#mask-34)"></path>
                                </g>
                                <path d="M25.2139971,1.70215307 C25.7262002,1.50000733 26.2027493,1.47595042 26.5955907,1.60962544 C26.9862556,1.74255988 27.2831977,2.03333631 27.4326665,2.42329423 L27.4326665,2.42329423 L33.6884228,18.7443085 C33.8171828,19.080238 33.817607,19.4382224 33.7094221,19.7596517 C33.6012373,20.081081 33.3844433,20.3659553 33.0787668,20.5556646 L33.0787668,20.5556646 L11.2574768,34.0984203 C10.6583168,34.3643423 10.2360524,34.3800107 9.8688312,34.2293986 C9.51365972,34.0837286 9.21405947,33.8025653 9.05421521,33.4204361 L9.05421521,33.4204361 L2.2767959,17.2181054 C2.13394136,16.8765925 2.12635778,16.5085054 2.23344426,16.1775183 C2.34053074,15.8465312 2.56228728,15.5526441 2.87811299,15.359531 L2.87811299,15.359531 Z" id="路径-4" stroke="#F9FAFE"></path>
                            </g>
                            <g id="编组-35" stroke="none" stroke-width="1" fill-rule="evenodd" transform="translate(114.758168, 0.132123)">
                                <ellipse id="椭圆形" fill="#768BDF" cx="14" cy="21.3195466" rx="14" ry="7.54832992"></ellipse>
                                <path d="M14,8.96150986 C20.8790134,8.96150986 26.4772634,11.9180827 26.6619609,15.6029674 L26.6666667,15.7909512 L26.6679083,24.5372703 C24.4275622,27.0967799 19.5973935,28.8678765 14,28.8678765 C8.40260654,28.8678765 3.57243775,27.0967799 1.33209173,24.5372703 L1.33333333,15.7909512 L1.33803909,15.6029674 C1.52273659,11.9180827 7.12098662,8.96150986 14,8.96150986 Z" id="形状结合" fill="url(#linearGradient-35)"></path>
                                <path d="M14,8.96150986 C20.8790134,8.96150986 26.4772634,11.9180827 26.6619609,15.6029674 L26.6666667,15.7909512 L26.6679083,24.5372703 C24.4275622,27.0967799 19.5973935,28.8678765 14,28.8678765 C8.40260654,28.8678765 3.57243775,27.0967799 1.33209173,24.5372703 L1.33333333,15.7909512 L1.33803909,15.6029674 C1.52273659,11.9180827 7.12098662,8.96150986 14,8.96150986 Z" id="形状结合" fill="url(#linearGradient-36)"></path>
                                <ellipse id="椭圆形" fill="#F9FAFE" cx="14" cy="15.7909512" rx="12.6666667" ry="6.82944136"></ellipse>
                                <ellipse id="椭圆形" fill="#F8DF96" cx="14" cy="15.4657397" rx="9.66666667" ry="5.20338389"></ellipse>
                                <polygon id="矩形备份-12" fill="#B7A163" opacity="0.85" filter="url(#filter-37)" transform="translate(14.166667, 15.409355) scale(-1, 1) translate(-14.166667, -15.409355) " points="7.66666667 15.4093547 14.1666667 12 20.6666667 15.4093547 14.1666667 18.8187093"></polygon>
                                <g id="编组-36" transform="translate(7.666667, 0.000000)">
                                    <polygon id="矩形" fill="#FFEAAD" points="6.5 6.81870933 13 3.40935466 13 9.59064534 6.5 13"></polygon>
                                    <polygon id="矩形" fill="#D2BC79" transform="translate(3.250000, 8.204677) scale(-1, 1) translate(-3.250000, -8.204677) " points="0 6.81870933 6.5 3.40935466 6.5 9.59064534 0 13"></polygon>
                                    <polygon id="矩形备份-12" fill="#FFD96D" transform="translate(6.500000, 3.409355) scale(-1, 1) translate(-6.500000, -3.409355) " points="0 3.40935466 6.5 0 13 3.40935466 6.5 6.81870933"></polygon>
                                </g>
                            </g>
                            <g id="编组-35备份" stroke="none" stroke-width="1" fill-rule="evenodd" transform="translate(83.758168, 20.132123)">
                                <ellipse id="椭圆形" fill="#768BDF" cx="14" cy="21.3195466" rx="14" ry="7.54832992"></ellipse>
                                <path d="M14,8.96150986 C20.8790134,8.96150986 26.4772634,11.9180827 26.6619609,15.6029674 L26.6666667,15.7909512 L26.6679083,24.5372703 C24.4275622,27.0967799 19.5973935,28.8678765 14,28.8678765 C8.40260654,28.8678765 3.57243775,27.0967799 1.33209173,24.5372703 L1.33333333,15.7909512 L1.33803909,15.6029674 C1.52273659,11.9180827 7.12098662,8.96150986 14,8.96150986 Z" id="形状结合" fill="url(#linearGradient-35)"></path>
                                <path d="M14,8.96150986 C20.8790134,8.96150986 26.4772634,11.9180827 26.6619609,15.6029674 L26.6666667,15.7909512 L26.6679083,24.5372703 C24.4275622,27.0967799 19.5973935,28.8678765 14,28.8678765 C8.40260654,28.8678765 3.57243775,27.0967799 1.33209173,24.5372703 L1.33333333,15.7909512 L1.33803909,15.6029674 C1.52273659,11.9180827 7.12098662,8.96150986 14,8.96150986 Z" id="形状结合" fill="url(#linearGradient-36)"></path>
                                <ellipse id="椭圆形" fill="#F9FAFE" cx="14" cy="15.7909512" rx="12.6666667" ry="6.82944136"></ellipse>
                                <ellipse id="椭圆形" fill="#26DDA2" cx="14" cy="15.4657397" rx="9.66666667" ry="5.20338389"></ellipse>
                                <polygon id="矩形备份-12" fill="#2DA77C" opacity="0.85" filter="url(#filter-38)" transform="translate(14.166667, 15.409355) scale(-1, 1) translate(-14.166667, -15.409355) " points="7.66666667 15.4093547 14.1666667 12 20.6666667 15.4093547 14.1666667 18.8187093"></polygon>
                                <g id="编组-36" transform="translate(7.666667, 0.000000)">
                                    <polygon id="矩形" fill="#79F3CB" points="6.5 6.81870933 13 3.40935466 13 9.59064534 6.5 13"></polygon>
                                    <polygon id="矩形" fill="#26B888" transform="translate(3.250000, 8.204677) scale(-1, 1) translate(-3.250000, -8.204677) " points="0 6.81870933 6.5 3.40935466 6.5 9.59064534 0 13"></polygon>
                                    <polygon id="矩形备份-12" fill="#3AE5AD" transform="translate(6.500000, 3.409355) scale(-1, 1) translate(-6.500000, -3.409355) " points="0 3.40935466 6.5 0 13 3.40935466 6.5 6.81870933"></polygon>
                                </g>
                            </g>
                            <g id="编组-35备份-2" stroke="none" stroke-width="1" fill-rule="evenodd" transform="translate(52.758168, 41.132123)">
                                <ellipse id="椭圆形" fill="#768BDF" cx="14" cy="21.3195466" rx="14" ry="7.54832992"></ellipse>
                                <path d="M14,8.96150986 C20.8790134,8.96150986 26.4772634,11.9180827 26.6619609,15.6029674 L26.6666667,15.7909512 L26.6679083,24.5372703 C24.4275622,27.0967799 19.5973935,28.8678765 14,28.8678765 C8.40260654,28.8678765 3.57243775,27.0967799 1.33209173,24.5372703 L1.33333333,15.7909512 L1.33803909,15.6029674 C1.52273659,11.9180827 7.12098662,8.96150986 14,8.96150986 Z" id="形状结合" fill="url(#linearGradient-35)"></path>
                                <path d="M14,8.96150986 C20.8790134,8.96150986 26.4772634,11.9180827 26.6619609,15.6029674 L26.6666667,15.7909512 L26.6679083,24.5372703 C24.4275622,27.0967799 19.5973935,28.8678765 14,28.8678765 C8.40260654,28.8678765 3.57243775,27.0967799 1.33209173,24.5372703 L1.33333333,15.7909512 L1.33803909,15.6029674 C1.52273659,11.9180827 7.12098662,8.96150986 14,8.96150986 Z" id="形状结合" fill="url(#linearGradient-36)"></path>
                                <ellipse id="椭圆形" fill="#F9FAFE" cx="14" cy="15.7909512" rx="12.6666667" ry="6.82944136"></ellipse>
                                <ellipse id="椭圆形" fill="#FF6172" cx="14" cy="15.4657397" rx="9.66666667" ry="5.20338389"></ellipse>
                                <polygon id="矩形备份-12" fill="#CA3541" opacity="0.85" filter="url(#filter-39)" transform="translate(14.166667, 15.409355) scale(-1, 1) translate(-14.166667, -15.409355) " points="7.66666667 15.4093547 14.1666667 12 20.6666667 15.4093547 14.1666667 18.8187093"></polygon>
                                <g id="编组-36" transform="translate(7.666667, 0.000000)">
                                    <polygon id="矩形" fill="#FEA2AC" points="6.5 6.81870933 13 3.40935466 13 9.59064534 6.5 13"></polygon>
                                    <polygon id="矩形" fill="#D93C49" transform="translate(3.250000, 8.204677) scale(-1, 1) translate(-3.250000, -8.204677) " points="0 6.81870933 6.5 3.40935466 6.5 9.59064534 0 13"></polygon>
                                    <polygon id="矩形备份-12" fill="#FE6E7D" transform="translate(6.500000, 3.409355) scale(-1, 1) translate(-6.500000, -3.409355) " points="0 3.40935466 6.5 0 13 3.40935466 6.5 6.81870933"></polygon>
                                </g>
                            </g>
                            <g id="编组-35备份-3" stroke="none" stroke-width="1" fill-rule="evenodd" transform="translate(21.758168, 62.132123)">
                                <ellipse id="椭圆形" fill="#768BDF" cx="14" cy="21.3195466" rx="14" ry="7.54832992"></ellipse>
                                <path d="M14,8.96150986 C20.8790134,8.96150986 26.4772634,11.9180827 26.6619609,15.6029674 L26.6666667,15.7909512 L26.6679083,24.5372703 C24.4275622,27.0967799 19.5973935,28.8678765 14,28.8678765 C8.40260654,28.8678765 3.57243775,27.0967799 1.33209173,24.5372703 L1.33333333,15.7909512 L1.33803909,15.6029674 C1.52273659,11.9180827 7.12098662,8.96150986 14,8.96150986 Z" id="形状结合" fill="url(#linearGradient-35)"></path>
                                <path d="M14,8.96150986 C20.8790134,8.96150986 26.4772634,11.9180827 26.6619609,15.6029674 L26.6666667,15.7909512 L26.6679083,24.5372703 C24.4275622,27.0967799 19.5973935,28.8678765 14,28.8678765 C8.40260654,28.8678765 3.57243775,27.0967799 1.33209173,24.5372703 L1.33333333,15.7909512 L1.33803909,15.6029674 C1.52273659,11.9180827 7.12098662,8.96150986 14,8.96150986 Z" id="形状结合" fill="url(#linearGradient-36)"></path>
                                <ellipse id="椭圆形" fill="#F9FAFE" cx="14" cy="15.7909512" rx="12.6666667" ry="6.82944136"></ellipse>
                                <ellipse id="椭圆形" fill="#578BFE" cx="14" cy="15.4657397" rx="9.66666667" ry="5.20338389"></ellipse>
                                <polygon id="矩形备份-12" fill="#2E5CC3" opacity="0.85" filter="url(#filter-40)" transform="translate(14.166667, 15.409355) scale(-1, 1) translate(-14.166667, -15.409355) " points="7.66666667 15.4093547 14.1666667 12 20.6666667 15.4093547 14.1666667 18.8187093"></polygon>
                                <g id="编组-36" transform="translate(7.666667, 0.000000)">
                                    <polygon id="矩形" fill="#9DBCFF" points="6.5 6.81870933 13 3.40935466 13 9.59064534 6.5 13"></polygon>
                                    <polygon id="矩形" fill="#3468DA" transform="translate(3.250000, 8.404134) scale(-1, 1) translate(-3.250000, -8.404134) " points="0 6.81870933 6.5 3.80826874 6.5 9.98955941 0 13"></polygon>
                                    <polygon id="矩形备份-12" fill="#6D9BFE" transform="translate(6.500000, 3.409355) scale(-1, 1) translate(-6.500000, -3.409355) " points="0 3.40935466 6.5 0 13 3.80826874 6.5 6.81870933"></polygon>
                                </g>
                            </g>
                            <g id="编组-27" stroke="none" stroke-width="1" fill-rule="evenodd" transform="translate(175.731786, 63.526885)">
                                <g id="路径-4" transform="translate(12.629618, 24.086720)">
                                    <mask id="mask-42" fill="white">
                                        <use xlink:href="#path-41"></use>
                                    </mask>
                                    <g id="蒙版">
                                        <use fill="black" fill-opacity="1" filter="url(#filter-43)" xlink:href="#path-41"></use>
                                        <use fill="#E3E7FD" fill-rule="evenodd" xlink:href="#path-41"></use>
                                    </g>
                                    <path d="M-0.0390722675,13.393457 L21.0744757,0.289941047 C21.5437334,-0.00129023699 21.6880523,-0.617788363 21.396821,-1.08704606 C21.2575014,-1.31153032 21.0350059,-1.47175834 20.7779349,-1.5327311 L-6.25401683,-7.94424029 C-6.76762361,-8.06605889 -7.30856279,-7.97989428 -7.75890368,-7.70453129 L-28.7439185,5.12685148 C-29.6862835,5.70306488 -29.9831081,6.93411595 -29.4068947,7.876481 C-29.1253916,8.33686378 -28.6697961,8.66395732 -28.1435729,8.78347939 L-4.53194082,14.1464348 C-2.99356534,14.495849 -1.37947005,14.2253363 -0.0390722675,13.393457 Z" fill="url(#linearGradient-17)" opacity="0.601091" filter="url(#filter-44)" mask="url(#mask-42)"></path>
                                </g>
                                <path d="M26.0502122,0.953681482 L25.6527545,1.78604322 C25.751815,1.92342133 25.8349185,2.07573272 25.8983954,2.24134135 L25.8983954,2.24134135 L32.1545496,18.5633934 C32.4982459,19.4600831 32.1561203,20.4744818 31.3395528,20.97985 L31.3395528,20.97985 L10.182,34.0736815 L9.85518852,34.7557227 L8.39405303,34.5689391 L8.40109472,34.5554356 C7.7655623,34.432909 7.20134539,34.0046956 6.93285603,33.3628358 L6.93285603,33.3628358 L0.155174503,17.1598782 C-0.226155885,16.2482567 0.11544617,15.1947865 0.959176587,14.6804077 L0.959176587,14.6804077 L22.9897983,1.24947613 C23.0931613,1.18646107 23.2020321,1.13296071 23.3150701,1.08963386 C23.5540931,0.998017618 23.7998399,0.955325994 24.0412772,0.956640203 L24.0430864,0.953681482 L26.0502122,0.953681482 Z" id="形状结合" fill="url(#linearGradient-31)"></path>
                                <g id="路径-20" transform="translate(1.153366, 0.000000)">
                                    <mask id="mask-47" fill="white">
                                        <use xlink:href="#path-46"></use>
                                    </mask>
                                    <use id="蒙版" fill="url(#linearGradient-45)" xlink:href="#path-46"></use>
                                    <path d="M9.96084996,6.11302732 C9.96084996,6.11302732 17.5050823,9.72611823 32.5935469,16.9523001 L26.3042338,-3.5372795 C15.4086446,2.89625838 9.96084996,6.11302732 9.96084996,6.11302732 Z" fill="#FFFFFF" opacity="0.300000012" mask="url(#mask-47)"></path>
                                </g>
                                <path d="M25.2139971,1.70215307 C25.7262002,1.50000733 26.2027493,1.47595042 26.5955907,1.60962544 C26.9862556,1.74255988 27.2831977,2.03333631 27.4326665,2.42329423 L27.4326665,2.42329423 L33.6884228,18.7443085 C33.8171828,19.080238 33.817607,19.4382224 33.7094221,19.7596517 C33.6012373,20.081081 33.3844433,20.3659553 33.0787668,20.5556646 L33.0787668,20.5556646 L11.2574768,34.0984203 C10.6583168,34.3643423 10.2360524,34.3800107 9.8688312,34.2293986 C9.51365972,34.0837286 9.21405947,33.8025653 9.05421521,33.4204361 L9.05421521,33.4204361 L2.2767959,17.2181054 C2.13394136,16.8765925 2.12635778,16.5085054 2.23344426,16.1775183 C2.34053074,15.8465312 2.56228728,15.5526441 2.87811299,15.359531 L2.87811299,15.359531 Z" id="路径-4" stroke="#F9FAFE"></path>
                            </g>
                            <g id="编组-34备份-2" stroke="none" stroke-width="1" fill-rule="evenodd" transform="translate(108.174461, 82.000000)">
                                <path d="M7.042,18.254 L6.91944594,18.1005655 L1.81693046,22 L0.485419089,21.6354863 L0.483039567,21.6215595 C0.341176212,21.5605032 0.215445909,21.4577986 0.125985486,21.3178757 C0.0437170162,21.1892014 -9.80497212e-16,21.039667 0,20.8869413 L0,10.9556828 C-1.91004719e-15,9.86401828 0.556515304,8.84766951 1.4762625,8.25962478 L14.1823697,0.135914916 C14.3079582,0.0556193111 14.447485,0.01480131 14.5863897,0.0102577363 L14.5967619,7.45740918e-13 L16.1836031,7.45740918e-13 L16.4419505,1.62211963 L15.413,4.433 L15.4133041,10.7411879 C15.4133041,11.8328524 14.8567888,12.8492012 13.9370416,13.4372459 L11.567,14.951 L9.35238472,21.0091098 L8.21934403,20.7048996 L7.042,18.254 Z" id="形状结合" fill="url(#linearGradient-48)"></path>
                                <path d="M16.8737414,0.379667215 C16.9561843,0.508434462 17,0.65813029 17,0.811028408 L17,10.7425049 C17,11.8334496 16.4442131,12.8492316 15.5254448,13.4374706 L11.3570407,16.105977 L9.35238472,21.0091098 L8.02204069,18.240977 L2.36440189,21.8637939 C1.99230477,22.1020281 1.49753347,21.9935108 1.25929926,21.6214137 C1.17685636,21.4926464 1.13304069,21.3429506 1.13304069,21.1900525 L1.13304069,11.258576 C1.13304069,10.1676312 1.68882756,9.15184931 2.60759592,8.56361027 L15.7686388,0.137286972 C16.1407359,-0.100947236 16.6355072,0.00757009515 16.8737414,0.379667215 Z" id="形状结合" fill="#E8EBFF"></path>
                                <path d="M10.2647668,6.9241458 L11.5554382,6.65908072 L8.77524693,16.1008866 L7.48457553,16.3659517 L10.2647668,6.9241458 Z M5.53448811,11.2720426 L6.55572227,11.6505185 L5.06544539,14.3870396 L6.55572227,15.2012306 L5.53448811,16.8980597 L3.17339186,15.6090692 L5.53448811,11.2720426 Z M13.5058631,6.12675491 L15.8669593,7.4157454 L13.5058631,11.752772 L12.4846289,11.3742961 L13.9745684,8.637228 L12.4846289,7.82358398 L13.5058631,6.12675491 Z" id="形状结合" fill="#3864FF" fill-rule="nonzero"></path>
                            </g>
                            <g id="编组-34备份-4" stroke="none" stroke-width="1" fill-rule="evenodd" transform="translate(154.174461, 47.000000)">
                                <path d="M7.042,18.254 L6.91944594,18.1005655 L1.81693046,22 L0.485419089,21.6354863 L0.483039567,21.6215595 C0.341176212,21.5605032 0.215445909,21.4577986 0.125985486,21.3178757 C0.0437170162,21.1892014 -9.80497212e-16,21.039667 0,20.8869413 L0,10.9556828 C-1.91004719e-15,9.86401828 0.556515304,8.84766951 1.4762625,8.25962478 L14.1823697,0.135914916 C14.3079582,0.0556193111 14.447485,0.01480131 14.5863897,0.0102577363 L14.5967619,7.45740918e-13 L16.1836031,7.45740918e-13 L16.4419505,1.62211963 L15.413,4.433 L15.4133041,10.7411879 C15.4133041,11.8328524 14.8567888,12.8492012 13.9370416,13.4372459 L11.567,14.951 L9.35238472,21.0091098 L8.21934403,20.7048996 L7.042,18.254 Z" id="形状结合" fill="url(#linearGradient-48)"></path>
                                <path d="M16.8737414,0.379667215 C16.9561843,0.508434462 17,0.65813029 17,0.811028408 L17,10.7425049 C17,11.8334496 16.4442131,12.8492316 15.5254448,13.4374706 L11.3570407,16.105977 L9.35238472,21.0091098 L8.02204069,18.240977 L2.36440189,21.8637939 C1.99230477,22.1020281 1.49753347,21.9935108 1.25929926,21.6214137 C1.17685636,21.4926464 1.13304069,21.3429506 1.13304069,21.1900525 L1.13304069,11.258576 C1.13304069,10.1676312 1.68882756,9.15184931 2.60759592,8.56361027 L15.7686388,0.137286972 C16.1407359,-0.100947236 16.6355072,0.00757009515 16.8737414,0.379667215 Z" id="形状结合" fill="#E8EBFF"></path>
                                <path d="M10.2647668,6.9241458 L11.5554382,6.65908072 L8.77524693,16.1008866 L7.48457553,16.3659517 L10.2647668,6.9241458 Z M5.53448811,11.2720426 L6.55572227,11.6505185 L5.06544539,14.3870396 L6.55572227,15.2012306 L5.53448811,16.8980597 L3.17339186,15.6090692 L5.53448811,11.2720426 Z M13.5058631,6.12675491 L15.8669593,7.4157454 L13.5058631,11.752772 L12.4846289,11.3742961 L13.9745684,8.637228 L12.4846289,7.82358398 L13.5058631,6.12675491 Z" id="形状结合" fill="#3864FF" fill-rule="nonzero"></path>
                            </g>
                            <g id="编组-41" stroke="none" stroke-width="1" fill-rule="evenodd" transform="translate(0.000000, 37.720216)">
                                <g id="编组-40" transform="translate(14.768775, 12.806669)">
                                    <path d="M2.5,32 C3.29231013,32 4.00676834,32.1996455 4.52501483,32.5105934 C5.16030216,32.8917658 5.5,33.4344622 5.5,34 C5.5,34.5655378 5.16030216,35.1082342 4.52501483,35.4894066 C4.00676834,35.8003545 3.29231013,36 2.5,36 C1.70768987,36 0.993231658,35.8003545 0.474985169,35.4894066 C-0.16030216,35.1082342 -0.5,34.5655378 -0.5,34 C-0.5,33.4344622 -0.16030216,32.8917658 0.474985169,32.5105934 C0.993231658,32.1996455 1.70768987,32 2.5,32 Z" id="椭圆形" stroke="#26DAA1" fill="#768BDF"></path>
                                    <path d="M0,0 L5,0 L5,34 C5,34.8284271 3.88071187,35.5 2.5,35.5 C1.11928813,35.5 0,34.8284271 0,34 L0,34 L0,0 Z" id="形状结合" fill="url(#linearGradient-49)"></path>
                                </g>
                                <g id="编组-39">
                                    <g id="路径">
                                        <mask id="mask-52" fill="white">
                                            <use xlink:href="#path-51"></use>
                                        </mask>
                                        <use id="蒙版" fill="url(#linearGradient-50)" xlink:href="#path-51"></use>
                                        <path d="M2.3717596,34.9656566 L2.39019245,34.9420101 C2.19501679,34.7994489 2.02257635,34.618856 1.88470562,34.4028446 C1.67957073,34.0814459 1.57058143,33.7081068 1.57058143,33.3268229 L1.57058143,21.1688913 C1.57058143,19.8032028 2.02781913,18.6850322 3.17900971,17.950277 L30.0857113,0.985388245 C32.433044,-0.271485204 33.8792322,1.69167569 34.4991913,2.03170346" stroke="#3F54EB" stroke-width="0.55" mask="url(#mask-52)"></path>
                                    </g>
                                    <path d="M4.86531348,18.6489928 L30.9853092,2.08169886 C31.9180728,1.49006903 33.1538378,1.76661258 33.7454677,2.69937618 C33.9486587,3.01972719 34.0565498,3.39126022 34.0565498,3.77061675 L34.0565498,15.2122521 C34.0565498,16.581967 33.3556989,17.8564408 32.1990309,18.5900879 L6.07903519,35.1573818 C5.14627159,35.7490116 3.91050656,35.4724681 3.31887673,34.5397045 C3.11568568,34.2193535 3.00779462,33.8478204 3.00779462,33.4684639 L3.00779462,22.0268285 C3.00779462,20.6571137 3.70864552,19.3826398 4.86531348,18.6489928 Z" id="矩形" fill="#E8EBFF"></path>
                                    <path d="M8.12196128,28.7864495 C8.84196128,28.3278815 9.43446128,27.6655183 9.89196128,26.8416366 L9.30696128,26.524223 C9.00696128,27.037793 8.63946128,27.4968538 8.15946128,27.8025657 C7.28196128,28.3614455 6.71196128,27.9969784 6.71196128,26.7894784 C6.71196128,25.5969784 7.34196128,24.4757315 8.18196128,23.9407355 C8.60196128,23.6732375 8.92446128,23.6628373 9.20946128,23.7513208 L9.78696128,22.6785111 C9.42696128,22.532795 8.86446128,22.5535513 8.15946128,23.0025657 C6.75696128,23.8958179 5.57946128,25.7182676 5.57946128,27.5482676 C5.57946128,29.4007676 6.71946128,29.6797017 8.12196128,28.7864495 Z M11.7219613,26.4936096 C11.9844613,26.3264234 12.1644613,26.1667814 12.2919613,26.0330767 L12.1569613,25.3015582 C12.0819613,25.3643257 12.0519613,25.3834327 12.0069613,25.4120932 C11.9019613,25.4789676 11.7894613,25.4681189 11.7894613,25.2131189 L11.7894613,20.3606189 L10.6869613,21.0628011 L10.6869613,25.8703011 C10.6869613,26.6503011 10.9569613,26.9808381 11.7219613,26.4936096 Z M14.3019613,24.8504077 C14.8719613,24.4873748 15.2769613,23.9519303 15.6369613,23.2951463 L15.6669613,23.2760393 L15.7494613,23.8234951 L16.6494613,23.2502851 L16.6494613,19.0502851 L15.5469613,19.7524673 L15.5469613,22.5874673 C15.2619613,23.1439838 15.0369613,23.4372863 14.6919613,23.6570168 C14.2869613,23.9149612 14.1069613,23.7971032 14.1069613,23.1521032 L14.1069613,20.6696032 L13.0044613,21.3717854 L13.0044613,23.9967854 C13.0044613,25.0467854 13.3944613,25.4283945 14.3019613,24.8504077 Z M19.0269613,21.8410554 C20.1219613,21.14365 20.6994613,20.1833402 20.6994613,19.4483402 C20.6994613,18.6683402 20.0844613,18.7825337 19.5294613,18.9260132 C19.0869613,19.0428414 18.6969613,19.1787324 18.6969613,18.8712324 C18.6969613,18.6312324 18.8769613,18.3515904 19.2594613,18.1079762 C19.5669613,17.9121295 19.8594613,17.8683362 20.1594613,17.8947662 L20.6544613,16.9120007 C20.3094613,16.8692312 19.8369613,16.9151665 19.2294613,17.3020832 C18.2694613,17.9135072 17.6619613,18.8329239 17.6619613,19.5829239 C17.6619613,20.2879239 18.2544613,20.2330607 18.7869613,20.0964114 C19.2294613,19.9870832 19.6644613,19.8525317 19.6644613,20.1675317 C19.6644613,20.4300317 19.4769613,20.7294504 19.0569613,20.9969484 C18.6669613,21.2453394 18.3069613,21.3096234 17.9319613,21.2559609 L17.4294613,22.2660031 C17.8494613,22.3435051 18.4644613,22.1993117 19.0269613,21.8410554 Z M22.9044613,19.3714758 C23.2719613,19.1374151 23.5644613,18.8686219 23.7894613,18.6503194 L23.6094613,17.9624614 C23.4969613,18.0791126 23.3319613,18.2292011 23.1969613,18.3151826 C22.8219613,18.5540201 22.6269613,18.4532156 22.6269613,17.9732156 L22.6269613,16.1132156 L23.6619613,15.4540241 L23.6619613,14.5840241 L22.6269613,15.2432156 L22.6269613,14.1107156 L21.7119613,14.693479 L21.5844613,15.9071838 L20.9319613,16.375261 L20.9319613,17.192761 L21.5244613,16.8153978 L21.5244613,18.6753978 C21.5244613,19.6128978 21.9069613,20.0067835 22.9044613,19.3714758 Z M26.2119613,17.2649292 C26.7294613,16.9353335 27.2619613,16.4161843 27.6744613,15.868463 L27.2994613,15.4323005 C26.9994613,15.8108705 26.6994613,16.1069405 26.3544613,16.326671 C25.7319613,16.7231412 25.2819613,16.6497462 25.1919613,16.0170672 L27.7794613,14.3690885 C27.8094613,14.2524815 27.8319613,14.0356513 27.8319613,13.8256513 C27.8319613,12.6706513 27.2319613,12.2052913 26.0769613,12.9409107 C25.0794613,13.5762184 24.1194613,15.0351424 24.1194613,16.3926424 C24.1194613,17.7801424 25.0344613,18.0148789 26.2119613,17.2649292 Z M26.8869613,14.2025217 L25.1769613,15.2916207 C25.2594613,14.6315764 25.6494613,14.0681854 26.0919613,13.7863572 C26.6319613,13.4424312 26.8869613,13.6400217 26.8869613,14.2025217 Z M29.8419613,14.8479824 L29.8419613,12.3429824 C30.0744613,11.5874031 30.4719613,11.1167354 30.8019613,10.9065584 C30.9744613,10.7966932 31.0944613,10.7427652 31.2444613,10.6922302 L31.4319613,9.62031143 C31.3044613,9.64901617 31.1694613,9.69749767 30.9369613,9.84557691 C30.5019613,10.1226284 30.0519613,10.7092334 29.7444613,11.4525801 L29.7219613,11.4669104 L29.6394613,10.7769546 L28.7394613,11.3501646 L28.7394613,15.5501646 L29.8419613,14.8479824 Z" id="Cluster" fill="url(#linearGradient-53)" fill-rule="nonzero"></path>
                                </g>
                            </g>
                        </g>
                    </g>
                </g>
            </g>
        </g>
    </g>
</svg>