<svg height="20" viewBox="0 0 20 20" width="20" xmlns="http://www.w3.org/2000/svg"><g fill="none" fill-rule="evenodd" stroke="#79879c" stroke-width="1.5"><path d="m8 2.5h4c.5522847 0 1 .44771525 1 1v1c0 .55228475-.4477153 1-1 1h-4c-.55228475 0-1-.44771525-1-1v-1c0-.55228475.44771525-1 1-1z"/><path d="m8 8.5h4c.5522847 0 1 .44771525 1 1v1c0 .5522847-.4477153 1-1 1h-4c-.55228475 0-1-.4477153-1-1v-1c0-.55228475.44771525-1 1-1z"/><path d="m8 14.5h4c.5522847 0 1 .4477153 1 1v1c0 .5522847-.4477153 1-1 1h-4c-.55228475 0-1-.4477153-1-1v-1c0-.5522847.44771525-1 1-1z"/><path d="m13.5 4c1.6568542 0 3 1.34314575 3 3s-1.3431458 3-3 3"/><path d="m3.5 10c1.65685425 0 3 1.3431458 3 3s-1.34314575 3-3 3" transform="matrix(-1 0 0 1 10 0)"/></g></svg>