<?xml version="1.0" encoding="UTF-8"?>
<svg width="20px" height="20px" viewBox="0 0 20 20" version="1.1" xmlns="http://www.w3.org/2000/svg" xmlns:xlink="http://www.w3.org/1999/xlink">
    <title>icon_cronjob</title>
    <g id="Dashboard" stroke="none" stroke-width="1" fill="none" fill-rule="evenodd">
        <g id="03-开发环境-创建环境-创建共享开发环境-第一步填充态-流量生成" transform="translate(-1223.000000, -409.000000)">
            <g id="创建共享开发环境" transform="translate(244.000000, 104.000000)">
                <g id="Right" transform="translate(420.000000, 0.000000)">
                    <g id="集群" transform="translate(0.000000, 126.000000)">
                        <g id="编组-17" transform="translate(24.000000, 64.000000)">
                            <g id="编组-14" transform="translate(16.000000, 64.000000)">
                                <g id="编组-7备份-29" transform="translate(518.000000, 12.000000)">
                                    <g id="编组-22" transform="translate(0.000000, 38.000000)">
                                        <g id="编组-21" transform="translate(1.000000, 1.000000)">
                                            <path d="M7.00929228,15.7726229 C7.904549,16.2373864 8.92160615,16.5 10,16.5 C13.5898509,16.5 16.5,13.5898509 16.5,10 C16.5,8.19486691 15.7641643,6.56159747 14.5760824,5.38378137 C13.4014374,4.21928587 11.7847178,3.5 10,3.5 C6.41014913,3.5 3.5,6.41014913 3.5,10 C3.5,11.0671527 3.75716717,12.0742407 4.21290897,12.9626716" id="路径" stroke="#79879C" stroke-width="1.5" transform="translate(10.000000, 10.000000) rotate(-360.000000) translate(-10.000000, -10.000000) "></path>
                                            <path d="M6.55282831,14.4299045 L7.79924938,16.038002 C7.92385436,16.1987638 7.89454343,16.4300994 7.73378158,16.5547044 C7.66921847,16.6047466 7.58985042,16.6319041 7.5081643,16.6319041 L5.0121588,16.6319041 C4.80876073,16.6319041 4.64387402,16.4670173 4.64387402,16.2636193 C4.64387402,16.1817783 4.67113441,16.1022687 4.72135093,16.0376448 L5.97093536,14.4295473 C6.09573762,14.2689386 6.32710896,14.2399117 6.48771771,14.364714 C6.5120646,14.3836329 6.53393928,14.4055344 6.55282831,14.4299045 Z" id="三角形" fill="#79879C" transform="translate(6.259577, 15.343367) scale(1, -1) rotate(-119.000000) translate(-6.259577, -15.343367) "></path>
                                            <polyline id="路径-11" stroke="#79879C" stroke-width="1.5" points="9.5 6.5 9.5 10.5 13.5 10.5"></polyline>
                                        </g>
                                    </g>
                                </g>
                            </g>
                        </g>
                    </g>
                </g>
            </g>
        </g>
    </g>
</svg>