<svg height="20" viewBox="0 0 20 20" width="20" xmlns="http://www.w3.org/2000/svg"><g fill="none" fill-rule="evenodd"><circle cx="10" cy="10" r="6" stroke="#79879c" stroke-width="1.5"/><g fill="#79879c"><path d="m10 6c1.1045695 0 2-.8954305 2-2 0-.55542557-.226411-1.05797001-.5919746-1.42037496-.3614293-.35830631-.8588815-.57962504-1.4080254-.57962504-1.1045695 0-2 .8954305-2 2 0 .32835466.07912836.63822791.21935661.91159126.09944289.19385569.22961256.36935078.38407955.5200558.14033444.13691665.30072355.25337194.47634608.3445446.27546361.14300415.58840427.22380834.92021776.22380834z"/><path d="m10 12c1.1045695 0 2-.8954305 2-2 0-.55542557-.226411-1.05797001-.5919746-1.42037496-.3614293-.35830631-.8588815-.57962504-1.4080254-.57962504-1.1045695 0-2 .8954305-2 2 0 .3283547.07912836.6382279.21935661.9115913.09944289.1938557.22961256.3693507.38407955.5200558.14033444.1369166.30072355.2533719.47634608.3445446.27546361.1430041.58840427.2238083.92021776.2238083z"/><path d="m15.1961524 15c1.1045695 0 2-.8954305 2-2 0-.5554256-.226411-1.05797-.5919746-1.420375-.3614293-.3583063-.8588814-.579625-1.4080254-.579625-1.1045695 0-2 .8954305-2 2 0 .3283547.0791284.6382279.2193566.9115913.0994429.1938557.2296126.3693507.3840796.5200558.1403344.1369166.3007235.2533719.4763461.3445446.2754636.1430041.5884042.2238083.9202177.2238083z" transform="matrix(-.5 .8660254 -.8660254 -.5 34.052558 6.339746)"/><path d="m4.80384758 15c1.1045695 0 2-.8954305 2-2 0-.5554256-.226411-1.05797-.59197463-1.420375-.36142926-.3583063-.85888144-.579625-1.40802537-.579625-1.1045695 0-2 .8954305-2 2 0 .3283547.07912836.6382279.2193566.9115913.0994429.1938557.22961257.3693507.38407956.5200558.14033444.1369166.30072355.2533719.47634608.3445446.2754636.1430041.58840427.2238083.92021776.2238083z" transform="matrix(-.5 -.8660254 .8660254 -.5 -4.052558 23.660254)"/></g></g></svg>