<svg height="20" viewBox="0 0 20 20" width="20" xmlns="http://www.w3.org/2000/svg"><g fill="none" fill-rule="evenodd"><path d="m4.88463569 14.010821c1.18998962 1.5155844 3.03897936 2.489179 5.11536431 2.489179 3.5898509 0 6.5-2.9101491 6.5-6.5m-1.3884475-4.015671c-1.1901242-1.51281111-3.0373833-2.484329-5.1115525-2.484329-3.58985087 0-6.5 2.91014913-6.5 6.5" stroke="#79879c" stroke-width="1.392857"/><g fill="#79879c"><path d="m4.61106741 12.4636238 1.24642107 1.6080974c.12460499.1607619.09529405.3920974-.0654678.5167024-.06456311.0500423-.14393116.0771997-.22561728.0771997h-2.4960055c-.20339807 0-.36828478-.1648867-.36828478-.3682848 0-.081841.02726039-.1613505.07747691-.2259745l1.24958444-1.6080974c.12480226-.1606088.35617359-.1896357.51678234-.0648334.0243469.0189189.04622157.0408205.0651106.0651906z" transform="matrix(-.76604444 .64278761 .64278761 .76604444 -.973171 .354205)"/><path d="m15.8766267 5.63372989 1.246421 1.60809746c.124605.16076185.0952941.39209737-.0654678.51670235-.0645631.05004226-.1439311.07719971-.2256173.07719971h-2.4960055c-.203398 0-.3682847-.16488672-.3682847-.36828478 0-.08184102.0272603-.16135055.0774769-.22597448l1.2495844-1.60809746c.1248023-.16060875.3561736-.18963565.5167823-.06483339.0243469.01891894.0462216.04082049.0651107.06519059z" transform="matrix(.76604444 -.64278761 -.64278761 -.76604444 7.854272 21.579435)"/><path d="m10 11.5c.8284271 0 1.5-.6715729 1.5-1.5 0-.41656917-.1698082-.79347751-.443981-1.06528122-.2710719-.26872973-.644161-.43471878-1.056019-.43471878-.82842712 0-1.5.67157288-1.5 1.5 0 .246266.05934627.4786709.16451745.6836934.07458218.1453918.17220943.2770131.28805967.3900419.10525083.1026875.22554266.1900289.35725956.2584084.20659771.1072532.4413032.1678563.69016332.1678563z"/></g><path d="m10 13.5c1.9329966 0 3.5-1.5670034 3.5-3.5 0-.97199474-.3962192-1.85144752-1.0359556-2.48565619-.6325012-.62703603-1.5030425-1.01434381-2.4640444-1.01434381-1.93299662 0-3.5 1.56700338-3.5 3.5 0 .5746207.13847463 1.1168988.38387406 1.5952847.17402507.3392475.40182199.6463639.67213923.9100976.24558526.2396042.5262662.4434009.83360563.6029531.48206131.2502573 1.02970747.3916646 1.61038108.3916646z" stroke="#79879c" stroke-width="1.5"/></g></svg>