<?xml version="1.0" encoding="UTF-8"?>
<svg width="48px" height="34px" viewBox="0 0 48 34" version="1.1" xmlns="http://www.w3.org/2000/svg" xmlns:xlink="http://www.w3.org/1999/xlink">
    <title>image_normal_applicationService</title>
    <defs>
        <linearGradient x1="82.8120124%" y1="39.4687102%" x2="27.8181138%" y2="77.7458245%" id="linearGradient-1">
            <stop stop-color="#EFF4F9" stop-opacity="0" offset="0%"></stop>
            <stop stop-color="#36435C" stop-opacity="0.732981862" offset="100%"></stop>
        </linearGradient>
    </defs>
    <g id="Dashboard" stroke="none" stroke-width="1" fill="none" fill-rule="evenodd">
        <g id="03-开发环境-创建环境-创建共享开发环境-第一步填充态-流量生成" transform="translate(-755.000000, -370.000000)">
            <g id="创建共享开发环境" transform="translate(244.000000, 104.000000)">
                <g id="Right" transform="translate(420.000000, 0.000000)">
                    <g id="集群" transform="translate(0.000000, 126.000000)">
                        <g id="编组-17" transform="translate(24.000000, 64.000000)">
                            <g id="编组-14" transform="translate(16.000000, 64.000000)">
                                <g id="编组-7备份-25" transform="translate(20.000000, 12.000000)">
                                    <g id="编组-6" transform="translate(31.000000, -0.000000)">
                                        <polygon id="路径-2" fill="url(#linearGradient-1)" points="24 34 48 30 48 13 24 27"></polygon>
                                        <polygon id="矩形" fill="#B6C2CD" points="8 6.99167325 24 13.9833465 24 34 8 27.0083268"></polygon>
                                        <polygon id="矩形备份-6" fill="#DCE5ED" points="24 0 40 6.99167325 24 13.9833465 8 6.99167325"></polygon>
                                        <polygon id="矩形" fill="#36435C" transform="translate(32.000000, 20.495837) scale(-1, 1) translate(-32.000000, -20.495837) " points="24 6.99167325 40 13.9833465 40 34 24 27.0083268"></polygon>
                                    </g>
                                </g>
                            </g>
                        </g>
                    </g>
                </g>
            </g>
        </g>
    </g>
</svg>