<svg height="53" viewBox="0 0 104 53" width="104" xmlns="http://www.w3.org/2000/svg" xmlns:xlink="http://www.w3.org/1999/xlink"><mask id="a" fill="#fff"><rect fill="#fff" fill-rule="evenodd" height="56" rx="4" width="104"/></mask><g fill="none" fill-rule="evenodd"><rect fill="#e0eeff" height="65" rx="4" width="104"/><rect height="53" rx="4" stroke="#314d82" stroke-width="3" width="101" x="1.5" y="1.5"/><g mask="url(#a)"><g transform="translate(3 3)"><path d="m1 0h96c.5522847 0 1 .44771525 1 1v7h-98v-7c0-.55228475.44771525-1 1-1z" fill="#e6ecf6"/><path d="m0 8h98v42h-98z" fill="#f5f9ff"/><path d="m4.5 5.5c.82842712 0 1.5-.67157288 1.5-1.5s-.67157288-1.5-1.5-1.5-1.5.67157288-1.5 1.5.67157288 1.5 1.5 1.5z" fill="#ff3f3f"/><path d="m10.5 5.5c.8284271 0 1.5-.67157288 1.5-1.5s-.6715729-1.5-1.5-1.5c-.82842712 0-1.5.67157288-1.5 1.5s.67157288 1.5 1.5 1.5z" fill="#ff943f"/><path d="m16.5 5.5c.8284271 0 1.5-.67157288 1.5-1.5s-.6715729-1.5-1.5-1.5-1.5.67157288-1.5 1.5.6715729 1.5 1.5 1.5z" fill="#1ac46f"/></g></g></g></svg>