<svg height="103" viewBox="0 0 96 103" width="96" xmlns="http://www.w3.org/2000/svg" xmlns:xlink="http://www.w3.org/1999/xlink"><linearGradient id="a" x1="82.812012%" x2="27.818114%" y1="39.46871%" y2="77.745825%"><stop offset="0" stop-color="#eff4f9" stop-opacity="0"/><stop offset="1" stop-color="#7f899c" stop-opacity=".732982"/></linearGradient><g fill="none" fill-rule="evenodd"><g transform="translate(16 35)"><path d="m32 68 48-8v-34l-48 28z" fill="url(#a)"/><path d="m0 13.9833465 32 13.9833465v40.033307l-32-13.9833465z" fill="#e1e5eb"/><path d="m32 0 32 13.9833465-32 13.9833465-32-13.9833465z" fill="#ebeff6"/><path d="m32 13.9833465 32 13.9833465v40.033307l-32-13.9833465z" fill="#b9c1cd" transform="matrix(-1 0 0 1 96 0)"/></g><g transform="translate(32)"><path d="m16 49c10.6666667-15.442296 16-26.442296 16-33 0-9.836556-7.163444-16-16-16s-16 6.163444-16 16c0 6.557704 5.33333333 17.557704 16 33z" fill="#b9c1cd" opacity=".3"/><path d="m9.99997181 1c4.97068489 0 9.00002819 4.02946001 9.00002819 9 0 4.97054-4.0293809 9-9.00004698 9-4.97057212 0-8.99995302-4.02946-8.99995302-9.00002819 0-4.97054939 4.0293997-8.99997181 8.99997181-8.99997181zm.70224689 7.43984811h-1.34999299c-.24858499 0-.44999765.20152375-.44999765.45005028v6.30338331c0 .2486017.20143145.4500691.44999765.4500691h1.34999299c.248491 0 .44996-.2014862.44996-.4500691v-6.30340211c0-.24852653-.2014878-.45003148-.44996-.45003148zm0-4.0664162h-1.34999299c-.24858499 0-.44999765.20152374-.44999765.45005027v1.34994409c0 .24860171.20143145.45006907.44999765.45006907h1.34999299c.248491 0 .44996-.20148616.44996-.45006907v-1.34996288c0-.24852653-.2014878-.45003148-.44996-.45003148z" fill="#b6c2cd" fill-rule="nonzero" transform="translate(6 6)"/></g></g></svg>