<svg fill="none" height="72" viewBox="0 0 72 72" width="72" xmlns="http://www.w3.org/2000/svg" xmlns:xlink="http://www.w3.org/1999/xlink"><clipPath id="a"><path d="m11 11h50v50h-50z"/></clipPath><g clip-path="url(#a)"><path d="m16 23.5h40c3.3333 0 5 1.6667 5 5v27.5c0 3.3333-1.6667 5-5 5h-40c-3.3333 0-5-1.6667-5-5v-27.5c0-3.3333 1.6667-5 5-5z" fill="#d24425"/><path d="m48.5 11c1.3261 0 2.5979.5268 3.5355 1.4645.9377.9376 1.4645 2.2094 1.4645 3.5355v42.525c.0066.6587.2729 1.2882.741 1.7516.4681.4635 1.1003.7234 1.759.7234l-2.5-.0031v.0031h-37.5c-1.3261 0-2.5979-.5268-3.5355-1.4645-.9377-.9376-1.4645-2.2094-1.4645-3.5355v-40c0-1.3261.5268-2.5979 1.4645-3.5355.9376-.9377 2.2094-1.4645 3.5355-1.4645z" fill="#f67138"/><path d="m18.5 34.75v-17.5h5v2.5h-2.5v12.5h2.5v2.5zm28.75 0v-17.5h-5v2.5h2.5v12.5h-2.5v2.5z" fill="#ffdcb7" fill-opacity=".6"/><path d="m26.6125 29.75c.5027.0086.989-.1785 1.3562-.5219.3508-.367.5418-.858.5313-1.3656.0056-.2481-.0385-.4948-.1298-.7256-.0912-.2308-.2277-.4409-.4015-.6181-.1808-.1715-.3937-.3055-.6264-.3946-.2327-.089-.4807-.1312-.7298-.1242-.5313 0-.9688.175-1.3063.5219-.1859.1685-.3322.3762-.4284.608-.0961.2317-.1398.482-.1278.7326 0 .5469.1687.9938.5562 1.3438.1684.1759.3714.3151.5962.4087s.4666.1395.7101.135zm6.25 0c.5027.0086.989-.1785 1.3562-.5219.3508-.367.5418-.858.5313-1.3656.0056-.2481-.0385-.4948-.1298-.7256-.0912-.2308-.2277-.4409-.4015-.6181-.1808-.1715-.3937-.3055-.6264-.3946-.2327-.089-.4807-.1312-.7298-.1242-.5313 0-.9688.175-1.3063.5219-.1859.1685-.3322.3762-.4284.608-.0961.2317-.1398.482-.1278.7326 0 .5469.1687.9938.5562 1.3438.1684.1759.3714.3151.5962.4087s.4666.1395.7101.135zm6.25 0c.5027.0086.989-.1785 1.3562-.5219.3508-.367.5418-.858.5313-1.3656.0056-.2481-.0385-.4948-.1298-.7256-.0912-.2308-.2277-.4409-.4015-.6181-.1808-.1715-.3937-.3055-.6264-.3946-.2327-.089-.4807-.1312-.7298-.1242-.5313 0-.9688.175-1.3063.5219-.1859.1685-.3322.3762-.4284.608-.0961.2317-.1398.482-.1278.7326 0 .5469.1687.9938.5562 1.3438.1684.1759.3714.3151.5962.4087s.4666.1395.7101.135z" fill="#ffdcb7"/><path d="m20.9094 54.75v-4.1187l3.3906-7.1313h-2.3437l-1.125 2.7375c-.3156.8344-.65 1.625-1 2.4938h-.0625c-.35-.8688-.6531-1.6563-.9719-2.4938l-1.125-2.7375h-2.3875l3.375 7.1313v4.1187zm3.9625 0 .7906-2.8875h3.6501l.7906 2.8875h2.3562l-3.6187-11.25h-2.6438l-3.6031 11.25h2.2812zm3.9532-4.6375h-2.6751l.3344-1.2312c.3344-1.1688.6688-2.4469.9563-3.6782h.0625c.3344 1.2188.6375 2.5094.9875 3.6782zm5.7125 4.6375v-4.6969c0-1.0625-.1844-2.6312-.2907-3.6937h.0625l.8969 2.6437 1.75 4.7282h1.2906l1.7313-4.7282.9125-2.6437h.0625c-.1063 1.0625-.275 2.6281-.275 3.6937v4.6969h2.0531v-11.25h-2.4938l-1.8687 5.2594c-.2437.7-.4406 1.4437-.6875 2.175h-.075c-.2281-.7313-.4375-1.475-.6813-2.175l-1.9156-5.2594h-2.4937v11.25zm16.5031 0v-1.8844h-4.5625v-9.3656h-2.25v11.25z" fill="#fff"/></g></svg>