<svg fill="none" height="72" viewBox="0 0 72 72" width="72" xmlns="http://www.w3.org/2000/svg"><path d="m48.1094 23.5c-.2149 0-.3906.1758-.3906.3906v2.3438c0 .2148.1757.3906.3906.3906h6.25c.2148 0 .3906-.1758.3906-.3906v-2.3438c0-.2148-.1758-.3906-.3906-.3906zm0 5.4688c-.2149 0-.3906.1757-.3906.3906v2.3437c0 .2149.1757.3907.3906.3907h6.25c.2148 0 .3906-.1758.3906-.3907v-2.3437c0-.2149-.1758-.3906-.3906-.3906zm0 5.4687c-.2149 0-.3906.1758-.3906.3906v2.3438c0 .2148.1757.3906.3906.3906h6.25c.2148 0 .3906-.1758.3906-.3906v-2.3438c0-.2148-.1758-.3906-.3906-.3906z" fill="#dae1e8"/><path d="m59.5 43v18m0-18-7.5 6m7.5-6 7.5 6" stroke="#dae1e8" stroke-width="3"/><path clip-rule="evenodd" d="m59.4375 15.6875h-20.3125v-.9815c0-1.9677-1.8018-3.4472-3.7305-3.0664l-21.875 4.3311c-1.4648.2881-2.5195 1.5723-2.5195 3.0664v33.9209c0 1.4941 1.0596 2.7832 2.5293 3.0664l21.875 4.2529c1.9287.376 3.7207-1.1035 3.7207-3.0664v-.8984h8.6049v-3.125h-8.6049v-4.2969c0-.2148.1758-.3906.3906-.3906h4.6875c.2149 0 .3907-.1758.3907-.3906v-2.3438c0-.2148-.1758-.3906-.3907-.3906h-4.6875c-.2148 0-.3906-.1758-.3906-.3906v-1.5625c0-.2149.1758-.3907.3906-.3907h4.6875c.2149 0 .3907-.1758.3907-.3906v-2.3437c0-.2149-.1758-.3907-.3907-.3907h-4.6875c-.2148 0-.3906-.1758-.3906-.3906v-1.5625c0-.2148.1758-.3906.3906-.3906h4.6875c.2149 0 .3907-.1758.3907-.3906v-2.3438c0-.2148-.1758-.3906-.3907-.3906h-4.6875c-.2148 0-.3906-.1758-.3906-.3906v-1.5625c0-.2149.1758-.3907.3906-.3907h4.6875c.2149 0 .3907-.1758.3907-.3906v-2.3437c0-.2149-.1758-.3907-.3907-.3907h-4.6875c-.2148 0-.3906-.1758-.3906-.3906v-1.5625c0-.2148.1758-.3906.3906-.3906h4.6875c.2149 0 .3907-.1758.3907-.3906v-2.3438c0-.2148-.1758-.3906-.3907-.3906h-4.6875c-.2148 0-.3906-.1758-.3906-.3906v-4.2969h18.3594c.2148 0 .3906.1758.3906.3906v18.3633h3.125v-20.3164c0-.8643-.6982-1.5625-1.5625-1.5625zm-42.6108 22.0914 2.1243-7.3941-1.8154.2572-.7156 2.8474c-.1222.5264-.2511 1.0179-.387 1.5355l-.0198.0757-.0301.1181-.4219-1.6689-.7156-2.5794-1.8456.2487 2.1168 6.5106v3.9311l1.7099.2332zm5.4162 1.78.4671 3.1732 1.8004.2676-2.275-13.1074-1.8456.2718-2.2599 11.9107 1.7552.2479.4746-2.9029zm-.9416-6.1713c.0122.1069.0293.2048.0473.3082l.013.0745c.0323.2134.0641.4271.0958.6401.0864.5811.1721 1.1569.2658 1.7061l.1356.8901-1.0999-.0173.1281-.8687c.1431-.8876.2863-1.821.4143-2.733zm8.4143 10.4152 1.5895.254v-15.58l-1.8004.2915-1.1525 6.9246c-.0754.4684-.1507.9508-.2185 1.4473-.0075.062-.0151.1239-.0301.1857-.0829-.5595-.1657-1.1016-.2561-1.6262l-1.1827-6.4671-1.8079.2786v13.5406l1.5744.2392v-5.9261c0-.4227-.0134-.8986-.0275-1.4023l-.0027-.0939 1.1526 6.353 1.032.1329 1.0772-6.118.0829-.5145c-.0226.6108-.0302 1.2052-.0302 1.7193zm4.5725-2.7722v-13.0306l-1.7099.2846v15.9785l4.4218.7369v-3.7084z" fill="#dae1e8" fill-rule="evenodd"/></svg>