<svg height="260" viewBox="0 0 240 260" width="240" xmlns="http://www.w3.org/2000/svg" xmlns:xlink="http://www.w3.org/1999/xlink"><defs><linearGradient id="a" x1="-16.487965%" x2="108.31914%" y1="-175.021298%" y2="140.895834%"><stop offset="0" stop-color="#fff5ea"/><stop offset=".597447602" stop-color="#eef6ff"/><stop offset="1" stop-color="#f7faff"/></linearGradient><path id="b" d="m0 0h240v260h-240z"/><filter id="c" height="154.3%" width="135.3%" x="-17.9%" y="-27.1%"><feGaussianBlur in="SourceGraphic" stdDeviation="10"/></filter><linearGradient id="d" x1="100%" x2="0%" y1="21.720909%" y2="21.720909%"><stop offset="0" stop-color="#d7daef"/><stop offset=".0837695577" stop-color="#e5e9fe"/><stop offset=".503491217" stop-color="#c3c7ef"/><stop offset=".750724066" stop-color="#a9addf"/><stop offset=".970005755" stop-color="#b1b8e6"/><stop offset="1" stop-color="#e2e6fb"/></linearGradient><path id="e" d="m135.507441 3.45024586 18.613448 11.76213914c1.400638.8850861 1.818576 2.7380322.93349 4.1386708-.227274.3596579-.528447.6668619-.883529.901221l-120.7803489 79.7167985c-3.281224 2.1656557-7.5269626 2.2077447-10.8504749.1075637l-19.9223074-12.5892285c-.93375906-.5900575-1.21238425-1.8253548-.62232679-2.7591139.15151579-.2397719.35229778-.4445746.5890189-.600814l122.07255509-80.569673c3.281224-2.16565581 7.526962-2.20774499 10.850475-.10756374z"/><linearGradient id="f"><stop offset="0" stop-color="#a6acda"/><stop offset="1" stop-color="#eff0fc"/></linearGradient><linearGradient id="g" x1="81.925854%" x2="68.268343%" xlink:href="#f" y1="64.855426%" y2="58.97532%"/><filter id="h" height="287.8%" width="217.2%" x="-59.5%" y="-93.9%"><feGaussianBlur in="SourceGraphic" stdDeviation="10"/></filter><path id="i" d="m33.3419677 3.37567589 18.6447145 11.78189691c1.4006386.8850862 1.8185764 2.7380322.9334902 4.1386708-.2379902.3766167-.5568735.6955-.9334902.9334902l-18.6447145 11.7818969c-3.2628765 2.0618644-7.4210589 2.0618644-10.6839354 0l-19.98248709-12.6272571c-.93375906-.5900575-1.21238425-1.8253548-.62232679-2.7591139.15866012-.2510777.37124901-.4636666.62232679-.6223268l19.98248709-12.62725701c3.2628765-2.06186448 7.4210589-2.06186448 10.6839354 0z"/><linearGradient id="j" x1="59.616534%" x2="36.883224%" xlink:href="#f" y1="56.553101%" y2="48.61766%"/><filter id="k" height="97.7%" width="91.4%" x="5.8%" y=".6%"><feGaussianBlur in="SourceGraphic" stdDeviation="0 0"/></filter><filter id="l" height="287.8%" width="217.2%" x="-59.5%" y="-93.9%"><feGaussianBlur in="SourceGraphic" stdDeviation="10"/></filter><path id="m" d="m33.3419677 3.37567589 18.6447145 11.78189691c1.4006386.8850862 1.8185764 2.7380322.9334902 4.1386708-.2379902.3766167-.5568735.6955-.9334902.9334902l-18.6447145 11.7818969c-3.2628765 2.0618644-7.4210589 2.0618644-10.6839354 0l-19.98248709-12.6272571c-.93375906-.5900575-1.21238425-1.8253548-.62232679-2.7591139.15866012-.2510777.37124901-.4636666.62232679-.6223268l19.98248709-12.62725701c3.2628765-2.06186448 7.4210589-2.06186448 10.6839354 0z"/><filter id="n" height="97.7%" width="91.4%" x="5.8%" y=".6%"><feGaussianBlur in="SourceGraphic" stdDeviation="0 0"/></filter><linearGradient id="o" x1="37.550791%" x2="77.675307%" y1="29.451309%" y2="67.597377%"><stop offset="0" stop-color="#a1e1e4"/><stop offset=".393255748" stop-color="#457dff"/><stop offset="1" stop-color="#a060fa"/></linearGradient><linearGradient id="p" x1="34.256297%" x2="72.724629%" y1="11.611896%" y2="96.218237%"><stop offset="0" stop-color="#ffd252"/><stop offset=".417993568" stop-color="#8161f7"/><stop offset="1" stop-color="#ff426b"/></linearGradient><path id="q" d="m13.0555288 2.75 3.0140703 1.90463984c.4668796.29502873.6061922.91267741.3111634 1.37955693-.07933.12553889-.1856245.23183334-.3111634.31116339l-6.29751969 3.97950464c-.65257529.4123729-1.48421179.4123729-2.13678709 0l-4.95974711-3.13414447c-.93375906-.59005746-1.21238425-1.82535482-.62232679-2.75911388.15866012-.25107778.37124901-.46366667.62232679-.62232678l1.67629772-1.05927967c2.65810779-1.67970134 6.04557807-1.67970134 8.70368587 0z"/><filter id="r" height="101.3%" width="90.7%" x="7.1%" y="9%"><feOffset dx="0" dy="1" in="SourceAlpha" result="shadowOffsetOuter1"/><feColorMatrix in="shadowOffsetOuter1" type="matrix" values="0 0 0 0 0.560784314   0 0 0 0 0.6   0 0 0 0 0.823529412  0 0 0 1 0"/></filter><filter id="s" height="97.7%" width="91.4%" x="5.8%" y=".6%"><feGaussianBlur in="SourceGraphic" stdDeviation="0 0"/></filter><linearGradient id="t" x1="61.725326%" x2="12.221699%" y1="7.071554%" y2="56.159122%"><stop offset="0" stop-color="#e1e5fa"/><stop offset="1" stop-color="#aeb4e3"/></linearGradient><linearGradient id="u" x1="74.155905%" x2="46.929041%" y1="1.453716%" y2="85.409798%"><stop offset="0" stop-color="#ffd98d"/><stop offset="1" stop-color="#ff3869"/></linearGradient><path id="v" d="m10.3393034 34.5409213 21.8497582-13.5604236c.8151373-.5058915 1.1562345-1.5193295.8128747-2.4151414l-6.2557564-16.3210143c-.3953303-1.03140084-1.5519245-1.54703785-2.5833253-1.15170749-.1138588.04364144-.2234879.097604-.3275178.16121354l-22.37142113 13.67910725c-.84220188.5149682-1.18270157 1.567398-.80175611 2.4780992l6.7774193 16.2023307c.42625135 1.0190111 1.59786804 1.4995378 2.61687914 1.0732865.098003-.0409946.192584-.0897323.2828454-.1457504z"/><linearGradient id="w" x1="50%" x2="51.342861%" y1="44.059868%" y2="80.867362%"><stop offset="0" stop-color="#fff" stop-opacity="0"/><stop offset="1" stop-color="#7478d2"/></linearGradient><filter id="x" height="276%" width="192.3%" x="-46.2%" y="-88%"><feGaussianBlur in="SourceGraphic" stdDeviation="2"/></filter><filter id="y" height="276%" width="192.3%" x="-46.2%" y="-88%"><feGaussianBlur in="SourceGraphic" stdDeviation="2"/></filter><filter id="z" height="276%" width="192.3%" x="-46.2%" y="-88%"><feGaussianBlur in="SourceGraphic" stdDeviation="2"/></filter><filter id="A" height="276%" width="192.3%" x="-46.2%" y="-88%"><feGaussianBlur in="SourceGraphic" stdDeviation="2"/></filter><path id="B" d="m13.0555288 2.75 3.0140703 1.90463984c.4668796.29502873.6061922.91267741.3111634 1.37955693-.07933.12553889-.1856245.23183334-.3111634.31116339l-6.29751969 3.97950464c-.65257529.4123729-1.48421179.4123729-2.13678709 0l-4.95974711-3.13414447c-.93375906-.59005746-1.21238425-1.82535482-.62232679-2.75911388.15866012-.25107778.37124901-.46366667.62232679-.62232678l1.67629772-1.05927967c2.65810779-1.67970134 6.04557807-1.67970134 8.70368587 0z"/><filter id="C" height="101.3%" width="90.7%" x="7.1%" y="9%"><feOffset dx="0" dy="1" in="SourceAlpha" result="shadowOffsetOuter1"/><feColorMatrix in="shadowOffsetOuter1" type="matrix" values="0 0 0 0 0.560784314   0 0 0 0 0.6   0 0 0 0 0.823529412  0 0 0 1 0"/></filter><filter id="D" height="97.7%" width="91.4%" x="5.8%" y=".6%"><feGaussianBlur in="SourceGraphic" stdDeviation="0 0"/></filter><linearGradient id="E" x1="74.155905%" x2="46.929041%" y1="1.453716%" y2="85.409798%"><stop offset="0" stop-color="#a4f1f2"/><stop offset="1" stop-color="#a060fa"/></linearGradient><path id="F" d="m10.3393034 34.5409213 21.8497582-13.5604236c.8151373-.5058915 1.1562345-1.5193295.8128747-2.4151414l-6.2557564-16.3210143c-.3953303-1.03140084-1.5519245-1.54703785-2.5833253-1.15170749-.1138588.04364144-.2234879.097604-.3275178.16121354l-22.37142113 13.67910725c-.84220188.5149682-1.18270157 1.567398-.80175611 2.4780992l6.7774193 16.2023307c.42625135 1.0190111 1.59786804 1.4995378 2.61687914 1.0732865.098003-.0409946.192584-.0897323.2828454-.1457504z"/><linearGradient id="G" x1="67.473711%" x2="37.453075%" y1="7.802989%" y2="77.672276%"><stop offset="0" stop-color="#f1f4ff"/><stop offset="1" stop-color="#9d9ec5"/></linearGradient><linearGradient id="H" x1="86.395293%" x2="36.806965%" y1="-1.29606%" y2="76.729811%"><stop offset="0" stop-color="#fff"/><stop offset=".0775482707" stop-color="#c7cdfb"/><stop offset=".261614064" stop-color="#e5e7fb"/><stop offset=".754231233" stop-color="#e5e7fb"/><stop offset=".895522495" stop-color="#c6cbf1"/><stop offset="1" stop-color="#a8afe0"/></linearGradient><path id="I" d="m30.0374801.24480143 3.156863 1.88611843-.9718338 1.55301514.0007071 10.2690253c0 1.3656885-.6967659 2.6369964-1.8479565 3.3717516l-25.21979862 15.9733789-1.37209782 1.7716232c-1.77517071-1.0231288-2.7641541-1.6015941-2.96695018-1.7353958-.30419413-.2007027-.36441836-.3375442-.50228909-.5535555-.20513489-.3213987-.31412419-.6947379-.31412419-1.0760218v-11.4367755c0-1.3656885.69676598-2.6369964 1.84795656-3.3717516l26.12477684-16.55072649c.6695089-.42420432 1.3577578-.45776628 2.0647467-.10068588z"/><linearGradient id="J" x1="100%" x2="23.209776%" y1="21.957189%" y2="70.199774%"><stop offset="0" stop-color="#2c43fd"/><stop offset="1" stop-color="#db57c9"/></linearGradient><mask id="K" fill="#fff"><use fill="#fff" fill-rule="evenodd" xlink:href="#b"/></mask><mask id="L" fill="#fff"><use fill="#fff" fill-rule="evenodd" xlink:href="#e"/></mask><mask id="M" fill="#fff"><use fill="#fff" fill-rule="evenodd" xlink:href="#i"/></mask><mask id="N" fill="#fff"><use fill="#fff" fill-rule="evenodd" xlink:href="#m"/></mask><mask id="O" fill="#fff"><use fill="#fff" fill-rule="evenodd" xlink:href="#q"/></mask><mask id="P" fill="#fff"><use fill="#fff" fill-rule="evenodd" xlink:href="#v"/></mask><mask id="Q" fill="#fff"><use fill="#fff" fill-rule="evenodd" xlink:href="#B"/></mask><mask id="R" fill="#fff"><use fill="#fff" fill-rule="evenodd" xlink:href="#F"/></mask><mask id="S" fill="#fff"><use fill="#fff" fill-rule="evenodd" xlink:href="#I"/></mask></defs><g fill="none" fill-rule="evenodd"><use fill="url(#a)" fill-opacity=".45" xlink:href="#b"/><g mask="url(#K)"><g transform="translate(7.231225 42.473115)"><g fill-rule="evenodd" transform="translate(3.758168)"><path d="m135.507441 32.4502459 18.613448 11.7621391c1.400638.8850861 1.818576 2.7380322.93349 4.1386708-.227274.3596579-.528447.6668619-.883529.901221l-120.7803489 79.7167982c-3.281224 2.165656-7.5269626 2.207745-10.8504749.107564l-19.9223074-12.589228c-.93375906-.590058-1.21238425-1.825355-.62232679-2.759114.15151579-.239772.35229778-.444575.5890189-.600814l122.07255509-80.5696734c3.281224-2.1656558 7.526962-2.207745 10.850475-.1075637z" fill="#abafe0" filter="url(#c)" opacity=".85"/><g transform="translate(1.701355 17.696876)"><path d="m153.815309 0-.110472 19.0448527c.014084.5501169-.121373 1.110272-.423675 1.6173182-.231312.3879751-.547247.718709-.924235.9675264l-120.6677812 79.6425017c-3.2812239 2.165656-7.5269626 2.207745-10.8504749.107564l-19.90680614-12.579433c-.54441488-.3440245-.86612968-.9073859-.92282081-1.5024405l-.00904395-.1615338.12079904-19z" fill="url(#d)"/><path d="m37.6867042 95.0121973c1.4717833-.9799402 2.5914222-2.3203 2.5914222-3.6049041 0-.8621504-.5327314-.9902524-1.2550791-.6731087v-.0431075c.5688488-.568423.9119639-1.4003806.9119639-1.9866429 0-1.1897676-1.047404-.8803545-2.4198645.0334547l-2.2121896 1.4729163v6.3885345zm-.2708803-3.6044833-.7765237.5170237v-1.6208428l.7945824-.5290475c.8036117-.5350593 1.2009029-.5754239 1.2009029-.0150262 0 .5086688-.3702032 1.082774-1.2189616 1.6478928zm.1534988 2.6997865-.9300225.619226v-1.8622449l.9300225-.619226c.9209933-.6132141 1.4085779-.6705902 1.4085779-.0498419 0 .6638558-.496614 1.3048846-1.4085779 1.9120868zm5.0203161-2.2390655c.5778781-.3847618 1.0835214-.9973165 1.5259593-1.6540029l.0361174-.0240476.0902935.4571712 1.0835214-.7214283v-2.8192319c0-1.3966837-.6591422-1.6906426-1.9413092-.8369524-.7945824.5290475-1.5169301 1.2945094-2.1128669 2.0447766l.4785554.5176551c.4695259-.5712641.9209932-1.0701539 1.3905191-1.3827728.6230249-.4148213.8397292-.1970038.8668172.2591432-2.0406321 1.5656062-2.9164786 2.6919155-2.9164786 3.726496 0 .819035.5959368 1.0343841 1.4988714.4331938zm.4334085-1.2800443c-.3882618.2585118-.6681715.2810722-.6681715-.0982739 0-.4310753.4153499-1.0352399 1.6523702-2.0054362v.9742299c-.3250564.5181812-.6049661.8769803-.9841987 1.1294802zm5.1015802-2.4052522c1.3182844-.8777378 2.013544-2.0217532 2.013544-2.8666606 0-.8966364-.7404063-.722656-1.4085779-.5191773-.5327314.1650292-1.0022573.3483255-1.0022573-.0051561 0-.2758882.2167043-.6098469.6772009-.916454.3702031-.246488.7223476-.3171436 1.0835214-.3075961l.5959368-1.1640995c-.4153499-.0252051-.9841986.0604136-1.7155756.5473778-1.1557562.7695236-1.8871332 1.8686145-1.8871332 2.7307649 0 .8104214.7133183.7062057 1.3544018.5121412.5327314-.1564076 1.0564334-.3412894 1.0564334.0208137 0 .3017527-.2257336.6589664-.7313769.9956329-.469526.312619-.9029346.4115172-1.3544018.3758737l-.6049662 1.1959759c.5056434.0599226 1.2460497-.1485438 1.9232506-.5994365zm5.227991-3.4808918c.6230248-.4148213 1.2641083-1.0485825 1.7607223-1.7068543l-.4514673-.4753403c-.3611738.4560137-.7223476.8171909-1.1376975 1.0937385-.7494357.4989879-1.2911964.4458699-1.3995485-.2751657l3.1151241-2.0741065c.0361174-.1361271.0632055-.3869435.0632055-.6283456 0-1.3277116-.7223477-1.8209894-2.1128669-.8951563-1.2009029.7995831-2.3566591 2.5433366-2.3566591 4.1038289 0 1.5949783 1.1015801 1.8012701 2.5191874.8574013zm.812641-3.5672192-2.0586907 1.3707138c.0993228-.7644727.5688488-1.4391949 1.1015801-1.7938971.6501129-.432857.9571106-.2234295.9571106.4231833z" fill="#3f54eb" fill-rule="nonzero" opacity=".79505"/></g><path d="m135.406409 12.1950116 17.763946 10.590285 2.277746-1.007759v3.8483696c.033916.5780971-.096295 1.1716608-.414502 1.7053831-.227456.3815088-.538125.7067306-.90883.9514009l-120.7342679 79.6863838c-3.281224 2.165656-7.5269626 2.207745-10.8504749.107564l-19.90680617-12.579433c-.64878064-.409975-.98129262-1.1314423-.92590737-1.8468334l-.00595739.0032565v-3.8367424l13.85500003-6.1325901 109.2655377-71.2755232c3.19802-2.0861492 7.304875-2.16909 10.584516-.2137618z" fill="#fff"/><path d="m134.508755 17.6936533 21.007909.0032227-.069535 6.8142313c0 .602417-.221988 1.2321986-.55645 1.7931858-.241599.4052311-.575366.7477687-.974196.9997955l-120.5745153 79.8471204c-3.2628765 2.061864-7.4210589 2.061864-10.6839354 0l-19.90404329-12.5776871c-.54941716-.3471856-.99282198-1.053517-1.04511538-1.654611l-.00751836-.1646547v-7.0567843l123.88456073-68.0038186c2.807834-1.4004106 6.114974-1.4003234 8.922839 0z" fill="url(#d)"/><use fill="#f4f5fe" xlink:href="#e"/><path d="m-9.67385578 70.5268849h5l20.68446268 14h-5z" fill="url(#g)" mask="url(#L)"/></g><g fill-rule="evenodd" transform="translate(111.768775 127.613605)"><path d="m33.3419677 36.0693292 14.3820396 9.0882436c1.4006386.8850862 1.8185764 2.7380322.9334902 4.1386708-.2379902.3766167-.5568735.6955-.9334902.9334902l-14.3820396 9.0882436c-3.2628765 2.0618645-7.4210589 2.0618645-10.6839354 0l-15.71981219-9.9336038c-.93375905-.5900575-1.21238425-1.8253548-.62232678-2.7591139.15866011-.2510777.371249-.4636666.62232678-.6223268l15.71981219-9.9336037c3.2628765-2.0618645 7.4210589-2.0618645 10.6839354 0z" fill="#abafe0" filter="url(#h)" opacity=".85"/><path d="m30.6391425 1.05020977 20.7931199.00103521.0013659 13.81910182c.0521308.6045538-.0780995 1.2305508-.4125611 1.791538-.2415996.4052311-.5753666.7477687-.9741962.9997955l-18.5270487 11.7075421c-3.2628765 2.0618644-7.421059 2.0618644-10.6839355 0l-19.90404326-12.5776872c-.59936418-.3787479-.92880407-1.0233437-.93184354-1.6833977l.00000883-.0001082v-14.05678432l21.71629527-.0009043c2.8078337-1.4004106 6.1149735-1.40045424 8.9228384-.00013091z" fill="url(#d)" transform="translate(1.822145 16.642408)"/><path d="m33.12095 12.0531201 16.1701955 9.6402882 3.9632623.000245.001366 3.8191018c.0521308.6045538-.0780995 1.2305508-.4125612 1.791538-.2415995.4052311-.5753665.7477687-.9741961.9997955l-18.5270488 11.7075421c-3.2628765 2.0618644-7.4210589 2.0618644-10.6839354 0l-19.90404329-12.5776872c-.59936417-.3787479-.92880407-1.0233437-.93184354-1.6833977l.00000883-.0001082v-4.0567843l4.88599117-.000245 16.17090453-9.6402882c3.1548861-1.8809491 7.0870139-1.8809491 10.2419 0z" fill="#fff"/><path d="m32.461288 17.6936533h20.7931198l.001366 6.8191018c.0521308.6045538-.0780995 1.2305508-.4125612 1.791538-.2415995.4052311-.5753665.7477687-.9741961.9997955l-18.5270488 11.7075421c-3.2628765 2.0618644-7.4210589 2.0618644-10.6839354 0l-19.90404329-12.5776872c-.54941716-.3471856-.87202294-.9177572-.92431635-1.5188512l-.00751836-.1646547v-7.0567843h21.7162952c2.8078338-1.4004106 6.1149736-1.4003234 8.9228385 0z" fill="url(#d)"/><use fill="#f4f5fe" xlink:href="#i"/><path d="m36.3147576 29.2700155-3.3732543-2.2275c-.9654095-.6375-2.104181-1.2830703-3.0653017-1.8500242l.0375-.0236044 2.3683836.8384343 6.1026724 1.9597323 1.125-.7081315-8.4160991-5.5575-1.05.6609228 3.3618965 2.22c.9540518.63 2.1571121 1.3083494 3.0841595 1.8528033l-.0375.0236044-2.3722414-.8506551-6.0988146-1.9475115-1.1325.7128524 8.4160991 5.5575zm6.3840086-3.8133277c1.2825-.80727.8701509-2.0565785-.5041379-2.9640785-1.2152802-.8025-2.3051724-.9514683-3.4004095-.8040894l-1.1931681.1504251c-.7564439.1099152-1.3622413.2129008-1.9642025-.1845992-.5565302-.3675-.5784052-.7785559-.0909052-1.0854129.4575-.2879735 1.0748707-.3542965 1.8703233-.2836777l-.4937716-1.0515658c-1.1428233-.1742474-2.1739871-.023252-2.8189871.3827435-1.125.7081315-.8637284 1.9060444.5105604 2.8135444 1.2266379.81 2.4706034.9059343 3.3851939.7843685l1.2195259-.1523668c.8130172-.1015779 1.3435991-.1865173 1.9682759.2259827.5906034.39.6579094.8310559.0804094 1.1945634-.4875.306857-1.387306.3898184-2.3413362.2725249l.5209914 1.1662745c1.3236853.1775969 2.5091379.0027301 3.2516379-.4646367zm6.1334914-4.0658157-1.3515733-.8925-1.0425.6562019-6.8373706-4.515-.8175.5145755c-.023125.4393813-.1898276.822646-.585819 1.2769909l1.033556.6825 1.005-.6325975 5.0996336 3.3675-1.1925.7506194 1.3515733.8925z" fill="#ff3869" fill-rule="nonzero" mask="url(#M)"/><path d="m20.553556 23.393457 21.113548-13.103516c.4692577-.29123124.6135766-.90772936.3223453-1.37698706-.1393197-.22448426-.3618151-.38471228-.6188861-.44568504l-27.0319518-6.41150919c-.5136067-.1218186-1.0545459-.03565399-1.5048868.239709l-20.98501483 12.83138279c-.94236505.5762134-1.23918961 1.8072644-.66297621 2.7496295.28150314.4603828.73709865.7874763 1.26332179.9069984l23.61163205 5.3629554c1.5383755.3494142 3.1524708.0789015 4.4928686-.7529778z" fill="url(#j)" filter="url(#k)" mask="url(#M)" opacity=".601091"/></g><g fill-rule="evenodd" transform="translate(167.768775 77.613605)"><path d="m33.3419677 36.0693292 14.3820396 9.0882436c1.4006386.8850862 1.8185764 2.7380322.9334902 4.1386708-.2379902.3766167-.5568735.6955-.9334902.9334902l-14.3820396 9.0882436c-3.2628765 2.0618645-7.4210589 2.0618645-10.6839354 0l-15.71981219-9.9336038c-.93375905-.5900575-1.21238425-1.8253548-.62232678-2.7591139.15866011-.2510777.371249-.4636666.62232678-.6223268l15.71981219-9.9336037c3.2628765-2.0618645 7.4210589-2.0618645 10.6839354 0z" fill="#abafe0" filter="url(#l)" opacity=".85"/><path d="m30.6391425 1.05020977 20.7931199.00103521.0013659 13.81910182c.0521308.6045538-.0780995 1.2305508-.4125611 1.791538-.2415996.4052311-.5753666.7477687-.9741962.9997955l-18.5270487 11.7075421c-3.2628765 2.0618644-7.421059 2.0618644-10.6839355 0l-19.90404326-12.5776872c-.59936418-.3787479-.92880407-1.0233437-.93184354-1.6833977l.00000883-.0001082v-14.05678432l21.71629527-.0009043c2.8078337-1.4004106 6.1149735-1.40045424 8.9228384-.00013091z" fill="url(#d)" transform="translate(1.822145 16.642408)"/><path d="m33.12095 12.0531201 16.1701955 9.6402882 3.9632623.000245.001366 3.8191018c.0521308.6045538-.0780995 1.2305508-.4125612 1.791538-.2415995.4052311-.5753665.7477687-.9741961.9997955l-18.5270488 11.7075421c-3.2628765 2.0618644-7.4210589 2.0618644-10.6839354 0l-19.90404329-12.5776872c-.59936417-.3787479-.92880407-1.0233437-.93184354-1.6833977l.00000883-.0001082v-4.0567843l4.88599117-.000245 16.17090453-9.6402882c3.1548861-1.8809491 7.0870139-1.8809491 10.2419 0z" fill="#fff"/><path d="m32.461288 17.6936533h20.7931198l.001366 6.8191018c.0521308.6045538-.0780995 1.2305508-.4125612 1.791538-.2415995.4052311-.5753665.7477687-.9741961.9997955l-18.5270488 11.7075421c-3.2628765 2.0618644-7.4210589 2.0618644-10.6839354 0l-19.90404329-12.5776872c-.54941716-.3471856-.87202294-.9177572-.92431635-1.5188512l-.00751836-.1646547v-7.0567843h21.7162952c2.8078338-1.4004106 6.1149736-1.4003234 8.9228385 0z" fill="url(#d)"/><use fill="#f4f5fe" xlink:href="#m"/><path d="m36.3250331 29.2214791-3.391946-2.2275c-.970759-.6375-2.1153835-1.2830402-3.081539-1.8499748l.0375-.0236181 2.3783903.8382281 6.1275947 1.9591443 1.125-.7085438-8.462734-5.5575-1.05.6613075 3.3805253 2.22c.9593383.63 2.1685663 1.3083165 3.1004597 1.8527511l-.0375.0236182-2.382311-.8504518-6.123674-1.9469206-1.1325.7132674 8.462734 5.5575zm6.3848897-3.8156088c1.2825-.8077399.8636686-2.057326-.5182354-2.964826-1.2220142-.8025-2.3154937-.9513061-3.4130594-.8036799l-1.1957484.1506917c-.7580174.1100883-1.3650105.2132168-1.9703073-.1842832-.559614-.3675-.5833141-.7786686-.0958141-1.0857042.4575-.2881411 1.0762553-.3545988 1.8741623-.2841091l-.4996245-1.0517719c-1.1466623-.1740825-2.1799659-.0228508-2.8249659.383381-1.125.7085437-.8578755 1.906748.5240284 2.814248 1.233435.81 2.4811766.9057281 3.3977181.7839562l1.2221691-.1526388c.8147794-.1017593 1.3464312-.1868224 1.9745694.2256776.593876.39.6632589.8311686.0857589 1.1948877-.4875.3070357-1.3893829.3901894-2.3464969.2730415l.5274108 1.1665082c1.3280278.177399 2.5159349.0022601 3.2584349-.4653788zm6.2226103-4.1248049-1.416166-.93-1.215.7652273c-.2625.1653269-.5843172.4267845-.8161345.6315586-.5860557-1.6585185-1.2007459-3.181459-2.6397532-4.126459-1.5532144-1.02-3.2671561-1.2482029-4.3171561-.5868954-.7575.4770862-.7956723 1.0888454-.4719616 1.9575519l1.5136555.22211c-.1832485-.4869977-.2643934-.9648372.1406066-1.219913.5325-.3353774 1.3350105-.1943224 2.1687211.3531776 1.2220142.8025 1.7085216 2.3474004 2.3624292 4.63906l.970759.6375z" fill="#a060fa" fill-rule="nonzero" mask="url(#N)"/><path d="m20.553556 23.393457 21.113548-13.103516c.4692577-.29123124.6135766-.90772936.3223453-1.37698706-.1393197-.22448426-.3618151-.38471228-.6188861-.44568504l-27.0319518-6.41150919c-.5136067-.1218186-1.0545459-.03565399-1.5048868.239709l-20.98501483 12.83138279c-.94236505.5762134-1.23918961 1.8072644-.66297621 2.7496295.28150314.4603828.73709865.7874763 1.26332179.9069984l23.61163205 5.3629554c1.5383755.3494142 3.1524708.0789015 4.4928686-.7529778z" fill="url(#j)" filter="url(#n)" mask="url(#N)" opacity=".601091"/></g><path d="m112.548764 47.8420132-3.082831 1.9848125c-7.694688 4.9826437-17.5840269 5.0374752-25.3334936.1404618-4.4910046-2.8379385-5.8310795-8.7792209-2.9931409-13.2702255.7438678-1.1771622 1.7344459-2.1787861 2.9032872-2.9356614l34.3909443-22.2696235c7.694689-4.98264376 17.584028-5.0374753 25.333494-.1404619 4.491005 2.8379386 5.83108 8.7792209 2.993141 13.2702255-.743868 1.1771622-1.734446 2.1787861-2.903287 2.9356614l-3.981957 2.578489c-4.635793 3.0018767-5.960344 9.1934317-2.958468 13.8292252.651407 1.0059669 1.47834 1.8866473 2.441349 2.6000289l55.41249 41.0486597-2.918984 3.3863951-45.771173-34.3161942-4.371914-3.277772-6.335483-4.7499254c-6.689864-5.0156167-15.793767-5.3403385-22.823974-.8140952z" stroke="url(#o)" stroke-width="2"/><path d="m77.4659335 70.8268257c-7.6946888 4.9826437-17.5840274 5.0374752-25.3334941.1404618-4.4910046-2.8379385-5.8310795-8.7792209-2.9931409-13.2702255.7438678-1.1771622 1.7344459-2.1787861 2.9032872-2.9356614l34.3909445-22.2696235c7.6946888-4.9826438 17.5840278-5.0374753 25.3334938-.1404619 4.491005 2.8379386 5.83108 8.7792209 2.993141 13.2702255-.743868 1.1771622-1.734446 2.1787861-2.903287 2.9356614l-.299818.1941451c-8.873439 5.7459354-11.7427894 17.4051128-6.549497 26.6129032l33.417272 59.2493546-2.918984 3.386395-34.626265-61.3796071c-4.4987094-7.9745531-14.6102862-10.7922814-22.5848393-6.2935724-.2810788.1585659-.5574677.3253053-.8288132.5000052z" stroke="url(#p)" stroke-width="2"/><g fill-rule="evenodd"><g transform="translate(119.768775 113.526885)"><g transform="translate(12.629618 24.08672)"><use fill="#000" filter="url(#r)" xlink:href="#q"/><use fill="#e3e7fd" fill-rule="evenodd" xlink:href="#q"/><path d="m-.03907227 13.393457 21.11354797-13.10351595c.4692577-.29123129.6135766-.90772941.3223453-1.37698711-.1393196-.22448426-.3618151-.38471228-.6188861-.44568504l-27.03195173-6.41150919c-.51360678-.1218186-1.05454596-.03565399-1.50488685.239709l-20.98501482 12.83138277c-.942365.5762134-1.2391896 1.80726447-.6629762 2.74962952.2815031.46038278.7370986.78747632 1.2633218.90699839l23.61163208 5.36295541c1.53837548.3494142 3.15247077.0789015 4.49286855-.7529778z" fill="url(#j)" filter="url(#s)" mask="url(#O)" opacity=".601091"/></g><path d="m26.0502122.95368148-.3974577.83236174c.0990605.13737811.182164.2896895.2456409.45529813l6.2561542 16.32205205c.3436963.8966897.0015707 1.9110884-.8149968 2.4164566l-21.1575528 13.0938315-.32681148.6820412-1.46113549-.1867836.00704169-.0135035c-.63553242-.1225266-1.19974933-.55074-1.46823869-1.1925998l-6.77768153-16.2029576c-.38133039-.9116215-.03972833-1.9650917.80400209-2.4794705l22.03062171-13.43093157c.103363-.06301506.2122338-.11651542.3252718-.15984227.239023-.09161624.4847698-.13430787.7262071-.13299366l.0018092-.00295872z" fill="url(#t)"/><g transform="translate(1.153366)"><use fill="url(#u)" xlink:href="#v"/><path d="m9.96084996 6.11302732s7.54423234 3.61309091 22.63269694 10.83927278l-6.2893131-20.4895796c-10.8955892 6.43353788-16.34338384 9.65030682-16.34338384 9.65030682z" fill="#fff" mask="url(#P)" opacity=".3"/></g><path d="m25.2139971 1.70215307c.5122031-.20214574.9887522-.22620265 1.3815936-.09252763.3906649.13293444.687607.42371087.8370758.81366879l6.2557563 16.32101427c.12876.3359295.1291842.6939139.0209993 1.0153432-.1081848.3214293-.3249788.6063036-.6306553.7960129l-21.82129 13.5427557c-.59916.265922-1.0214244.2815904-1.3886456.1309783-.35517148-.14567-.65477173-.4268333-.81461599-.8089625l-6.77741931-16.2023307c-.14285454-.3415129-.15043812-.7096-.04335164-1.0405871s.32884302-.6248742.64466873-.8179873z" stroke="#f9fafe"/></g><g transform="translate(114.758168 .132123)"><ellipse cx="14" cy="21.319547" fill="#768bdf" rx="14" ry="7.54833"/><path d="m14 8.96150986c6.8790134 0 12.4772634 2.95657284 12.6619609 6.64145754l.0047058.1879838.0012416 8.7463191c-2.2403461 2.5595096-7.0705148 4.3306062-12.6679083 4.3306062-5.59739346 0-10.42756225-1.7710966-12.66790827-4.3306062l.0012416-8.7463191.00470576-.1879838c.1846975-3.6848847 5.78294753-6.64145754 12.66196091-6.64145754z" fill="url(#d)"/><path d="m14 8.96150986c6.8790134 0 12.4772634 2.95657284 12.6619609 6.64145754l.0047058.1879838.0012416 8.7463191c-2.2403461 2.5595096-7.0705148 4.3306062-12.6679083 4.3306062-5.59739346 0-10.42756225-1.7710966-12.66790827-4.3306062l.0012416-8.7463191.00470576-.1879838c.1846975-3.6848847 5.78294753-6.64145754 12.66196091-6.64145754z" fill="url(#w)"/><ellipse cx="14" cy="15.790951" fill="#f9fafe" rx="12.666667" ry="6.829441"/><ellipse cx="14" cy="15.46574" fill="#f8df96" rx="9.666667" ry="5.203384"/><path d="m7.66666667 15.4093547 6.50000003-3.4093547 6.5 3.4093547-6.5 3.4093546z" fill="#b7a163" filter="url(#x)" opacity=".85" transform="matrix(-1 0 0 1 28.333334 0)"/><g transform="translate(7.666667)"><path d="m6.5 6.81870933 6.5-3.40935467v6.18129068l-6.5 3.40935466z" fill="#ffeaad"/><path d="m0 6.81870933 6.5-3.40935467v6.18129068l-6.5 3.40935466z" fill="#d2bc79" transform="matrix(-1 0 0 1 6.5 0)"/><path d="m0 3.40935466 6.5-3.40935466 6.5 3.40935466-6.5 3.40935467z" fill="#ffd96d" transform="matrix(-1 0 0 1 13 0)"/></g></g><g transform="translate(83.758168 20.132123)"><ellipse cx="14" cy="21.319547" fill="#768bdf" rx="14" ry="7.54833"/><path d="m14 8.96150986c6.8790134 0 12.4772634 2.95657284 12.6619609 6.64145754l.0047058.1879838.0012416 8.7463191c-2.2403461 2.5595096-7.0705148 4.3306062-12.6679083 4.3306062-5.59739346 0-10.42756225-1.7710966-12.66790827-4.3306062l.0012416-8.7463191.00470576-.1879838c.1846975-3.6848847 5.78294753-6.64145754 12.66196091-6.64145754z" fill="url(#d)"/><path d="m14 8.96150986c6.8790134 0 12.4772634 2.95657284 12.6619609 6.64145754l.0047058.1879838.0012416 8.7463191c-2.2403461 2.5595096-7.0705148 4.3306062-12.6679083 4.3306062-5.59739346 0-10.42756225-1.7710966-12.66790827-4.3306062l.0012416-8.7463191.00470576-.1879838c.1846975-3.6848847 5.78294753-6.64145754 12.66196091-6.64145754z" fill="url(#w)"/><ellipse cx="14" cy="15.790951" fill="#f9fafe" rx="12.666667" ry="6.829441"/><ellipse cx="14" cy="15.46574" fill="#26dda2" rx="9.666667" ry="5.203384"/><path d="m7.66666667 15.4093547 6.50000003-3.4093547 6.5 3.4093547-6.5 3.4093546z" fill="#2da77c" filter="url(#y)" opacity=".85" transform="matrix(-1 0 0 1 28.333334 0)"/><g transform="translate(7.666667)"><path d="m6.5 6.81870933 6.5-3.40935467v6.18129068l-6.5 3.40935466z" fill="#79f3cb"/><path d="m0 6.81870933 6.5-3.40935467v6.18129068l-6.5 3.40935466z" fill="#26b888" transform="matrix(-1 0 0 1 6.5 0)"/><path d="m0 3.40935466 6.5-3.40935466 6.5 3.40935466-6.5 3.40935467z" fill="#3ae5ad" transform="matrix(-1 0 0 1 13 0)"/></g></g><g transform="translate(52.758168 41.132123)"><ellipse cx="14" cy="21.319547" fill="#768bdf" rx="14" ry="7.54833"/><path d="m14 8.96150986c6.8790134 0 12.4772634 2.95657284 12.6619609 6.64145754l.0047058.1879838.0012416 8.7463191c-2.2403461 2.5595096-7.0705148 4.3306062-12.6679083 4.3306062-5.59739346 0-10.42756225-1.7710966-12.66790827-4.3306062l.0012416-8.7463191.00470576-.1879838c.1846975-3.6848847 5.78294753-6.64145754 12.66196091-6.64145754z" fill="url(#d)"/><path d="m14 8.96150986c6.8790134 0 12.4772634 2.95657284 12.6619609 6.64145754l.0047058.1879838.0012416 8.7463191c-2.2403461 2.5595096-7.0705148 4.3306062-12.6679083 4.3306062-5.59739346 0-10.42756225-1.7710966-12.66790827-4.3306062l.0012416-8.7463191.00470576-.1879838c.1846975-3.6848847 5.78294753-6.64145754 12.66196091-6.64145754z" fill="url(#w)"/><ellipse cx="14" cy="15.790951" fill="#f9fafe" rx="12.666667" ry="6.829441"/><ellipse cx="14" cy="15.46574" fill="#ff6172" rx="9.666667" ry="5.203384"/><path d="m7.66666667 15.4093547 6.50000003-3.4093547 6.5 3.4093547-6.5 3.4093546z" fill="#ca3541" filter="url(#z)" opacity=".85" transform="matrix(-1 0 0 1 28.333334 0)"/><g transform="translate(7.666667)"><path d="m6.5 6.81870933 6.5-3.40935467v6.18129068l-6.5 3.40935466z" fill="#fea2ac"/><path d="m0 6.81870933 6.5-3.40935467v6.18129068l-6.5 3.40935466z" fill="#d93c49" transform="matrix(-1 0 0 1 6.5 0)"/><path d="m0 3.40935466 6.5-3.40935466 6.5 3.40935466-6.5 3.40935467z" fill="#fe6e7d" transform="matrix(-1 0 0 1 13 0)"/></g></g><g transform="translate(21.758168 62.132123)"><ellipse cx="14" cy="21.319547" fill="#768bdf" rx="14" ry="7.54833"/><path d="m14 8.96150986c6.8790134 0 12.4772634 2.95657284 12.6619609 6.64145754l.0047058.1879838.0012416 8.7463191c-2.2403461 2.5595096-7.0705148 4.3306062-12.6679083 4.3306062-5.59739346 0-10.42756225-1.7710966-12.66790827-4.3306062l.0012416-8.7463191.00470576-.1879838c.1846975-3.6848847 5.78294753-6.64145754 12.66196091-6.64145754z" fill="url(#d)"/><path d="m14 8.96150986c6.8790134 0 12.4772634 2.95657284 12.6619609 6.64145754l.0047058.1879838.0012416 8.7463191c-2.2403461 2.5595096-7.0705148 4.3306062-12.6679083 4.3306062-5.59739346 0-10.42756225-1.7710966-12.66790827-4.3306062l.0012416-8.7463191.00470576-.1879838c.1846975-3.6848847 5.78294753-6.64145754 12.66196091-6.64145754z" fill="url(#w)"/><ellipse cx="14" cy="15.790951" fill="#f9fafe" rx="12.666667" ry="6.829441"/><ellipse cx="14" cy="15.46574" fill="#578bfe" rx="9.666667" ry="5.203384"/><path d="m7.66666667 15.4093547 6.50000003-3.4093547 6.5 3.4093547-6.5 3.4093546z" fill="#2e5cc3" filter="url(#A)" opacity=".85" transform="matrix(-1 0 0 1 28.333334 0)"/><g transform="translate(7.666667)"><path d="m6.5 6.81870933 6.5-3.40935467v6.18129068l-6.5 3.40935466z" fill="#9dbcff"/><path d="m0 6.81870933 6.5-3.01044059v6.18129067l-6.5 3.01044059z" fill="#3468da" transform="matrix(-1 0 0 1 6.5 0)"/><path d="m0 3.40935466 6.5-3.40935466 6.5 3.80826874-6.5 3.01044059z" fill="#6d9bfe" transform="matrix(-1 0 0 1 13 0)"/></g></g><g transform="translate(175.731786 63.526885)"><g transform="translate(12.629618 24.08672)"><use fill="#000" filter="url(#C)" xlink:href="#B"/><use fill="#e3e7fd" fill-rule="evenodd" xlink:href="#B"/><path d="m-.03907227 13.393457 21.11354797-13.10351595c.4692577-.29123129.6135766-.90772941.3223453-1.37698711-.1393196-.22448426-.3618151-.38471228-.6188861-.44568504l-27.03195173-6.41150919c-.51360678-.1218186-1.05454596-.03565399-1.50488685.239709l-20.98501482 12.83138277c-.942365.5762134-1.2391896 1.80726447-.6629762 2.74962952.2815031.46038278.7370986.78747632 1.2633218.90699839l23.61163208 5.36295541c1.53837548.3494142 3.15247077.0789015 4.49286855-.7529778z" fill="url(#j)" filter="url(#D)" mask="url(#Q)" opacity=".601091"/></g><path d="m26.0502122.95368148-.3974577.83236174c.0990605.13737811.182164.2896895.2456409.45529813l6.2561542 16.32205205c.3436963.8966897.0015707 1.9110884-.8149968 2.4164566l-21.1575528 13.0938315-.32681148.6820412-1.46113549-.1867836.00704169-.0135035c-.63553242-.1225266-1.19974933-.55074-1.46823869-1.1925998l-6.77768153-16.2029576c-.38133039-.9116215-.03972833-1.9650917.80400209-2.4794705l22.03062171-13.43093157c.103363-.06301506.2122338-.11651542.3252718-.15984227.239023-.09161624.4847698-.13430787.7262071-.13299366l.0018092-.00295872z" fill="url(#t)"/><g transform="translate(1.153366)"><use fill="url(#E)" xlink:href="#F"/><path d="m9.96084996 6.11302732s7.54423234 3.61309091 22.63269694 10.83927278l-6.2893131-20.4895796c-10.8955892 6.43353788-16.34338384 9.65030682-16.34338384 9.65030682z" fill="#fff" mask="url(#R)" opacity=".3"/></g><path d="m25.2139971 1.70215307c.5122031-.20214574.9887522-.22620265 1.3815936-.09252763.3906649.13293444.687607.42371087.8370758.81366879l6.2557563 16.32101427c.12876.3359295.1291842.6939139.0209993 1.0153432-.1081848.3214293-.3249788.6063036-.6306553.7960129l-21.82129 13.5427557c-.59916.265922-1.0214244.2815904-1.3886456.1309783-.35517148-.14567-.65477173-.4268333-.81461599-.8089625l-6.77741931-16.2023307c-.14285454-.3415129-.15043812-.7096-.04335164-1.0405871s.32884302-.6248742.64466873-.8179873z" stroke="#f9fafe"/></g><g transform="translate(108.174461 82)"><path d="m7.042 18.254-.12255406-.1534345-5.10251548 3.8994345-1.33151137-.3645137-.00237952-.0139268c-.14186336-.0610563-.26759366-.1637609-.35705408-.3036838-.08226847-.1286743-.12598549-.2782087-.12598549-.4309344v-9.9312585c0-1.09166452.5565153-2.10801329 1.4762625-2.69605802l12.7061072-8.12370986c.1255885-.08029561.2651153-.12111361.40402-.12565718l.0103722-.01025774h1.5868412l.2583474 1.62211963-1.0289505 2.81088037.0003041 6.3081879c0 1.0916645-.5565153 2.1080133-1.4762625 2.696058l-2.3700416 1.5137541-2.21461528 6.0581098-1.13304069-.3042102z" fill="url(#G)"/><path d="m16.8737414.37966722c.0824429.12876724.1262586.27846307.1262586.43136119v9.93147649c0 1.0909447-.5557869 2.1067267-1.4745552 2.6949657l-4.1684041 2.6685064-2.00465598 4.9031328-1.33034403-2.7681328-5.6576388 3.6228169c-.37209712.2382342-.86686842.1297169-1.10510263-.2423802-.0824429-.1287673-.12625857-.2784631-.12625857-.4313612v-9.9314765c0-1.0909448.55578687-2.10672669 1.47455523-2.69496573l13.16104288-8.4263233c.3720971-.23823421.8668684-.12971687 1.1051026.24238025z" fill="#e8ebff"/><path d="m10.2647668 6.9241458 1.2906714-.26506508-2.78019127 9.44180588-1.2906714.2650651zm-4.73027869 4.3478968 1.02123416.3784759-1.49027688 2.7365211 1.49027688.814191-1.02123416 1.6968291-2.36109625-1.2889905zm7.97137499-5.14528769 2.3610962 1.28899049-2.3610962 4.3370266-1.0212342-.3784759 1.4899395-2.7370681-1.4899395-.81364402z" fill="#3864ff" fill-rule="nonzero"/></g><g transform="translate(154.174461 47)"><path d="m7.042 18.254-.12255406-.1534345-5.10251548 3.8994345-1.33151137-.3645137-.00237952-.0139268c-.14186336-.0610563-.26759366-.1637609-.35705408-.3036838-.08226847-.1286743-.12598549-.2782087-.12598549-.4309344v-9.9312585c0-1.09166452.5565153-2.10801329 1.4762625-2.69605802l12.7061072-8.12370986c.1255885-.08029561.2651153-.12111361.40402-.12565718l.0103722-.01025774h1.5868412l.2583474 1.62211963-1.0289505 2.81088037.0003041 6.3081879c0 1.0916645-.5565153 2.1080133-1.4762625 2.696058l-2.3700416 1.5137541-2.21461528 6.0581098-1.13304069-.3042102z" fill="url(#G)"/><path d="m16.8737414.37966722c.0824429.12876724.1262586.27846307.1262586.43136119v9.93147649c0 1.0909447-.5557869 2.1067267-1.4745552 2.6949657l-4.1684041 2.6685064-2.00465598 4.9031328-1.33034403-2.7681328-5.6576388 3.6228169c-.37209712.2382342-.86686842.1297169-1.10510263-.2423802-.0824429-.1287673-.12625857-.2784631-.12625857-.4313612v-9.9314765c0-1.0909448.55578687-2.10672669 1.47455523-2.69496573l13.16104288-8.4263233c.3720971-.23823421.8668684-.12971687 1.1051026.24238025z" fill="#e8ebff"/><path d="m10.2647668 6.9241458 1.2906714-.26506508-2.78019127 9.44180588-1.2906714.2650651zm-4.73027869 4.3478968 1.02123416.3784759-1.49027688 2.7365211 1.49027688.814191-1.02123416 1.6968291-2.36109625-1.2889905zm7.97137499-5.14528769 2.3610962 1.28899049-2.3610962 4.3370266-1.0212342-.3784759 1.4899395-2.7370681-1.4899395-.81364402z" fill="#3864ff" fill-rule="nonzero"/></g><g transform="translate(0 37.720216)"><g transform="translate(14.768775 12.806669)"><path d="m2.5 32c.79231013 0 1.50676834.1996455 2.02501483.5105934.63528733.3811724.97498517.9238688.97498517 1.4894066s-.33969784 1.1082342-.97498517 1.4894066c-.51824649.3109479-1.2327047.5105934-2.02501483.5105934s-1.50676834-.1996455-2.02501483-.5105934c-.63528733-.3811724-.97498517-.9238688-.97498517-1.4894066s.33969784-1.1082342.97498517-1.4894066c.51824649-.3109479 1.2327047-.5105934 2.02501483-.5105934z" fill="#768bdf" stroke="#26daa1"/><path d="m0 0h5v34c0 .8284271-1.11928813 1.5-2.5 1.5s-2.5-.6715729-2.5-1.5z" fill="url(#d)"/></g><use fill="url(#H)" xlink:href="#I"/><path d="m2.3717596 34.9656566.01843285-.0236465c-.19517566-.1425612-.3676161-.3231541-.50548683-.5391655-.20513489-.3213987-.31412419-.6947378-.31412419-1.0760217v-12.1579316c0-1.3656885.4572377-2.4838591 1.60842828-3.2186143l26.90670159-16.96488875c2.3473327-1.25687345 3.7935209.70628744 4.41348 1.04631521" mask="url(#S)" stroke="#3f54eb" stroke-width=".55"/><path d="m4.86531348 18.6489928 26.11999572-16.56729394c.9327636-.59162983 2.1685286-.31508628 2.7601585.61767732.203191.32035101.3110821.69188404.3110821 1.07124057v11.44163535c0 1.3697149-.7008509 2.6441887-1.8575189 3.3778358l-26.11999571 16.5672939c-.9327636.5916298-2.16852863.3150863-2.76015846-.6176773-.20319105-.320351-.31108211-.6918841-.31108211-1.0712406v-11.4416354c0-1.3697148.7008509-2.6441887 1.85751886-3.3778357z" fill="#e8ebff"/><path d="m8.12196128 28.7864495c.72-.458568 1.3125-1.1209312 1.77-1.9448129l-.585-.3174136c-.3.51357-.6675.9726308-1.1475 1.2783427-.8775.5588798-1.4475.1944127-1.4475-1.0130873 0-1.1925.63-2.3137469 1.47-2.8487429.42-.267498.7425-.2778982 1.0275-.1894147l.5775-1.0728097c-.36-.1457161-.9225-.1249598-1.6275.3240546-1.4025.8932522-2.58 2.7157019-2.58 4.5457019 0 1.8525 1.14 2.1314341 2.5425 1.2381819zm3.60000002-2.2928399c.2625-.1671862.4425-.3268282.57-.4605329l-.135-.7315185c-.075.0627675-.105.0818745-.15.110535-.105.0668744-.2175.0560257-.2175-.1989743v-4.8525l-1.1025.7021822v4.8075c0 .78.27 1.110537 1.035.6233085zm2.58-1.6432019c.57-.3630329.975-.8984774 1.335-1.5552614l.03-.019107.0825.5474558.9-.57321v-4.2l-1.1025.7021822v2.835c-.285.5565165-.51.849819-.855 1.0695495-.405.2579444-.585.1400864-.585-.5049136v-2.4825l-1.1025.7021822v2.625c0 1.05.39 1.4316091 1.2975.8536223zm4.725-3.0093523c1.095-.6974054 1.6725-1.6577152 1.6725-2.3927152 0-.78-.615-.6658065-1.17-.522327-.4425.1168282-.8325.2527192-.8325-.0547808 0-.24.18-.519642.5625-.7632562.3075-.1958467.6-.23964.9-.21321l.495-.9827655c-.345-.0427695-.8175.0031658-1.425.3900825-.96.611424-1.5675 1.5308407-1.5675 2.2808407 0 .705.5925.6501368 1.125.5134875.4425-.1093282.8775-.2438797.8775.0711203 0 .2625-.1875.5619187-.6075.8294167-.39.248391-.75.312675-1.125.2590125l-.5025 1.0100422c.42.077502 1.035-.0666914 1.5975-.4249477zm3.8775-2.4695796c.3675-.2340607.66-.5028539.885-.7211564l-.18-.687858c-.1125.1166512-.2775.2667397-.4125.3527212-.375.2388375-.57.138033-.57-.341967v-1.86l1.035-.6591915v-.87l-1.035.6591915v-1.1325l-.915.5827634-.1275 1.2137048-.6525.4680772v.8175l.5925-.3773632v1.86c0 .9375.3825 1.3313857 1.38.696078zm3.3075-2.1065466c.5175-.3295957 1.05-.8487449 1.4625-1.3964662l-.375-.4361625c-.3.37857-.6.67464-.945.8943705-.6225.3964702-1.0725.3230752-1.1625-.3096038l2.5875-1.6479787c.03-.116607.0525-.3334372.0525-.5434372 0-1.155-.6-1.62036-1.755-.8847406-.9975.6353077-1.9575 2.0942317-1.9575 3.4517317 0 1.3875.915 1.6222365 2.0925.8722868zm.675-3.0624075-1.71 1.089099c.0825-.6600443.4725-1.2234353.915-1.5052635.54-.343926.795-.1463355.795.4161645zm2.955.6454607v-2.505c.2325-.7555793.63-1.226247.96-1.436424.1725-.1098652.2925-.1637932.4425-.2143282l.1875-1.07191877c-.1275.02870474-.2625.07718624-.495.22526548-.435.27705149-.885.86365649-1.1925 1.60700319l-.0225.0143303-.0825-.6899558-.9.57321v4.2z" fill="url(#J)" fill-rule="nonzero"/></g></g></g></g></g></svg>