<svg height="20" viewBox="0 0 20 20" width="20" xmlns="http://www.w3.org/2000/svg"><g fill="none" fill-rule="evenodd"><path d="m3.81659259 14.8482452c1.43844899 1.832025 3.67349153 3.0088977 6.18340741 3.0088977 4.3393802 0 7.8571429-3.5177627 7.8571429-7.8571429m-1.6783431-4.85410781c-1.4386117-1.82867276-3.6715623-3.00303505-6.1787998-3.00303505-4.33938018 0-7.85714286 3.51776268-7.85714286 7.85714286" stroke="#b6c2cd" stroke-width="1.5"/><path d="m1.85714286 8.50793651c.21039419-.15779564.50887102-.1151561.66666666.09523809l1.90476191 2.5396825c.06182006.0824268.09523809.1826809.09523809.2857143 0 .2629928-.21319773.4761905-.47619047.4761905h-3.80952381c-.10303344 0-.20328754-.033418-.28571429-.0952381-.21039419-.1577956-.25303374-.4562725-.09523809-.6666667l1.9047619-2.5396825c.02707345-.03609793.05914016-.06816464.0952381-.09523809zm17.90476194-.41269841c.2629927 0 .4761904.21319773.4761904.47619047 0 .10303344-.033418.20328754-.0952381.28571429l-1.9047619 2.53968254c-.1577956.2103942-.4562724.2530337-.6666666.0952381-.036098-.0270735-.0681647-.0591402-.0952381-.0952381l-1.9047619-2.53968254c-.1577957-.21039419-.1151561-.50887103.0952381-.66666667.0824267-.06182006.1826808-.09523809.2857143-.09523809z" fill="#36435c" transform="matrix(.80901699 -.58778525 .58778525 .80901699 -3.968025 7.787674)"/></g></svg>