<?xml version="1.0" encoding="UTF-8"?>
<svg width="20px" height="20px" viewBox="0 0 20 20" version="1.1" xmlns="http://www.w3.org/2000/svg" xmlns:xlink="http://www.w3.org/1999/xlink">
    
    <g id="Dashboard" stroke="none" stroke-width="1" fill="none" fill-rule="evenodd">
        <g id="00-Menu-交互备份" transform="translate(-539.000000, -299.000000)">
            <g id="编组-8" transform="translate(539.000000, 299.000000)">
                <path d="M3.65903327,6.48854487 L5.73416048,8.56347012 C5.58230335,9.01459072 5.5,9.49768387 5.5,10 C5.5,12.4852814 7.51471863,14.5 10,14.5 C10.5023161,14.5 10.9854093,14.4176966 11.4365299,14.2658395 L12.7165437,15.5456199 C11.8594026,15.8299758 10.9467739,16 10,16 C5.02943725,16 1,11.3137085 1,10 C1,9.34006004 2.01684611,7.82903401 3.65903327,6.48854487 Z M13.6682463,12.6071404 L15.3221128,14.2618334 C14.8988741,14.5418109 14.447451,14.8029265 13.9723888,15.03332 L12.6071404,13.6682463 C13.017226,13.3762598 13.3762598,13.017226 13.6682463,12.6071404 Z M10,4 C14.9705627,4 19,8.6862915 19,10 C19,10.65994 17.9831539,12.170966 16.3409667,13.5114551 L14.2658395,11.4365299 C14.4176966,10.9854093 14.5,10.5023161 14.5,10 C14.5,7.51471863 12.4852814,5.5 10,5.5 C9.49768387,5.5 9.01459072,5.58230335 8.56347012,5.73416048 L7.28345626,4.45438007 C8.14059743,4.17002418 9.05322614,4 10,4 Z M7.005,9.834 L10.1653314,12.9955214 C10.1105984,12.9984943 10.055475,13 10,13 C8.34314575,13 7,11.6568542 7,10 L7.005,9.834 Z M8.4761292,7.41530245 L12.5846976,11.5238708 C12.326353,11.9611153 11.9602206,12.3271108 11.5228671,12.5852904 L7.41470965,8.47713295 C7.67288922,8.03977942 8.03888468,7.67364697 8.4761292,7.41530245 Z M10,7 C11.6568542,7 13,8.34314575 13,10 L12.994,10.166 L9.83361728,7.00453586 C9.88869573,7.00152508 9.94416976,7 10,7 Z M6.02661257,4.96716433 L7.39285959,6.33175367 C6.982774,6.6237402 6.6237402,6.982774 6.33175367,7.39285959 L4.67788717,5.73816664 C5.10082932,5.45838533 5.55191631,5.19743941 6.02661257,4.96716433 Z" id="形状结合" fill="#B6C2CD"></path>
                <rect id="矩形" fill="#36435C" transform="translate(10.000000, 10.000000) rotate(-45.000000) translate(-10.000000, -10.000000) " x="9.25" y="1" width="1.5" height="18"></rect>
            </g>
        </g>
    </g>
</svg>