<svg height="20" viewBox="0 0 20 20" width="20" xmlns="http://www.w3.org/2000/svg"><g fill="none" fill-rule="evenodd" transform="translate(5.178808 2.839698)"><path d="m4.283 4.49339053-2.54554513 2.54602323 3.19236268 3.19236264 2.76718245-2.76838587.00089311 3.78741807c0 .4236316-.34342131.7670529-.76705297.7670529h-6.16378717c-.42363166 0-.76705297-.3434213-.76705297-.7670529v-5.99036509c0-.42363166.34342131-.76705298.76705297-.76705298zm2.64784014 0c.42363166 0 .76705297.34342132.76705297.76705298l-.00089311.60694702-2.74878826 2.74981038-1.59618134-1.59618134 2.5279696-2.52762904z" fill="#b6c2cd"/><g transform="matrix(.70710678 -.70710678 .70710678 .70710678 1.489818 5.171071)"><path d="m2.26322345 2.48937589 2.89674674 2.96351023c.12338372.12622743.32573353.12853272.45196097.005149.00173583-.00169673.00345228-.00341317.005149-.005149l2.89674674-2.96351023c.14806046-.15147292.14529412-.3942927-.0061788-.54235316-.07165778-.07004343-.16788279-.1092605-.26808718-.1092605h-5.70207149c-.21181583 0-.38352648.17171065-.38352648.38352648 0 .10020439.03921707.19642941.1092605.26808718z" fill="#36435c" transform="matrix(0 -1 1 0 1.626289 9.150761)"/><path d="m0 3.762236h5.77342" stroke="#36435c" stroke-width="2.301159"/></g></g></svg>