<svg height="48" viewBox="0 0 48 48" width="48" xmlns="http://www.w3.org/2000/svg"><g fill="none" fill-rule="evenodd"><circle cx="24" cy="24" fill="#e3f3ff" r="24"/><g fill="#46b0f7" transform="translate(12 12)"><path d="m14.6423077 17.0677885-3.0295384-.8652906c-.499566-.1429406-.8770389-.5535181-.9775385-1.063269l-.1855384-.9345139c1.4770958-.6749863 2.4253078-2.1488009 2.4272307-3.7726669v-1.90225481c.0348889-2.28851603-1.7411462-4.19748534-4.02646146-4.32783737-1.12357008-.03446874-2.21314122.38785546-3.01991087 1.17053528-.80676964.78267981-1.26184853 1.85888297-1.26131983 2.98285951v2.07669739c.00138172 1.6243674.94967962 3.0988564 2.42723073 3.7740514l-.18553846.9331294c-.10096675.5092207-.47835433.9191709-.97753844 1.0618846l-3.02953842.8652905c-.59449947.170025-1.00418976.7135826-1.00384635 1.3318553v3.1095082c0 .3823095.30995692.6922325.6923079.6922325h12.4615383c.3823509 0 .6923076-.309923.6923076-.6922325v-3.1095082c-.0002744-.6177595-.4098401-1.160587-1.0038461-1.3304708z"/><path d="m15.4504616 1.80195592c2.2853153.13035203 4.0613504 2.03932134 4.0264615 4.32783737v1.90225481c-.0019229 1.62386596-.9501349 3.0976806-2.4272307 3.7726669l.1855384.9345139c.1004996.5097509.4779725.9203284.9775385 1.063269l3.0295384.8652906c.594006.1698838 1.0035717.7127113 1.0038461 1.3304708v3.1095082c0 .3823095-.3099567.6922325-.6923076.6922325h-4.1083343l.0006419-1.4017407-.0070907-.2118825c-.0888065-1.332611-1.0039041-2.4780065-2.3018053-2.8492022l-2.2612578-.6467746.1018493-.098601c1.0681261-1.0914672 1.6971983-2.5748075 1.6990726-4.1576194l.0000012-1.90438631c.0321128-2.09749883-1.0240254-3.97845807-2.6598103-5.08865304.123545-.16514321.2623219-.32204527.413438-.46864905.8067696-.78267982 1.8963408-1.20500402 3.0199108-1.17053528z"/></g></g></svg>