<svg height="48" viewBox="0 0 48 48" width="48" xmlns="http://www.w3.org/2000/svg"><g fill="none" fill-rule="evenodd"><circle cx="24" cy="24" fill="#ffece0" r="24"/><g transform="translate(12 12)"><g fill="#f79d5e"><path d="m11 2h2c.5522847 0 1 .44771525 1 1v18h-4v-18c0-.55228475.4477153-1 1-1z"/><path d="m5 7h2c.55228475 0 1 .44771525 1 1v13h-4v-13c0-.55228475.44771525-1 1-1z"/><path d="m17 10h2c.5522847 0 1 .4477153 1 1v10h-4v-10c0-.5522847.4477153-1 1-1z"/></g><path d="m3 21h18" stroke="#f79d5e" stroke-linecap="round" stroke-width="2.4"/></g></g></svg>