<svg height="48" viewBox="0 0 48 48" width="48" xmlns="http://www.w3.org/2000/svg"><g fill="none" fill-rule="evenodd"><circle cx="24" cy="24" fill="#ffe9ea" r="24"/><g fill="#ff6b6b" transform="translate(13.967095 13.173551)"><path d="m17.9004 14.3890345 1.8013227 1.0219392c.4854492.275338.4854492.7217491 0 .9970871l-8.7898344 4.9854357c-.4854492.275338-1.27251779.275338-1.75796694 0l-8.78983449-4.9854357c-.48544916-.275338-.48544916-.7217491 0-.9970871l1.80071313-1.0219392 6.10108809 3.4606385c1.03625709.5877464 2.49777631.5877464 3.53403341 0z"/><path d="m17.9004 9.27951723 1.8013227 1.02193917c.4854492.275338.4854492.7217492 0 .9970872l-8.7898344 4.9854357c-.4854492.275338-1.27251779.275338-1.75796694 0l-8.78983449-4.9854357c-.48544916-.275338-.48544916-.7217492 0-.9970872l1.80071313-1.02193917 6.10108809 3.46063857c1.03625709.5877463 2.49777631.5877463 3.53403341 0z"/><path d="m10.9118883.20650351 8.7898344 4.98543569c.4854492.27533801.4854492.72174913 0 .99708714l-8.7898344 4.98543566c-.4854492.275338-1.27251779.275338-1.75796694 0l-8.78983449-4.98543566c-.48544916-.27533801-.48544916-.72174913 0-.99708714l8.78983449-4.98543569c.48544915-.27533801 1.27251774-.27533801 1.75796694 0z"/></g></g></svg>