<svg height="32" viewBox="0 0 32 32" width="32" xmlns="http://www.w3.org/2000/svg" xmlns:xlink="http://www.w3.org/1999/xlink"><linearGradient id="a" x1="34.177648%" x2="44.89957%" y1="30.489554%" y2="50%"><stop offset="0" stop-color="#b6c2cd"/><stop offset="1" stop-color="#36435c"/></linearGradient><g fill="none" fill-rule="evenodd"><circle cx="16" cy="17" r="11" stroke="url(#a)" stroke-width="2"/><path d="m9.37575757 0c2.21515153 0 4.12424243 1.2825 5.04242423 3.1425 1.5691698.09356707 2.9746494.79391269 3.9827627 1.8703442l-9.9879445 9.9871558h-3.413c-2.71341524-.1480743-4.88005312-2.2220435-4.99518664-4.785294l-.00481336-.214706c0-2.25625 1.58909091-4.163125 3.77121212-4.785.21060606-2.9140625 2.63666666-5.215 5.60454545-5.215z" fill="#b6c2cd" fill-rule="nonzero" transform="translate(0 2)"/><g transform="translate(6 10.000195)"><path d="m12.2417607 0c2.8570082.02094278 5.3156066 1.72511165 6.5018757 4.18980479 4.0469394.2475 7.2563636 3.67916668 7.2563636 7.89333331 0 4.37125-3.2763939 7.9166667-7.3115152 7.9166667h-12.1884848c-3.62542425-.2029167-6.5-3.1183333-6.5-6.6666667 0-.4111681.03859038-.8136342.11246509-1.2042134z" fill="#36435c" fill-rule="nonzero"/><g stroke="#e8eef4" stroke-width="2" transform="translate(5.73 6.999805)"><path d="m2.77048547 8-2.77048547-3 2.77048547-3"/><path d="m12.77 8 2.7704855-3-2.7704855-3"/><path d="m9.77 0-4 10"/></g></g></g></svg>