<svg height="32" viewBox="0 0 32 32" width="32" xmlns="http://www.w3.org/2000/svg"><g fill="none" fill-rule="evenodd"><path d="m0 17.1563623 8 3.4627591v9.9136282l-8-3.4627591z" fill="#b6c2cd"/><g fill="#e8eef4"><path d="m8 13.6936031 8 3.4627592-8 3.4627591-8-3.4627591z"/><path d="m16 1.21592012 8 2.56405475-8 3.46275912-8-3.46275912z"/><path d="m24 13.6936031 8 3.4627592-8 3.4627591-8-3.4627591z"/></g><path d="m16 17.1563623 8 3.4627591v9.9136282l-8-3.4627591z" fill="#b6c2cd"/><path d="m8 3.77997487 8 3.46275912v9.91362831l-8-3.4627592z" fill="#b6c2cd"/><path d="m8 17.1563623 8 3.4627591v9.9136282l-8-3.4627591z" fill="#36435c" transform="matrix(-1 0 0 1 24 0)"/><path d="m24 17.1563623 8 3.4627591v9.9136282l-8-3.4627591z" fill="#36435c" transform="matrix(-1 0 0 1 56 0)"/><path d="m16 3.77997487 8 3.46275912v9.91362831l-8-3.4627592z" fill="#36435c" transform="matrix(-1 0 0 1 40 0)"/></g></svg>