<?xml version="1.0" encoding="UTF-8"?>
<svg width="14px" height="14px" viewBox="0 0 14 14" version="1.1" xmlns="http://www.w3.org/2000/svg" xmlns:xlink="http://www.w3.org/1999/xlink">
    <title>icon_state</title>
    <g id="Dashboard" stroke="none" stroke-width="1" fill="none" fill-rule="evenodd">
        <g id="00-Menu-交互备份" transform="translate(-620.000000, -239.000000)" fill="#0080FF">
            <g id="编组-8" transform="translate(620.000000, 239.000000)">
                <path d="M7,0 C10.8659932,0 14,3.13400675 14,7 C14,10.8659932 10.8659932,14 7,14 C3.13400675,14 0,10.8659932 0,7 C0,3.13400675 3.13400675,0 7,0 Z M6.98947209,9.62317444 C6.4559133,9.62195009 6.01802115,10.1309288 6.00053974,10.7726482 C5.98305833,11.4143676 6.39230941,11.9567642 6.92478932,11.9975927 L6.92478932,11.9975927 L6.98080327,12 L7.03615039,11.9983951 C7.38874026,11.9883612 7.71009833,11.7527322 7.87917211,11.3802673 C8.04824589,11.0078024 8.03934906,10.5550879 7.85583296,10.192657 C7.67231686,9.83022601 7.34206197,9.6131405 6.98947209,9.62317444 Z M6.999616,2 C6.43214131,2 6.00803567,2.60102711 6.00803567,3.29754453 L6.00803567,3.29754453 L6.00936934,3.33606163 C6.19074784,5.68159203 6.30477625,7.05536832 6.35012088,7.45739046 C6.41880465,8.0608249 6.53416672,8.4130958 6.92359707,8.50537633 L6.92359707,8.50537633 L6.97694368,8.51179585 L7.02762297,8.51019098 C7.44372662,8.47809339 7.60510015,8.05039318 7.65177845,7.41646604 L7.65177845,7.41646604 L7.95051953,3.35211041 L7.94918587,3.28149574 C7.91584423,2.58016369 7.54375153,2 6.999616,2 Z" id="形状结合"></path>
            </g>
        </g>
    </g>
</svg>