<?xml version="1.0" encoding="UTF-8"?>
<svg width="20px" height="20px" viewBox="0 0 20 20" version="1.1" xmlns="http://www.w3.org/2000/svg" xmlns:xlink="http://www.w3.org/1999/xlink">
    <title>icon_label_limits</title>
    <g id="Dashboard" stroke="none" stroke-width="1" fill="none" fill-rule="evenodd">
        <g id="00-切图" transform="translate(-1259.000000, -299.000000)" fill-rule="nonzero">
            <g id="编组-8" transform="translate(1259.000000, 299.000000)">
                <g id="权限" transform="translate(3.500000, 1.073444)">
                    <path d="M6.10857665,1.04617777 C6.36615233,0.984607411 6.63384767,0.984607411 6.89142335,1.04617777 L6.89142335,1.04617777 L6.96259124,1.06771612 L11.7664234,2.95386011 C12.4831788,3.13157372 12.9916256,3.79231508 13,4.55692866 L13,4.55692866 L13,7.70152761 C13,11.5999688 10.7848996,15.101489 7.22650547,16.8307107 C6.76659412,17.0564298 6.23340588,17.0564298 5.77349453,16.8307107 C2.21213505,15.0861044 0,11.6030457 0,7.70152761 L0,7.70152761 L0,4.55692866 C0.00837438932,3.79231508 0.516821208,3.13157372 1.23357663,2.95386011 L1.23357663,2.95386011 Z M6.51779198,5.19077151 L6.5,5.19077151 C5.62268714,5.19593541 4.87587338,5.85461464 4.72962627,6.75221624 C4.58337915,7.64981784 5.08001431,8.52662675 5.90693431,8.83075249 L5.90693431,12.1845811 C5.90693431,12.5295449 6.17644173,12.8091932 6.50889599,12.8091932 C6.84135024,12.8091932 7.11085767,12.5295449 7.11085767,12.1845811 L7.11085767,8.83075249 C7.93777767,8.52662675 8.43441282,7.64981784 8.28816571,6.75221624 C8.14191859,5.85461464 7.39510484,5.19593541 6.51779198,5.19077151 Z" id="形状结合" fill="#7D4CFF"></path>
                    <g id="形状结合" fill="#BBA2FF">
                        <path d="M6.10857665,1.04617777 C6.36615233,0.984607411 6.63384767,0.984607411 6.89142335,1.04617777 L6.89142335,1.04617777 L6.96259124,1.06771612 L11.7664234,2.95386011 C12.4831788,3.13157372 12.9916256,3.79231508 13,4.55692866 L13,4.55692866 L13,7.70152761 C13,11.5999688 10.7848996,15.101489 7.22650547,16.8307107 C6.76659412,17.0564298 6.23340588,17.0564298 5.77349453,16.8307107 C2.21213505,15.0861044 0,11.6030457 0,7.70152761 L0,7.70152761 L0,4.55692866 C0.00837438932,3.79231508 0.516821208,3.13157372 1.23357663,2.95386011 L1.23357663,2.95386011 Z M6.51779198,5.19077151 L6.5,5.19077151 C5.62268714,5.19593541 4.87587338,5.85461464 4.72962627,6.75221624 C4.58337915,7.64981784 5.08001431,8.52662675 5.90693431,8.83075249 L5.90693431,12.1845811 C5.90693431,12.5295449 6.17644173,12.8091932 6.50889599,12.8091932 C6.84135024,12.8091932 7.11085767,12.5295449 7.11085767,12.1845811 L7.11085767,8.83075249 C7.93777767,8.52662675 8.43441282,7.64981784 8.28816571,6.75221624 C8.14191859,5.85461464 7.39510484,5.19593541 6.51779198,5.19077151 Z"></path>
                    </g>
                </g>
            </g>
        </g>
    </g>
</svg>