<svg height="20" viewBox="0 0 20 20" width="20" xmlns="http://www.w3.org/2000/svg"><g fill="none" fill-rule="evenodd"><path d="m7.00929228 15.7726229c.89525672.4647635 1.91231387.7273771 2.99070772.7273771 3.5898509 0 6.5-2.9101491 6.5-6.5 0-1.80513309-.7358357-3.43840253-1.9239176-4.61621863-1.174645-1.1644955-2.7913646-1.88378137-4.5760824-1.88378137-3.58985087 0-6.5 2.91014913-6.5 6.5 0 1.0671527.25716717 2.0742407.71290897 2.9626716" stroke="#79879c" stroke-width="1.5"/><path d="m6.55282831 14.4299045 1.24642107 1.6080975c.12460498.1607618.09529405.3920974-.0654678.5167024-.06456311.0500422-.14393116.0771997-.22561728.0771997h-2.4960055c-.20339807 0-.36828478-.1648868-.36828478-.3682848 0-.081841.02726039-.1613506.07747691-.2259745l1.24958443-1.6080975c.12480226-.1606087.3561736-.1896356.51678235-.0648333.02434689.0189189.04622157.0408204.0651106.0651905z" fill="#79879c" transform="matrix(-.48480962 .87461971 .87461971 .48480962 -4.125331 2.430006)"/><path d="m9.5 6.5v4h4" stroke="#79879c" stroke-width="1.5"/></g></svg>