<?xml version="1.0" encoding="UTF-8"?>
<svg width="80px" height="80px" viewBox="0 0 80 80" version="1.1" xmlns="http://www.w3.org/2000/svg" xmlns:xlink="http://www.w3.org/1999/xlink">
    <title>icon_color_applications</title>
    <defs>
        <linearGradient x1="-3.09392193%" y1="-7.8376551%" x2="84.2229272%" y2="88.349991%" id="linearGradient-1">
            <stop stop-color="#49A5FF" offset="0%"></stop>
            <stop stop-color="#1EE7E7" offset="100%"></stop>
        </linearGradient>
        <circle id="path-2" cx="40" cy="40" r="24"></circle>
        <filter x="-41.7%" y="-33.3%" width="183.3%" height="183.3%" filterUnits="objectBoundingBox" id="filter-3">
            <feOffset dx="0" dy="4" in="SourceAlpha" result="shadowOffsetOuter1"></feOffset>
            <feGaussianBlur stdDeviation="6" in="shadowOffsetOuter1" result="shadowBlurOuter1"></feGaussianBlur>
            <feColorMatrix values="0 0 0 0 0.145098039   0 0 0 0 0.866666667   0 0 0 0 0.921568627  0 0 0 0.4 0" type="matrix" in="shadowBlurOuter1"></feColorMatrix>
        </filter>
        <circle id="path-4" cx="40" cy="40" r="15"></circle>
        <filter x="-23.3%" y="-16.7%" width="146.7%" height="146.7%" filterUnits="objectBoundingBox" id="filter-5">
            <feOffset dx="0" dy="2" in="SourceAlpha" result="shadowOffsetOuter1"></feOffset>
            <feGaussianBlur stdDeviation="2" in="shadowOffsetOuter1" result="shadowBlurOuter1"></feGaussianBlur>
            <feColorMatrix values="0 0 0 0 0.211764706   0 0 0 0 0.262745098   0 0 0 0 0.360784314  0 0 0 0.15 0" type="matrix" in="shadowBlurOuter1"></feColorMatrix>
        </filter>
    </defs>
    <g id="Dashboard" stroke="none" stroke-width="1" fill="none" fill-rule="evenodd">
        <g id="00-Menu-交互备份" transform="translate(-293.000000, -130.000000)">
            <g id="编组-5" transform="translate(293.000000, 130.000000)">
                <g id="椭圆形">
                    <use fill="black" fill-opacity="1" filter="url(#filter-3)" xlink:href="#path-2"></use>
                    <use fill="url(#linearGradient-1)" fill-rule="evenodd" xlink:href="#path-2"></use>
                </g>
                <circle id="椭圆形" fill="#FFFFFF" opacity="0.5" cx="40" cy="40" r="18"></circle>
                <g id="椭圆形">
                    <use fill="black" fill-opacity="1" filter="url(#filter-5)" xlink:href="#path-4"></use>
                    <use fill="#FFFFFF" fill-rule="evenodd" xlink:href="#path-4"></use>
                </g>
                <g id="编组-15" transform="translate(30.000000, 30.000000)" fill="#2FCDF0">
                    <g id="编组-16" transform="translate(1.639246, 0.977959)">
                        <path d="M14.917,11.990862 L16.4181023,12.842478 C16.8226433,13.0719264 16.8226433,13.4439357 16.4181023,13.673384 L9.09324021,17.8279137 C8.68869925,18.0573621 8.03280876,18.0573621 7.6282678,17.8279137 L0.303405721,13.673384 C-0.10113524,13.4439357 -0.10113524,13.0719264 0.303405721,12.842478 L1.804,11.990862 L6.88824007,14.8747275 C7.75178765,15.3645161 8.96972036,15.3645161 9.83326794,14.8747275 L14.917,11.990862 Z" id="形状"></path>
                        <path d="M14.917,7.73293102 L16.4181023,8.58454703 C16.8226433,8.81399537 16.8226433,9.18600463 16.4181023,9.41545297 L9.09324021,13.5699827 C8.68869925,13.7994311 8.03280876,13.7994311 7.6282678,13.5699827 L0.303405721,9.41545297 C-0.10113524,9.18600463 -0.10113524,8.81399537 0.303405721,8.58454703 L1.804,7.73293102 L6.88824007,10.6167965 C7.75178765,11.1065851 8.96972036,11.1065851 9.83326794,10.6167965 L14.917,7.73293102 Z" id="形状"></path>
                        <path d="M9.09324021,0.172086257 L16.4181023,4.326616 C16.8226433,4.55606434 16.8226433,4.92807361 16.4181023,5.15752195 L9.09324021,9.3120517 C8.68869925,9.54150004 8.03280876,9.54150004 7.6282678,9.3120517 L0.303405721,5.15752195 C-0.10113524,4.92807361 -0.10113524,4.55606434 0.303405721,4.326616 L7.6282678,0.172086257 C8.03280876,-0.0573620855 8.68869925,-0.0573620855 9.09324021,0.172086257 Z" id="矩形"></path>
                    </g>
                </g>
            </g>
        </g>
    </g>
</svg>