<svg height="20" viewBox="0 0 20 20" width="20" xmlns="http://www.w3.org/2000/svg"><path d="m9.99997494 2c4.41838656 0 8.00002506 3.58174223 8.00002506 8 0 4.4182578-3.5816719 8-8.00004176 8-4.41828633 0-7.99995824-3.5817422-7.99995824-8.00002506 0-4.41826612 3.58168862-7.99997494 7.99997494-7.99997494zm.62421946 6.61319832h-1.19999377c-.22096444 0-.39999791.17913222-.39999791.40004469v5.60300739c0 .2209793.17905018.4000614.39999791.4000614h1.19999377c.2208809 0 .3999645-.1790988.3999645-.4000614v-5.60302409c0-.22091248-.1791003-.40002799-.3999645-.40002799zm0-3.61459218h-1.19999377c-.22096444 0-.39999791.17913222-.39999791.40004469v1.1999503c0 .22097929.17905018.40006139.39999791.40006139h1.19999377c.2208809 0 .3999645-.1790988.3999645-.40006139v-1.19996701c0-.22091247-.1791003-.40002798-.3999645-.40002798z" fill="#b6c2cd"/></svg>