<svg fill="none" height="150" viewBox="0 0 280 150" width="280" xmlns="http://www.w3.org/2000/svg" xmlns:xlink="http://www.w3.org/1999/xlink"><linearGradient id="a"><stop offset="0" stop-color="#dfe7ee"/><stop offset="1" stop-color="#eff4f9" stop-opacity=".01"/></linearGradient><linearGradient id="b" gradientUnits="userSpaceOnUse" x1="203.698" x2="199.37" xlink:href="#a" y1="104.635" y2="120.319"/><linearGradient id="c" gradientUnits="userSpaceOnUse" x1="46.6092" x2="62.7397" xlink:href="#a" y1="99.3416" y2="129.404"/><linearGradient id="d" gradientUnits="userSpaceOnUse" x1="226.115" x2="216.053" xlink:href="#a" y1="103.687" y2="122.341"/><linearGradient id="e" gradientUnits="userSpaceOnUse" x1="96.8283" x2="96.8283" xlink:href="#a" y1="112" y2="149.083"/><linearGradient id="f" gradientUnits="userSpaceOnUse" x1="112.5" x2="112.5" y1="113" y2="124"><stop offset="0" stop-color="#dfe7ee"/><stop offset="1" stop-color="#dfe7ee"/></linearGradient><linearGradient id="g" gradientUnits="userSpaceOnUse" x1="146.721" x2="170.425" y1="98.7065" y2="127.743"><stop offset="0" stop-color="#81e3bb"/><stop offset="1" stop-color="#4ac285"/></linearGradient><linearGradient id="h" gradientUnits="userSpaceOnUse" x1="48.837" x2="48.837" xlink:href="#a" y1="12" y2="33.2241"/><linearGradient id="i" gradientUnits="userSpaceOnUse" x1="103.804" x2="103.804" xlink:href="#a" y1="0" y2="25.2455"/><mask height="150" maskUnits="userSpaceOnUse" width="280" x="0" y="0"><path d="m0 0h280v150h-280z" fill="#fff"/></mask><mask id="j" height="98" maskUnits="userSpaceOnUse" width="82" x="106" y="26"><path clip-rule="evenodd" d="m120 26c-7.732 0-14 6.268-14 14v84h54c7.732 0 14-6.268 14-14v-67c0-3.866 3.134-7 7-7s7 3.134 7 7v-3c0-7.732-6.268-14-14-14z" fill="#fff" fill-rule="evenodd"/></mask><g clip-rule="evenodd" fill-rule="evenodd"><path d="m213.798 86.2703c1.659-6.1518 8.16-8.1829 8.16-8.1829s-3.253 8.6377-1.134 11.4937c2.119 2.8561 2.489 5.7057 1.844 8.9835-.646 3.2784-6.606 7.8924-6.606 7.8924 8.523 3.557-4.001 15.937-4.001 15.937s-3.665.214-7.904-.028c.469-2.461 1.358-6.194 3.042-11.377 3.438-10.581 6.947-17.2168 6.947-17.2168s-12.017 17.3098-15.104 28.0488c-4.382-.739-8.057-2.263-7.534-5.33.929-5.454 3.375-7.109 6.271-9.068.916-.62 1.877-1.271 2.85-2.082 2.389-1.992 2.307-4.468 2.229-6.8027-.053-1.6192-.105-3.171.671-4.4477.758-1.246 2.285-1.7626 3.951-2.3264 2.504-.847 5.322-1.8004 6.318-5.4939z" fill="url(#b)"/><path d="m60.7585 122.393s-10.8519 0-13.9902-9.708c-3.1383-9.707-.7629-9.707 0-9.707s7.3119 10.393 9.2652 9.707c1.9533-.685-5.1816-13.5971-5.1816-23.0792s3.7747-15.5923 7.8534-16.4385 9.9663 3.7379 9.9663 17.911c0 8.7704 1.8992 9.7327 3.2319 8.8409 1.5468-1.0357 3.608-13.0829 8.8238-13.0829 6.8666 0 12.7682 10.5261 10.3553 27.9497-1.6601 3.737-30.3241 7.607-30.3241 7.607z" fill="url(#c)"/><path d="m240.526 101.568c-2.308-1.33-4.828-1.242-8.607 1.118-3.778 2.36-10.181 8.396-13.793 20.71l15.137 4.385s2.725-7.173 7.263-13.196c4.539-6.024 2.309-11.686 0-13.017z" fill="url(#d)"/></g><ellipse cx="140" cy="179" fill="url(#e)" rx="156" ry="67"/><path clip-rule="evenodd" d="m120 26c-7.732 0-14 6.268-14 14v84h54c7.732 0 14-6.268 14-14v-67c0-3.866 3.134-7 7-7s7 3.134 7 7v-3c0-7.732-6.268-14-14-14z" fill="#f4f8fc" fill-rule="evenodd"/><g fill="#e0e9f2" mask="url(#j)"><path clip-rule="evenodd" d="m132 47c0-1.1046.895-2 2-2h29c1.105 0 2 .8954 2 2s-.895 2-2 2h-29c-1.105 0-2-.8954-2-2z" fill-rule="evenodd"/><circle cx="120" cy="47" r="5"/><circle cx="120" cy="65" r="5"/><circle cx="120" cy="83" opacity=".75" r="5"/><g clip-rule="evenodd" fill-rule="evenodd"><path d="m132 65c0-1.1046.895-2 2-2h29c1.105 0 2 .8954 2 2s-.895 2-2 2h-29c-1.105 0-2-.8954-2-2z"/><path d="m132 83c0-1.1046.895-2 2-2h13c1.105 0 2 .8954 2 2s-.895 2-2 2h-13c-1.105 0-2-.8954-2-2z" opacity=".75"/></g></g><path clip-rule="evenodd" d="m167 117c-3.866 0-7-3.134-7-7v-8h-62c-3.3137 0-6 2.686-6 6v2c0 7.732 6.268 14 14 14h54c7.732 0 14-6.268 14-14 0 3.866-3.134 7-7 7z" fill="url(#f)" fill-rule="evenodd"/><path d="m174 41c0-3.866 3.134-7 7-7s7 3.134 7 7v13c0 3.3137-2.686 6-6 6h-8z" fill="#d7e0e7"/><circle cx="177" cy="106" fill="url(#g)" r="25"/><path d="m165.849 104.733 6.496 5.679 16.172-16.3487s1.086-1.0882 2.033-.2397c.283.2574.607.9799-.126 2.1134l-16.886 21.705s-1.296 1.945-2.833-.022l-7.283-10.797s-.866-1.46.216-2.337c.365-.294 1.193-.752 2.211.247h.001z" fill="#fff"/><path clip-rule="evenodd" d="m75 19.5c0 .1777-.0062.3541-.0183.5287 1.982.2379 3.5183 1.9252 3.5183 3.9713 0 2.2091-1.7909 4-4 4h-16c-3.0376 0-5.5-2.4624-5.5-5.5s2.4624-5.5 5.5-5.5c.6396 0 1.2538.1092 1.8248.31.937-3.0738 3.795-5.31 7.1752-5.31 4.1421 0 7.5 3.3579 7.5 7.5z" fill="url(#h)" fill-rule="evenodd" opacity=".75"/><path clip-rule="evenodd" d="m136 9.5c0 .20028-.006.39911-.018.5963 2.291.4561 4.018 2.4782 4.018 4.9037 0 2.7614-2.239 5-5 5h-20c-3.866 0-7-3.134-7-7 0-3.86599 3.134-7 7-7 .88 0 1.722.1623 2.497.45859 1.268-3.75506 4.82-6.45859 9.003-6.45859 5.247 0 9.5 4.25329 9.5 9.5z" fill="url(#i)" fill-rule="evenodd" opacity=".75"/></svg>