<svg height="20" viewBox="0 0 20 20" width="20" xmlns="http://www.w3.org/2000/svg"><g fill="none" fill-rule="evenodd" stroke="#79879c" stroke-width="1.5"><path d="m4.5 3.5h2c.55228475 0 1 .44771525 1 1v2c0 .55228475-.44771525 1-1 1h-2c-.55228475 0-1-.44771525-1-1v-2c0-.55228475.44771525-1 1-1z"/><path d="m4.5 12.5h2c.55228475 0 1 .4477153 1 1v2c0 .5522847-.44771525 1-1 1h-2c-.55228475 0-1-.4477153-1-1v-2c0-.5522847.44771525-1 1-1z"/><path d="m13.5 3.5h2c.5522847 0 1 .44771525 1 1v2c0 .55228475-.4477153 1-1 1h-2c-.5522847 0-1-.44771525-1-1v-2c0-.55228475.4477153-1 1-1z"/><path d="m13.5 12.5h2c.5522847 0 1 .4477153 1 1v2c0 .5522847-.4477153 1-1 1h-2c-.5522847 0-1-.4477153-1-1v-2c0-.5522847.4477153-1 1-1z"/><path d="m8 5.5h4"/><path d="m14.5 8v4"/><path d="m12 14.5h-4"/><path d="m5.5 12v-4"/></g></svg>