<svg height="20" viewBox="0 0 20 20" width="20" xmlns="http://www.w3.org/2000/svg"><g fill="none" transform="translate(3.5 2.073444)"><path d="m6.7358255.016624.15559785.02955377.07116789.02153835 4.80383216 1.88614399c.6689717.16586603 1.1564835.75250291 1.2253205 1.45164314l.0082561.15142541v3.14459895c0 3.89844119-2.2151004 7.39996139-5.77349453 9.12918309-.22995568.1128595-.47823057.1692893-.72650547.1692893l.00059786-4.1908649c.34075238.0000581.61025981-.2795902.61025981-.624554v-3.35382861c.82692-.30412574 1.32355515-1.18093465 1.17730804-2.07853625-.13764435-.8448015-.80727851-1.47796243-1.61700416-1.55383395l-.17116155-.00761078v-4.19077151l.11811767.004156z" fill="#7d4cff"/><path d="m6.50050185 0-.00050185 4.19077151c-.87731286.0051639-1.62412662.66384313-1.77037373 1.56144473-.14624712.8976016.35038804 1.77441051 1.17730804 2.07853625v3.35382861c0 .3421187.26508027.6199949.59374897.6245552l-.00018171 4.1908637c-.24844208 0-.49689651-.0563538-.72700704-.1692893-3.4676395-1.6986956-5.656132-5.04555-5.76891441-8.82206194l-.00458012-.30712115v-3.14459895c.0078161-.71363934.45125084-1.33679444 1.09308944-1.5611978l.14048719-.04187075 4.87500002-1.90768234c.1289519-.0308244.26044017-.04617777.3919252-.04617777z" fill="#bba2ff"/></g></svg>