<svg height="20" viewBox="0 0 20 20" width="20" xmlns="http://www.w3.org/2000/svg"><g fill="none" fill-rule="evenodd"><path d="m10.7142857 17.1428571h-7.14285713c-.78897821 0-1.42857143-.6395932-1.42857143-1.4285714v-11.42857141c0-.78897822.63959322-1.42857143 1.42857143-1.42857143h7.14285713" stroke="#b6c2cd" stroke-width="1.5"/><path d="m10.5050763 7.64793342 5.5025982 5.50259828c.232455.2324549.6093389.2324549.8417938 0l5.5025983-5.50259828c.2789459-.27894593.2789459-.73120663 0-1.01015255-.1339546-.13395456-.3156359-.20920944-.5050763-.20920944h-10.8368378c-.3944891 0-.7142857.31979661-.7142857.71428571 0 .18944035.0752549.37112172.2092095.50507628z" fill="#36435c" transform="matrix(0 -1 1 0 6.428571 26.428571)"/><path d="m6.428571 10h10.714286" stroke="#36435c" stroke-width="4.285714"/></g></svg>