<?xml version="1.0" encoding="UTF-8"?>
<svg width="20px" height="20px" viewBox="0 0 20 20" version="1.1" xmlns="http://www.w3.org/2000/svg" xmlns:xlink="http://www.w3.org/1999/xlink">
    <title>icon_cn</title>
    <g id="Dashboard" stroke="none" stroke-width="1" fill="none" fill-rule="evenodd">
        <g id="00-Menu-交互备份" transform="translate(-219.000000, -299.000000)">
            <g id="icon_close" transform="translate(219.000000, 299.000000)">
                <rect id="矩形" stroke="#B6C2CD" stroke-width="1.5" x="5" y="2" width="13" height="13" rx="1.42857143"></rect>
                <g id="编组-12" transform="translate(2.000000, 4.000000)">
                    <rect id="矩形" fill="#36435C" x="0" y="0" width="14" height="14" rx="1.42857143"></rect>
                    <path d="M7.6222298,11.2857143 L7.6222298,8.52481203 L9.2673031,8.52481203 L9.2673031,8.94887218 L10.5714286,8.94887218 L10.5714286,4.25714286 L7.6222298,4.25714286 L7.6222298,2.71428571 L6.30958063,2.71428571 L6.30958063,4.25714286 L3.42857143,4.25714286 L3.42857143,8.99398496 L4.67303103,8.99398496 L4.67303103,8.52481203 L6.30958063,8.52481203 L6.30958063,11.2857143 L7.6222298,11.2857143 Z M9.2673031,7.23458647 L7.6222298,7.23458647 L7.6222298,5.54736842 L9.2673031,5.54736842 L9.2673031,7.23458647 Z M6.30958063,7.23458647 L4.67303103,7.23458647 L4.67303103,5.54736842 L6.30958063,5.54736842 L6.30958063,7.23458647 Z" id="中" fill="#FFFFFF" fill-rule="nonzero"></path>
                </g>
            </g>
        </g>
    </g>
</svg>