<svg height="32" viewBox="0 0 32 32" width="32" xmlns="http://www.w3.org/2000/svg"><g fill="none" fill-rule="evenodd"><circle cx="16" cy="16" r="15.5" stroke="#d8e2f1"/><g fill-rule="nonzero" transform="translate(6 6)"><path d="m6 6c0 4.418278 3.581722 8 8 8 .6533722 0 1.2884503-.0783262 1.8963568-.2261011-1.2441979 1.9403412-3.4201184 3.2261011-5.89639334 3.2261011-3.86600054 0-6.99996346-3.1340244-6.99996346-7.00002193 0-2.47621685 1.28574068-4.65212962 3.22604521-5.89654753-.14773294.6082321-.22604521 1.24325538-.22604521 1.89656946z" fill="#36435c" stroke="#36435c" stroke-width="1.5"/><g fill="#b6c2cd"><path d="m10.5179294 10.2162293h2.8256017v-1.12329556h-1.7035609l1.5742877-1.58652315c.437186-.44004521.1606502-1.11823752-.4601957-1.11823752h-2.7540622v1.123717h1.631603l-1.5747061 1.58652317c-.44053281.44341721-.15604818 1.11781606.4610325 1.11781606z"/><path d="m14.7527674 6h3.153816v-1.17375029h-1.9014419l1.7571527-1.6577846c.4879683-.45981062.1793108-1.16846511-.5136508-1.16846511h-3.0739666v1.1741907h1.8211256l-1.7576197 1.65778463c-.4917039.46333407-.1741744 1.16802467.5145847 1.16802467z"/></g></g></g></svg>