<svg height="20" viewBox="0 0 20 20" width="20" xmlns="http://www.w3.org/2000/svg"><g fill="none"><path d="m15.4506111 8.30399999c.5412815 0 .9863052.4067297 1.043236.92926966l.0061529.11363943v7.60945452c0 .5382788-.4089383.9808938-.9338053 1.0375168l-.1141391.0061196h-10.90266671c-.54128149 0-.98630519-.4067297-1.04323598-.9298609l-.00615291-.1137755v-7.60945452c0-.5376.40893827-.98016969.93497969-1.03678965l.1144092-.00611944zm-5.4506111 2.15822021c-.82842712 0-1.5.6715729-1.5 1.5 0 .5015765.24618344.9456537.62431026 1.2179917l.11728211.076435.00047306 1.9829905c0 .4142135.33578644.75.75.75.37969577 0 .69349097-.2821539.74315337-.6482295l.0068466-.1017705.001342-1.9742991c.4519841-.2584057.7565926-.7451893.7565926-1.3031181 0-.8284271-.6715729-1.5-1.5-1.5z" fill="#ffac52"/><path d="m10 2c2.2725926 0 4.1322836 1.7800965 4.2429053 4.01003007l.0052058.21033356-.0001111.58263637h-1.63l.0000556-.51354545c0-1.37832168-1.0850695-2.51121572-2.4513581-2.59632247l-.1652531-.00513208c-1.38749994 0-2.52727025 1.07988166-2.61289237 2.43728535l-.00516314.1641692-.00038889.51354545h-1.632l.00016667-.58263637c0-2.25674931 1.79150373-4.10523215 4.03702627-4.2151891z" fill="#ffcd98"/></g></svg>