<svg height="160" viewBox="0 0 160 160" width="160" xmlns="http://www.w3.org/2000/svg" xmlns:xlink="http://www.w3.org/1999/xlink"><defs><rect id="a" height="100" rx="8" width="100"/><filter id="b" height="200%" width="200%" x="-50%" y="-40%"><feOffset dx="0" dy="10" in="SourceAlpha" result="shadowOffsetOuter1"/><feGaussianBlur in="shadowOffsetOuter1" result="shadowBlurOuter1" stdDeviation="15"/><feColorMatrix in="shadowBlurOuter1" type="matrix" values="0 0 0 0 0.0366009094   0 0 0 0 0.0603229773   0 0 0 0 0.276098279  0 0 0 0.14 0"/></filter><filter id="c" height="161%" width="161%" x="-30.5%" y="-20.5%"><feOffset dx="1" dy="1" in="SourceAlpha" result="shadowOffsetInner1"/><feComposite in="shadowOffsetInner1" in2="SourceAlpha" k2="-1" k3="1" operator="arithmetic" result="shadowInnerInner1"/><feColorMatrix in="shadowInnerInner1" result="shadowMatrixInner1" type="matrix" values="0 0 0 0 0.929411765   0 0 0 0 0.345098039   0 0 0 0 0.929411765  0 0 0 0.05 0"/><feOffset dx="-1" dy="-1" in="SourceAlpha" result="shadowOffsetInner2"/><feComposite in="shadowOffsetInner2" in2="SourceAlpha" k2="-1" k3="1" operator="arithmetic" result="shadowInnerInner2"/><feColorMatrix in="shadowInnerInner2" result="shadowMatrixInner2" type="matrix" values="0 0 0 0 0   0 0 0 0 0.105718866   0 0 0 0 0.734375  0 0 0 0.1 0"/><feMerge><feMergeNode in="shadowMatrixInner1"/><feMergeNode in="shadowMatrixInner2"/></feMerge></filter><filter id="d" height="350%" width="348.6%" x="-124.3%" y="-125%"><feGaussianBlur in="SourceGraphic" stdDeviation="20"/></filter><filter id="e" height="350%" width="348.6%" x="-124.3%" y="-125%"><feGaussianBlur in="SourceGraphic" stdDeviation="20"/></filter><filter id="f" height="350%" width="348.6%" x="-124.3%" y="-125%"><feGaussianBlur in="SourceGraphic" stdDeviation="20"/></filter><filter id="g" height="322.2%" width="321%" x="-110.5%" y="-111.1%"><feGaussianBlur in="SourceGraphic" stdDeviation="20"/></filter><mask id="h" fill="#fff"><use fill="#fff" fill-rule="evenodd" xlink:href="#a"/></mask></defs><g fill="none" fill-rule="evenodd" transform="translate(30 20)"><use fill="#000" filter="url(#b)" xlink:href="#a"/><use fill="#fff" fill-rule="evenodd" xlink:href="#a"/><use fill="#000" filter="url(#c)" xlink:href="#a"/><g mask="url(#h)" opacity=".695382"><g transform="translate(-12 38)"><ellipse cx="50.847826" cy="24" fill="#6f38ff" filter="url(#d)" opacity=".204297" rx="24.130435" ry="24"/><rect fill="#0080ff" filter="url(#e)" height="48" opacity=".303934" rx="3.36" width="48.26087" x="80.73913" y="14"/><path d="m90.7486957 54c1.8556767 0 3.36 1.5043232 3.36 3.36v20.64c0 13.254834-10.8035637 24-24.1304348 24-13.3268712 0-24.1304348-10.745166-24.1304348-24s10.8035636-24 24.1304348-24z" fill="#1ee7e7" filter="url(#f)" opacity=".196027"/><ellipse cx="27.146739" cy="70.6" fill="#ed58ed" filter="url(#g)" opacity=".198842" rx="27.146739" ry="27"/></g></g><g mask="url(#h)"><g transform="translate(20.375 18.1875)"><rect fill="#36435c" height="17.5" rx="3.28125" width="54.6875"/><path d="m6.514003 4.375h4.373446v8.75h-4.373446z" fill="#e8eef4"/><path d="m15.260896 4.375h4.373446v8.75h-4.373446z" fill="#e8eef4"/><path d="m37.182062 7.65625h13.125v2.1875h-13.125z" fill="#b6c2cd"/></g><g transform="translate(20.375 37.875)"><path d="m51.40625 0c1.8121843 0 3.28125 1.46906566 3.28125 3.28125l-.0005 1.70775-4.6937583-2.71059134c-2.7348805-1.57954488-6.1045483-1.57954488-8.8394287 0l-13.1779324 7.61098561c-2.7214807 1.57180583-4.4027835 4.46998053-4.4187258 7.61079413l-20.2759048-.0001884c-1.81218434 0-3.28125-1.4690657-3.28125-3.28125v-10.9375c0-1.81218434 1.46906566-3.28125 3.28125-3.28125zm-3.4283372 4.92220156.3742668.19760057 6.3348204 3.65819787.0005 5.44075c0 1.8121843-1.4690657 3.28125-3.28125 3.28125h-24.56725l.0049791-.2066495c.0794288-1.7569561.9861423-3.3708841 2.4379975-4.3529244l.3349661-.2096384 13.1779323-7.61098557c1.5966192-.92213597 3.5372711-.98800283 5.1830378-.19760057z" fill="#36435c"/><g fill="#e8eef4"><path d="m6.514003 4.375h4.373446v8.75h-4.373446z"/><path d="m15.260896 4.375h4.373446v8.75h-4.373446z"/></g></g><g transform="translate(20.375 57.5625)"><path d="m23.557 0 .0000404 13.0797356c0 1.5794681.4212985 3.0989728 1.1845612 4.4209911l-21.4603516-.0007267c-1.81218434 0-3.28125-1.4690657-3.28125-3.28125v-10.9375c0-1.81218434 1.46906566-3.28125 3.28125-3.28125zm27.84925 0c1.8121843 0 3.28125 1.46906566 3.28125 3.28125v10.9375c0 1.8121843-1.4690657 3.28125-3.28125 3.28125l-22.3793761.0013034c-1.2647626-.9639999-2.0611635-2.4301425-2.1745788-4.0265564l-.0140047-.3950114-.0002904-13.0797356z" fill="#36435c"/><path d="m6.514003 4.375h4.373446v8.75h-4.373446z" fill="#e8eef4"/><path d="m15.260896 4.375h4.373446v8.75h-4.373446z" fill="#e8eef4"/><path d="m37.182062 7.65625h13.125v2.1875h-13.125z" fill="#b6c2cd"/></g><g transform="translate(47.215625 42.25)"><path d="m15.8360819.74480213-13.07841376 7.61098561c-1.70645098.99306951-2.75766814 2.82833766-2.75766814 4.81447666v15.2219712c0 1.986139 1.05121716 3.8214072 2.75766814 4.8144767l13.07841376 7.6109856c1.7064509.9930695 3.8088853.9930695 5.5153362 0l13.0784138-7.6109856c1.7064509-.9930695 2.7576681-2.8283377 2.7576681-4.8144767v-15.2219712c0-1.986139-1.0512172-3.82140715-2.7576681-4.81447666l-13.0784138-7.61098561c-1.7064509-.99306951-3.8088853-.99306951-5.5153362 0z" fill="#36435c" fill-rule="nonzero"/><path d="m15.8360819.74480213-13.07841376 7.61098561c-1.70645098.99306951-2.75766814 2.82833766-2.75766814 4.81447666v15.2219712c0 1.986139 1.05121716 3.8214072 2.75766814 4.8144767l13.07841376 7.6109856c1.7064509.9930695 3.8088853.9930695 5.5153362 0l13.0784138-7.6109856c1.7064509-.9930695 2.7576681-2.8283377 2.7576681-4.8144767v-15.2219712c0-1.986139-1.0512172-3.82140715-2.7576681-4.81447666l-13.0784138-7.61098561c-1.7064509-.99306951-3.8088853-.99306951-5.5153362 0z" fill="#36435c" fill-rule="nonzero"/><g stroke-width="2.1875"><path d="m18.59375 5.195313v7.792968" stroke="#e8eef4"/><path d="m28.623758 11.063139.026673 7.746769" stroke="#e8eef4" transform="matrix(.5 .8660254 -.8660254 .5 27.253956 -17.33219)"/><path d="m28.650431 22.752592-.026673 7.74677" stroke="#e8eef4" transform="matrix(-.5 .8660254 -.8660254 -.5 66.014415 15.138514)"/><path d="m18.59375 28.574219v7.792969" stroke="#e8eef4" transform="matrix(-1 0 0 -1 37.1875 64.941406)"/><path d="m8.537069 22.752592.026673 7.74677" stroke="#e8eef4" transform="matrix(-.5 -.8660254 .8660254 -.5 -10.233165 47.343833)"/><path d="m8.563742 11.063139-.026673 7.746769" stroke="#e8eef4" transform="matrix(.5 -.8660254 .8660254 .5 -8.660206 14.873129)"/><path d="m18.59375 12.988281v7.792969" stroke="#b6c2cd"/><path d="m21.928195 14.959623.026673 7.74677" stroke="#b6c2cd" transform="matrix(.5 .8660254 -.8660254 .5 27.280629 -9.58542)"/><path d="m21.954868 18.856107-.026673 7.74677" stroke="#b6c2cd" transform="matrix(-.5 .8660254 -.8660254 -.5 52.596615 15.092314)"/><path d="m18.59375 20.78125v7.792969" stroke="#b6c2cd" transform="matrix(-1 0 0 -1 37.1875 49.355468)"/><path d="m15.232632 18.856107.026673 7.74677" stroke="#b6c2cd" transform="matrix(-.5 -.8660254 .8660254 -.5 3.184635 47.297634)"/><path d="m15.259305 14.959623-.026673 7.74677" stroke="#b6c2cd" transform="matrix(.5 -.8660254 .8660254 .5 -8.686879 22.6199)"/><ellipse cx="18.59375" cy="20.78125" rx="8.680837" ry="8.75" stroke="#e8eef4"/><ellipse cx="18.59375" cy="20.78125" rx="8.680837" ry="8.75" stroke="#e8eef4"/></g></g></g></g></svg>