<svg height="32" viewBox="0 0 32 32" width="32" xmlns="http://www.w3.org/2000/svg"><g fill="none" fill-rule="evenodd"><rect fill="#36435c" height="8" rx="1.5" width="25" x="2" y="1"/><path d="m4.97783 3h1.99929v4h-1.99929z" fill="#e8eef4"/><path d="m8.976409 3h1.99929v4h-1.99929z" fill="#e8eef4"/><path d="m18.997514 4.5h6v1h-6z" fill="#b6c2cd"/><g transform="translate(2 10)"><path d="m23.5 0c.8284271 0 1.5.67157288 1.5 1.5v.78l-2.1459467-1.23844176c-1.250231-.72207765-2.7906506-.72207765-4.0408817 0l-6.0241976 3.47930771c-1.2442583.71862806-2.0128899 2.04374514-2.0199916 3.47974923l-9.2689824-.00061518c-.82842712 0-1.5-.67157288-1.5-1.5v-5c0-.82842712.67157288-1.5 1.5-1.5zm-1.5672399 2.25014929.1710934.09033168 2.8961465 1.67251903v2.487c0 .82842712-.6715729 1.5-1.5 1.5h-11.231l.0063349-.15988433c.0552509-.77770222.4650663-1.48777547 1.1107116-1.9244923l.1531273-.09583469 6.0241976-3.47930771c.7298831-.42154787 1.6170382-.45165843 2.3693887-.09033168z" fill="#36435c"/><g fill="#e8eef4"><path d="m2.97783 2h1.99929v4h-1.99929z"/><path d="m6.976409 2h1.99929v4h-1.99929z"/></g></g><g transform="translate(2 19)"><path d="m10.768 0 .0009327 5.97930771c0 .72245738.192815 1.4174714.5421153 2.02206601l-9.811048-.00137372c-.82842712 0-1.5-.67157288-1.5-1.5v-5c0-.82842712.67157288-1.5 1.5-1.5zm12.732 0c.8284271 0 1.5.67157288 1.5 1.5v5c0 .82842712-.6715729 1.5-1.5 1.5l-10.2294618.00144147c-.5788213-.44067362-.9433231-1.11130094-.9952033-1.84155714l-.0064022-.18057662-.0009327-5.97930771z" fill="#36435c"/><path d="m2.97783 2h1.99929v4h-1.99929z" fill="#e8eef4"/><path d="m6.976409 2h1.99929v4h-1.99929z" fill="#e8eef4"/><path d="m16.997514 3.5h6v1h-6z" fill="#b6c2cd"/></g><g transform="translate(14.27 12)"><path d="m7.23935171.34048097-5.97870342 3.47930771c-.78009188.45397463-1.26064829 1.29295435-1.26064829 2.20090361v6.95861541c0 .9079493.48055641 1.746929 1.26064829 2.2009036l5.97870342 3.4793077c.78009188.4539747 1.7412047.4539747 2.52129658 0l5.97870341-3.4793077c.7800919-.4539746 1.2606483-1.2929543 1.2606483-2.2009036v-6.95861541c0-.90794926-.4805564-1.74692898-1.2606483-2.20090361l-5.97870341-3.47930771c-.78009188-.45397463-1.7412047-.45397463-2.52129658 0z" fill="#36435c" fill-rule="nonzero"/><path d="m7.23935171.34048097-5.97870342 3.47930771c-.78009188.45397463-1.26064829 1.29295435-1.26064829 2.20090361v6.95861541c0 .9079493.48055641 1.746929 1.26064829 2.2009036l5.97870342 3.4793077c.78009188.4539747 1.7412047.4539747 2.52129658 0l5.97870341-3.4793077c.7800919-.4539746 1.2606483-1.2929543 1.2606483-2.2009036v-6.95861541c0-.90794926-.4805564-1.74692898-1.2606483-2.20090361l-5.97870341-3.47930771c-.78009188-.45397463-1.7412047-.45397463-2.52129658 0z" fill="#36435c" fill-rule="nonzero"/><g stroke="#e8eef4"><path d="m8.5 2.375v3.5625"/><path d="m13.085147 5.057435.012193 3.54138" transform="matrix(.5 .8660254 -.8660254 .5 12.458951 -7.923287)"/><path d="m13.09734 10.401185-.012193 3.54138" transform="matrix(-.5 .8660254 -.8660254 -.5 30.178017 6.920463)"/><path d="m8.5 13.0625v3.5625" transform="matrix(-1 0 0 -1 17 29.6875)"/><path d="m3.90266 10.401185.012193 3.54138" transform="matrix(-.5 -.8660254 .8660254 -.5 -4.678017 21.642895)"/><path d="m3.914853 5.057435-.012193 3.54138" transform="matrix(.5 -.8660254 .8660254 .5 -3.958951 6.799145)"/></g><path d="m8.5 5.9375v3.5625" stroke="#b6c2cd"/><path d="m10.024318 6.838685.012193 3.54138" stroke="#b6c2cd" transform="matrix(.5 .8660254 -.8660254 .5 12.471144 -4.381906)"/><path d="m10.036511 8.619935-.012193 3.54138" stroke="#b6c2cd" transform="matrix(-.5 .8660254 -.8660254 -.5 24.044166 6.899344)"/><path d="m8.5 9.5v3.5625" stroke="#b6c2cd" transform="matrix(-1 0 0 -1 17 22.5625)"/><path d="m6.963489 8.619935.012193 3.54138" stroke="#b6c2cd" transform="matrix(-.5 -.8660254 .8660254 -.5 1.455834 21.621776)"/><path d="m6.975682 6.838685-.012193 3.54138" stroke="#b6c2cd" transform="matrix(.5 -.8660254 .8660254 .5 -3.971144 10.340526)"/><ellipse cx="8.5" cy="9.5" rx="3.968383" ry="4" stroke="#e8eef4"/><ellipse cx="8.5" cy="9.5" rx="3.968383" ry="4" stroke="#e8eef4"/></g></g></svg>