<svg height="32" viewBox="0 0 32 32" width="32" xmlns="http://www.w3.org/2000/svg"><g fill="none" fill-rule="evenodd"><circle cx="16" cy="16" r="15.5" stroke="#d8e2f1"/><g transform="translate(6 6)"><path d="m10 5v6l-5 3" stroke="#b6c2cd" stroke-width="1.5"/><path d="m10 11 5 3" stroke="#b6c2cd" stroke-width="1.5"/><path d="m2.92282631 7.57565741c.14649327 0 .29866945.02682743.45226637.08183686l.15391263.0644536.01683831.01019972 2.24315638 1.12685241.00047368 4.5357368 3.34252632 1.6712632.0007933 2.5564716c.00336767.2379934-.09092683.465787-.26267755.6289825-.17848604.1631954-.41758997.2549929-.66006157.2481931-.14649326 0-.29677514-.0286867-.45084563-.0831915l-.15533336-.0630045h-.00336766l-.01347066-.0067998-4.55644539-2.2949359c-.28288354-.1359962-.54219344-.3501903-.73078246-.6051831-.16277028-.2153274-.26239691-.4495431-.29108439-.6711665l-.00863743-.1312112v-6.19122722c-.00336767-.23799335.09092683-.465787.26267755-.62898245.18185369-.16319544.41758997-.25159297.66006156-.24828762zm14.15764709.00349445c.2424716-.00679982.4782079.08159772.6600616.24819307.1414166.13537895.2303492.3156301.2534534.50856041l.0058565.11702214-.0168383 6.19122722c-.0000001.2583928-.1043975.5439849-.2963542.8023777-.1481771.2039943-.3459262.3818773-.5639351.5145008l-.1668474.0906823-4.5530777 2.3017357c-.138916.0688481-.2929865.1147468-.4494249.1348275l-.1567541.0113685c-.2593099 0-.4950462-.0883976-.6634292-.2481931-.1403192-.133163-.2291881-.3111858-.2549133-.5084904l-.0077643-.1204921-.0005064-2.5584716 3.3405263-1.6692632-.0005263-4.5297368 2.2642944-1.13965223c.2054273-.09859723.407487-.14619591.606179-.14619591zm-7.0215733-6.07903039c.2748011-.00271993.5452917.04025486.8028504.12718364l.1906096.07341075 5.0716976 2.41053276c.3940163.18699477.6230173.49298623.6264215.83977656.002961.31128021-.1776491.59301063-.5016471.79027042l-.1281421.06990559-2.77669 1.36079881-3.344-1.672-3.425 1.712-2.68902262-1.27840223c-.39401635-.18359488-.6230173-.49298624-.62642106-.83977656-.00296138-.31128022.18030947-.59301064.50253359-.79027042l.12725514-.0699056 5.12221246-2.51592979c.28961885-.13939611.66006156-.21759393 1.04734259-.21759393z" fill="#36435c" fill-rule="nonzero"/></g></g></svg>