<?xml version="1.0" encoding="UTF-8"?>
<svg width="20px" height="20px" viewBox="0 0 20 20" version="1.1" xmlns="http://www.w3.org/2000/svg" xmlns:xlink="http://www.w3.org/1999/xlink">
    
    <g id="Dashboard" stroke="none" stroke-width="1" fill="none" fill-rule="evenodd">
        <g id="00-切图" transform="translate(-1059.000000, -299.000000)" fill="#B6C2CD" fill-rule="nonzero">
            <g id="疑问备份" transform="translate(1059.000000, 299.000000)">
                <path d="M9.99997494,2 C14.4183615,2 18,5.58174223 18,10 C18,14.4182578 14.4183281,18 9.99995824,18 C5.58167191,18 2,14.4182578 2,9.99997494 C2,5.58170882 5.58168862,2 9.99997494,2 Z M10.6241944,8.61319832 L9.42420063,8.61319832 C9.20323619,8.61319832 9.02420272,8.79233054 9.02420272,9.01324301 L9.02420272,9.01324301 L9.02420272,14.6162504 C9.02420272,14.8372297 9.2032529,15.0163118 9.42420063,15.0163118 L9.42420063,15.0163118 L10.6241944,15.0163118 C10.8450753,15.0163118 11.0241589,14.837213 11.0241589,14.6162504 L11.0241589,14.6162504 L11.0241589,9.01322631 C11.0241589,8.79231383 10.8450586,8.61319832 10.6241944,8.61319832 L10.6241944,8.61319832 Z M10.6241944,4.99860614 L9.42420063,4.99860614 C9.20323619,4.99860614 9.02420272,5.17773836 9.02420272,5.39865083 L9.02420272,5.39865083 L9.02420272,6.59860113 C9.02420272,6.81958042 9.2032529,6.99866252 9.42420063,6.99866252 L9.42420063,6.99866252 L10.6241944,6.99866252 C10.8450753,6.99866252 11.0241589,6.81956372 11.0241589,6.59860113 L11.0241589,6.59860113 L11.0241589,5.39863412 C11.0241589,5.17772165 10.8450586,4.99860614 10.6241944,4.99860614 L10.6241944,4.99860614 Z" id="形状结合"></path>
            </g>
        </g>
    </g>
</svg>