<svg height="20" viewBox="0 0 20 20" width="20" xmlns="http://www.w3.org/2000/svg"><g fill="none" fill-rule="evenodd"><path d="m8.8753847 2.00162993c1.8409484.10500581 3.2853185 1.59502747 3.3533018 3.41691895l.0020828.18961219v1.58521235c-.0015223 1.28556055-.7147329 2.45827004-1.8414043 3.05459068l-.181288.0892984.1581897.7961859c-2.11941354.9780493-3.86626706 2.9010766-3.86626706 4.3665516 0 .4686654.17865953.9841269.49102482 1.500548l-3.41410121-.000548c-.28676323 0-.52466048-.209198-.5693723-.4832906l-.00755131-.0935698v-2.5912568c-.00026197-.4722917.28659421-.8922655.71600204-1.0681167l.12053695-.0417627 2.52461534-.7210755c.37438809-.1070353.66656351-.3944552.78259202-.7602204l.03202336-.1246834.15461538-.7776079c-1.16972796-.53452935-1.94141341-1.67019442-2.01664484-2.94300125l-.00604744-.20204153v-1.73058116c-.00044059-.93664712.37879182-1.83348309 1.05109986-2.48571626.67230804-.65223318 1.58028399-1.00417002 2.51659239-.97544607z" fill="#98ccff"/><g fill="#0080ff"><path d="m13 12c2.7614237 0 5 2.73367 5 3.5s-2.2385763 3.5-5 3.5-5-2.73367-5-3.5 2.2385763-3.5 5-3.5zm0 1c-1.3807119 0-2.5 1.1192881-2.5 2.5s1.1192881 2.5 2.5 2.5 2.5-1.1192881 2.5-2.5-1.1192881-2.5-2.5-2.5z"/><path d="m13.0384615 17c.8284272 0 1.5-.6715729 1.5-1.5s-.6715728-1.5-1.5-1.5c-.8284271 0-1.5.6715729-1.5 1.5s.6715729 1.5 1.5 1.5z"/></g></g></svg>