<svg height="20" viewBox="0 0 20 20" width="20" xmlns="http://www.w3.org/2000/svg"><g fill="none" fill-rule="evenodd"><path d="m3.65903327 6.48854487 2.07512721 2.07492525c-.15185713.4511206-.23416048.93421375-.23416048 1.43652988 0 2.4852814 2.01471863 4.5 4.5 4.5.5023161 0 .9854093-.0823034 1.4365299-.2341605l1.2800138 1.2797804c-.8571411.2843559-1.7697698.4543801-2.7165437.4543801-4.97056275 0-9-4.6862915-9-6 0-.65993996 1.01684611-2.17096599 2.65903327-3.51145513zm10.00921303 6.11859553 1.6538665 1.654693c-.4232387.2799775-.8746618.5410931-1.349724.7714866l-1.3652484-1.3650737c.4100856-.2919865.7691194-.6510203 1.0611059-1.0611059zm-3.6682463-8.6071404c4.9705627 0 9 4.6862915 9 6 0 .65994-1.0168461 2.170966-2.6590333 3.5114551l-2.0751272-2.0749252c.1518571-.4511206.2341605-.9342138.2341605-1.4365299 0-2.48528137-2.0147186-4.5-4.5-4.5-.50231613 0-.98540928.08230335-1.43652988.23416048l-1.28001386-1.27978041c.85714117-.28435589 1.76976988-.45438007 2.71654374-.45438007zm-2.995 5.834 3.1603314 3.1615214c-.054733.0029729-.1098564.0044786-.1653314.0044786-1.65685425 0-3-1.3431458-3-3zm1.4711292-2.41869755 4.1085684 4.10856835c-.2583446.4372445-.624477.80324-1.0618305 1.0614196l-4.10815745-4.10815745c.25817957-.43735353.62417503-.80348598 1.06141955-1.0618305zm1.5238708-.41530245c1.6568542 0 3 1.34314575 3 3l-.006.166-3.16038272-3.16146414c.05507845-.00301078.11055248-.00453586.16638272-.00453586zm-3.97338743-2.03283567 1.36624702 1.36458934c-.41008559.29198653-.76911939.65102033-1.06110592 1.06110592l-1.6538665-1.65469295c.42294215-.27978131.87402914-.54072723 1.3487254-.77100231z" fill="#b6c2cd"/><path d="m9.25 1h1.5v18h-1.5z" fill="#36435c" transform="matrix(.70710678 -.70710678 .70710678 .70710678 -4.142136 10)"/></g></svg>