<?xml version="1.0" encoding="UTF-8"?>
<svg width="20px" height="20px" viewBox="0 0 20 20" version="1.1" xmlns="http://www.w3.org/2000/svg" xmlns:xlink="http://www.w3.org/1999/xlink">
    
    <g id="Dashboard" stroke="none" stroke-width="1" fill="none" fill-rule="evenodd">
        <g id="03-开发环境-创建环境-创建共享开发环境-第一步填充态-流量生成" transform="translate(-849.000000, -409.000000)">
            <g id="创建共享开发环境" transform="translate(244.000000, 104.000000)">
                <g id="Right" transform="translate(420.000000, 0.000000)">
                    <g id="集群" transform="translate(0.000000, 126.000000)">
                        <g id="编组-17" transform="translate(24.000000, 64.000000)">
                            <g id="编组-14" transform="translate(16.000000, 64.000000)">
                                <g id="编组-7备份-26" transform="translate(144.000000, 12.000000)">
                                    <g id="编组-22" transform="translate(0.000000, 38.000000)">
                                        <g id="编组-21" transform="translate(1.000000, 1.000000)">
                                            <circle id="椭圆形" stroke="#79879C" stroke-width="1.5" cx="10" cy="10" r="6"></circle>
                                            <path d="M10,6 C11.1045695,6 12,5.1045695 12,4 C12,3.44457443 11.773589,2.94202999 11.4080254,2.57962504 C11.0465961,2.22131873 10.5491439,2 10,2 C8.8954305,2 8,2.8954305 8,4 C8,4.32835466 8.07912836,4.63822791 8.21935661,4.91159126 C8.3187995,5.10544695 8.44896917,5.28094204 8.60343616,5.43164706 C8.7437706,5.56856371 8.90415971,5.685019 9.07978224,5.77619166 C9.35524585,5.91919581 9.66818651,6 10,6 Z" id="椭圆形" fill="#79879C" transform="translate(10.000000, 4.000000) rotate(-360.000000) translate(-10.000000, -4.000000) "></path>
                                            <path d="M10,12 C11.1045695,12 12,11.1045695 12,10 C12,9.44457443 11.773589,8.94202999 11.4080254,8.57962504 C11.0465961,8.22131873 10.5491439,8 10,8 C8.8954305,8 8,8.8954305 8,10 C8,10.3283547 8.07912836,10.6382279 8.21935661,10.9115913 C8.3187995,11.105447 8.44896917,11.280942 8.60343616,11.4316471 C8.7437706,11.5685637 8.90415971,11.685019 9.07978224,11.7761917 C9.35524585,11.9191958 9.66818651,12 10,12 Z" id="椭圆形备份-4" fill="#79879C" transform="translate(10.000000, 10.000000) rotate(-360.000000) translate(-10.000000, -10.000000) "></path>
                                            <path d="M15.1961524,15 C16.3007219,15 17.1961524,14.1045695 17.1961524,13 C17.1961524,12.4445744 16.9697414,11.94203 16.6041778,11.579625 C16.2427485,11.2213187 15.7452964,11 15.1961524,11 C14.0915829,11 13.1961524,11.8954305 13.1961524,13 C13.1961524,13.3283547 13.2752808,13.6382279 13.415509,13.9115913 C13.5149519,14.105447 13.6451216,14.280942 13.7995886,14.4316471 C13.939923,14.5685637 14.1003121,14.685019 14.2759347,14.7761917 C14.5513983,14.9191958 14.8643389,15 15.1961524,15 Z" id="椭圆形" fill="#79879C" transform="translate(15.196152, 13.000000) rotate(-240.000000) translate(-15.196152, -13.000000) "></path>
                                            <path d="M4.80384758,15 C5.90841708,15 6.80384758,14.1045695 6.80384758,13 C6.80384758,12.4445744 6.57743658,11.94203 6.21187295,11.579625 C5.85044369,11.2213187 5.35299151,11 4.80384758,11 C3.69927808,11 2.80384758,11.8954305 2.80384758,13 C2.80384758,13.3283547 2.88297594,13.6382279 3.02320418,13.9115913 C3.12264708,14.105447 3.25281675,14.280942 3.40728374,14.4316471 C3.54761818,14.5685637 3.70800729,14.685019 3.88362982,14.7761917 C4.15909342,14.9191958 4.47203409,15 4.80384758,15 Z" id="椭圆形" fill="#79879C" transform="translate(4.803848, 13.000000) rotate(-120.000000) translate(-4.803848, -13.000000) "></path>
                                        </g>
                                    </g>
                                </g>
                            </g>
                        </g>
                    </g>
                </g>
            </g>
        </g>
    </g>
</svg>