<?xml version="1.0" encoding="UTF-8"?>
<svg width="14px" height="14px" viewBox="0 0 14 14" version="1.1" xmlns="http://www.w3.org/2000/svg" xmlns:xlink="http://www.w3.org/1999/xlink">
    <title>icon_label_admin</title>
    <g id="Dashboard" stroke="none" stroke-width="1" fill="none" fill-rule="evenodd">
        <g id="00-Menu-交互备份" transform="translate(-582.000000, -239.000000)" fill-rule="nonzero">
            <g id="编组-19" transform="translate(582.000000, 239.000000)">
                <g id="编组" transform="translate(0.209603, 1.250000)">
                    <path d="M6.79039699,0 L6.79,11.5 L2.4847008,11.5 C1.95294293,11.5 1.51231754,11.1318383 1.3660033,10.6330743 L1.33755542,10.5157647 L0.0159634508,3.61386851 C-0.0349500339,3.34480398 0.0305130147,3.05290429 0.290845593,2.85297171 L0.290845593,2.85297171 L0.418217015,2.76942756 C0.468511553,2.73939169 0.506271277,2.72385226 0.565479938,2.70882377 L0.565479938,2.70882377 L0.722565101,2.67530419 L0.842707847,2.67411108 L1.02132437,2.71114439 C1.1299268,2.73686193 1.15801569,2.75722153 1.25632678,2.82848015 L1.25632678,2.82848015 L3.07006827,4.17032835 C3.15794212,4.2354086 3.2584331,4.21870619 3.34237992,4.10580172 L3.34237992,4.10580172 L6.19992743,0.268207377 L6.28306259,0.186264428 L6.40000444,0.105345863 C6.46430965,0.0648547959 6.51187225,0.0473925058 6.60610905,0.0296759391 L6.60610905,0.0296759391 L6.79039699,0 Z" id="形状结合" fill="#FFDF74"></path>
                    <path d="M13.580794,0 L13.580397,11.5 L9.2750978,11.5 C8.74333993,11.5 8.30271454,11.1318383 8.1564003,10.6330743 L8.12795241,10.5157647 L6.80636044,3.61386851 C6.75544696,3.34480398 6.82091001,3.05290429 7.08124259,2.85297171 L7.08124259,2.85297171 L7.20861401,2.76942756 C7.25890855,2.73939169 7.29666827,2.72385226 7.35587693,2.70882377 L7.35587693,2.70882377 L7.5129621,2.67530419 L7.63310484,2.67411108 L7.81172136,2.71114439 C7.9203238,2.73686193 7.94841268,2.75722153 8.04672378,2.82848015 L8.04672378,2.82848015 L9.86046526,4.17032835 C9.94833911,4.2354086 10.0488301,4.21870619 10.1327769,4.10580172 L10.1327769,4.10580172 L12.9903244,0.268207377 L13.0734596,0.186264428 L13.1904014,0.105345863 C13.2547066,0.0648547959 13.3022692,0.0473925058 13.396506,0.0296759391 L13.396506,0.0296759391 L13.580794,0 Z" id="形状结合" fill="#FFC608" transform="translate(10.185595, 5.750000) scale(-1, 1) translate(-10.185595, -5.750000) "></path>
                </g>
            </g>
        </g>
    </g>
</svg>