<svg height="20" viewBox="0 0 20 20" width="20" xmlns="http://www.w3.org/2000/svg"><g fill="none" transform="translate(2 3)"><path d="m8.00100013 0-.00000013 14h-5.07332265c-.62977367 0-1.15106346-.4528143-1.32076564-1.0647512l-.03089472-.1334578-1.55720755-8.40230217c-.05999042-.32755658.01714349-.68291246.32388858-.92630846l.15007941-.10170585c.05926113-.03656537.10375272-.05548293.1735172-.07377847l.18509057-.04080642.14156199-.00145248.21046056.045084c.12796426.03130829.16106088.05609387.27689903.14284342l2.1370983 1.63355313c.10354015.07922807.22194682.05889471.32085982-.0785541l3.36699577-4.67185051.09795664-.09975656.13779044-.09850949c.07576964-.04929343.13181178-.07055186.24284927-.09211984z" fill="#ffdf74"/><path d="m16 0-.0000001 14h-5.0733227c-.6297736 0-1.15106343-.4528143-1.32076562-1.0647512l-.03089471-.1334578-1.55720755-8.40230217c-.05999043-.32755658.01714348-.68291246.32388858-.92630846l.15007941-.10170585c.05926113-.03656537.10375272-.05548293.17351719-.07377847l.18509057-.04080642.14156199-.00145248.21046057.045084c.12796426.03130829.16106087.05609387.27689903.14284342l2.13709834 1.63355313c.1035401.07922807.2219468.05889471.3208598-.0785541l3.3669957-4.67185051.0979567-.09975656.1377904-.09850949c.0757697-.04929343.1318118-.07055186.2428493-.09211984z" fill="#ffc608" transform="matrix(-1 0 0 1 23.999 0)"/></g></svg>