<svg height="48" viewBox="0 0 48 48" width="48" xmlns="http://www.w3.org/2000/svg"><g fill="none" fill-rule="evenodd"><circle cx="24" cy="24" fill="#f5e9ff" r="24"/><g transform="translate(12 12)"><path d="m11.2509091 2.4c2.6581818 0 4.9490909 1.539 6.0509091 3.771 2.7274129.16263126 5.0427253 1.85286693 6.0938288 4.2294782-.4404238-.49490028-1.0816217-.80671149-1.795647-.80671149h-9.6c-1.3254834 0-2.4 1.07451659-2.4 2.39999999v6.0062333c0 1.3254834 1.0745166 2.4 2.4 2.4l5.296-.001-.0450909.001h-11.2509091c-3.34654546-.182625-6-2.8065-6-6 0-2.7075 1.90690909-4.99575 4.52545454-5.74199999.25272728-3.49687502 3.16399999-6.25800001 6.72545456-6.25800001z" fill="#c274fb" fill-rule="nonzero"/><g stroke="#c274fb" stroke-width="2.4"><path d="m15.8094463 19.0082357-3.3245826-3.6 3.3245826-3.6"/><path d="m19.0306707 19.0082357 3.3245826-3.6-3.3245826-3.6"/></g></g></g></svg>