<svg height="20" viewBox="0 0 20 20" width="20" xmlns="http://www.w3.org/2000/svg"><g fill="none" fill-rule="evenodd" transform="translate(1.639246 .977959)"><path d="m14.917 11.990862 1.5011023.851616c.404541.2294484.404541.6014577 0 .830906l-7.32486209 4.1545297c-.40454096.2294484-1.06043145.2294484-1.46497241 0l-7.32486208-4.1545297c-.40454096-.2294483-.40454096-.6014576 0-.830906l1.50059428-.851616 5.08424007 2.8838655c.86354758.4897886 2.08148029.4897886 2.94502787 0z" fill="#b6c2cd"/><path d="m14.917 7.73293102 1.5011023.85161601c.404541.22944834.404541.6014576 0 .83090594l-7.32486209 4.15452973c-.40454096.2294484-1.06043145.2294484-1.46497241 0l-7.32486208-4.15452973c-.40454096-.22944834-.40454096-.6014576 0-.83090594l1.50059428-.85161601 5.08424007 2.88386548c.86354758.4897886 2.08148029.4897886 2.94502787 0z" fill="#b6c2cd"/><path d="m9.09324021.17208626 7.32486209 4.15452974c.404541.22944834.404541.60145761 0 .83090595l-7.32486209 4.15452975c-.40454096.22944834-1.06043145.22944834-1.46497241 0l-7.32486208-4.15452975c-.40454096-.22944834-.40454096-.60145761 0-.83090595l7.32486208-4.15452974c.40454096-.22944835 1.06043145-.22944835 1.46497241 0z" fill="#36435c"/></g></svg>