<svg height="20" viewBox="0 0 20 20" width="20" xmlns="http://www.w3.org/2000/svg"><g fill="none"><path d="m9.99997494 2c-4.41828632 0-7.99997494 3.58170882-7.99997494 7.99997494 0 4.41828286 3.58167191 8.00002506 7.99995824 8.00002506 4.41836986 0 8.00004176-3.5817422 8.00004176-8 0-4.41825777-3.5816385-8-8.00002506-8z" fill="#0080ff"/><path d="m10.5999582 13.0162554c.2209478 0 .3999979.1790821.3999979.4000614v1.1999503c0 .2209125-.1790334.4000447-.3999979.4000447h-1.1999937c-.2208642 0-.3999645-.1791155-.3999645-.400028v-1.199967c0-.2209626.1790836-.4000614.3999645-.4000614zm0-8.01764926c.2209478 0 .3999979.1790821.3999979.40006139v5.60300737c0 .2209125-.1790334.4000447-.3999979.4000447h-1.1999937c-.2208642 0-.3999645-.1791155-.3999645-.400028v-5.60302407c0-.22096258.1790836-.40006139.3999645-.40006139z" fill="#fff" transform="matrix(-1 0 0 -1 19.999956 20.014918)"/></g></svg>