<svg height="20" viewBox="0 0 20 20" width="20" xmlns="http://www.w3.org/2000/svg"><g fill="none"><path d="m8.10565668 10.0236837-4.55981306-2.29153611-.01683831-.01019972c-.20542732-.09859725-.41085464-.14629046-.606179-.14629046-.24247159-.00330535-.47820787.08509218-.66006156.24828762-.17175072.16319545-.26604522.3909891-.26267755.62898245v6.19122722c0 .2583928.10439749.5439849.29972182.8023777.18858902.2549928.44789892.4691869.73078246.6051831l4.55644539 2.2949359.01347066.0067998h.00336766c.20879498.0951974.41085464.146196.60617899.146196.2424716.0067998.48157553-.0849977.66006157-.2481931.17175072-.1631955.26604522-.3909891.26267755-.6289825v-6.1878273c0-.2583928-.10776516-.5439848-.29972183-.8023776-.19099805-.2584573-.44039149-.4671093-.72741479-.608583z" fill="#b6c2cd"/><path d="m17.740535 7.82734493c-.1818537-.16659535-.41759-.25499289-.6600616-.24819307-.198692 0-.4007517.04759868-.606179.14619591l-4.5732837 2.30173583c-.2828835.1359962-.5421934.3501902-.7307825.6017832-.1919566.2583928-.2997218.5473847-.2997218.8023776v6.1912272c0 .2447932.0942945.469187.2626776.6289825.168383.1597955.4041193.2481931.6600615.2481931h.0033677c.208795-.0033999.4209576-.0543985.606179-.146196l4.5530777-2.3017357c.2828836-.1359962.5455611-.3501903.7307825-.6051831.1919567-.2583928.2963541-.5439849.2963542-.8023777l.0168383-6.19122722c.004513-.23605711-.08961-.4631278-.2593099-.62558255z" fill="#79879c"/><path d="m16.12069 5.81120119c.4041193-.19719449.6331203-.50998577.6297892-.86017601-.0034042-.34679033-.2324052-.65278179-.6264215-.83977656l-5.0716976-2.41053276c-.3131925-.13599621-.6499586-.20399431-.99346-.20059439-.38728103 0-.75772374.07819782-1.04734259.21759393l-5.12221246 2.51592979c-.40075167.1971945-.63312028.50998578-.62978873.86017602.00340376.34679032.23240471.65618168.62642106.83977656l5.06832988 2.41053275c.19532434.09179744.43106062.15639563.6836352.18359487l-.0168383.01699952h.32666312c.38391332 0 .75772372-.07819781 1.04734262-.22099383z" fill="#b6c2cd"/></g></svg>