<svg height="20" viewBox="0 0 20 20" width="20" xmlns="http://www.w3.org/2000/svg"><g fill="none" fill-rule="evenodd" transform="translate(2 1.503379)"><path d="m9 0c.95921293 0 1.7607087.67526748 1.9550443 1.57635952l-5.9550443.00026184c-1.88881384 0-3.42 1.53118615-3.42 3.42l.00031892 8.95927264c-.90307263-.1928387-1.58031892-.9952767-1.58031892-1.955894v-10c0-1.1045695.8954305-2 2-2z" fill="#b6c2cd"/><g fill-rule="nonzero" transform="translate(3 3.003909)"><path d="m8.17358949 0v1.99744113c.00692484 1.22134458.92103459 2.40912342 2.48453931 2.41298077h2.1304895v7.5476631c.0091118.534827-.2109574 1.0508388-.6111631 1.4330372-.4002057.3821983-.9472888.5988206-1.5193264.6015904h-8.52195799c-1.17847904-.0029191-2.133049-.8954963-2.13617081-1.9974412v-9.99783027c.00312181-1.10194489.95769177-1.99452206 2.13617081-1.99744113z" fill="#36435c"/><path d="m9.59004339 0 3.19857491 2.99084934h-2.1304895c-.2875173.01720403-.5691166-.08173074-.77338036-.27171303-.20426377-.18998229-.31157028-.45276228-.29470505-.72169518z" fill="#b6c2cd"/></g><path d="m6.83329254 9.39593737 2.30294865 2.59920733c.18312748.2066856.49913342.2257832.70581902.0426558.02326162-.0206103.04455097-.0433445.06359165-.0679074l1.99527604-2.57395573" stroke="#fff" stroke-linecap="round" stroke-width="1.5"/></g></svg>