<?xml version="1.0" encoding="UTF-8"?>
<svg width="20px" height="20px" viewBox="0 0 20 20" version="1.1" xmlns="http://www.w3.org/2000/svg" xmlns:xlink="http://www.w3.org/1999/xlink">
    
    <g id="Dashboard" stroke="none" stroke-width="1" fill="none" fill-rule="evenodd">
        <g id="00-Menu-交互备份" transform="translate(-259.000000, -425.000000)">
            <g id="编组-19" transform="translate(257.000000, 423.000000)">
                <g id="编组-8" transform="translate(2.000000, 2.000000)">
                    <path d="M3.81659259,14.8482452 C5.25504158,16.6802702 7.49008412,17.8571429 10,17.8571429 C14.3393802,17.8571429 17.8571429,14.3393802 17.8571429,10 M16.1787998,5.14589219 C14.7401881,3.31721943 12.5072375,2.14285714 10,2.14285714 C5.66061982,2.14285714 2.14285714,5.66061982 2.14285714,10" id="形状" stroke="#1EE7E7" stroke-width="1.5"></path>
                    <path d="M1.85714286,8.50793651 C2.06753705,8.35014087 2.36601388,8.39278041 2.52380952,8.6031746 L2.52380952,8.6031746 L4.42857143,11.1428571 C4.49039149,11.2252839 4.52380952,11.325538 4.52380952,11.4285714 C4.52380952,11.6915642 4.31061179,11.9047619 4.04761905,11.9047619 L4.04761905,11.9047619 L0.238095238,11.9047619 C0.135061803,11.9047619 0.0348077004,11.8713439 -0.0476190476,11.8095238 C-0.258013238,11.6517282 -0.300652786,11.3532513 -0.142857143,11.1428571 L-0.142857143,11.1428571 L1.76190476,8.6031746 C1.78897821,8.56707667 1.82104492,8.53500996 1.85714286,8.50793651 Z M19.7619048,8.0952381 C20.0248975,8.0952381 20.2380952,8.30843583 20.2380952,8.57142857 C20.2380952,8.67446201 20.2046772,8.77471611 20.1428571,8.85714286 L18.2380952,11.3968254 C18.0802996,11.6072196 17.7818228,11.6498591 17.5714286,11.4920635 C17.5353306,11.46499 17.5032639,11.4329233 17.4761905,11.3968254 L15.5714286,8.85714286 C15.4136329,8.64674867 15.4562725,8.34827183 15.6666667,8.19047619 C15.7490934,8.12865613 15.8493475,8.0952381 15.952381,8.0952381 L19.7619048,8.0952381 Z" id="形状结合" fill="#0080FF" transform="translate(9.999986, 10.000000) rotate(-36.000000) translate(-9.999986, -10.000000) "></path>
                </g>
            </g>
        </g>
    </g>
</svg>