<?xml version="1.0" encoding="UTF-8"?>
<svg width="20px" height="20px" viewBox="0 0 20 20" version="1.1" xmlns="http://www.w3.org/2000/svg" xmlns:xlink="http://www.w3.org/1999/xlink">
    <title>icon_normal_dashboard</title>
    <g id="Dashboard" stroke="none" stroke-width="1" fill="none" fill-rule="evenodd">
        <g id="00-Menu-交互备份" transform="translate(-75.000000, -62.000000)">
            <g id="编组-15" transform="translate(75.000000, 62.000000)">
                <g id="编组-16" transform="translate(1.500000, 1.500000)">
                    <path d="M1,0 L6.75,0 C7.30228475,-1.01453063e-16 7.75,0.44771525 7.75,1 L7.75,8.5 C7.75,9.05228475 7.30228475,9.5 6.75,9.5 L1,9.5 C0.44771525,9.5 1.04869017e-15,9.05228475 0,8.5 L0,1 C-6.76353751e-17,0.44771525 0.44771525,1.01453063e-16 1,0 Z" id="矩形" fill="#B6C2CD"></path>
                    <rect id="矩形备份-5" fill="#B6C2CD" x="9.25" y="7.5" width="7.75" height="9.5" rx="1"></rect>
                    <path d="M1,11 L6.75,11 C7.30228475,11 7.75,11.4477153 7.75,12 L7.75,16 C7.75,16.5522847 7.30228475,17 6.75,17 L1,17 C0.44771525,17 6.76353751e-17,16.5522847 0,16 L0,12 C-6.76353751e-17,11.4477153 0.44771525,11 1,11 Z" id="矩形备份" fill="#B6C2CD"></path>
                    <path d="M10.25,0 L16,0 C16.5522847,-5.91980459e-16 17,0.44771525 17,1 L17,5 C17,5.55228475 16.5522847,6 16,6 L10.25,6 C9.69771525,6 9.25,5.55228475 9.25,5 L9.25,1 C9.25,0.44771525 9.69771525,1.01453063e-16 10.25,0 Z" id="矩形备份-3" fill="#36435C"></path>
                </g>
            </g>
        </g>
    </g>
</svg>