<svg height="20" viewBox="0 0 20 20" width="20" xmlns="http://www.w3.org/2000/svg"><g fill="none" fill-rule="evenodd"><rect height="11.428571" rx="1.428571" stroke="#36435c" stroke-width="1.5" width="11.428571" x="4.285714" y="4.285714"/><g transform="translate(8.571429 8.571429)"><path d="m10 0c.7889782 0 1.4285714.63959322 1.4285714 1.42857143v8.57142857c0 .7889782-.6395932 1.4285714-1.4285714 1.4285714h-8.57142857c-.78897821 0-1.42857143-.6395932-1.42857143-1.4285714v-5.715l1.42857143.00071429c1.57795643 0 2.85714286-1.27918643 2.85714286-2.85714286l-.00071429-1.42857143zm-7.143 0 .00014286 1.42857143c0 .78897821-.63959322 1.42857143-1.42857143 1.42857143l-1.42857143-.00014286v-1.42842857c0-.78897821.63959322-1.42857143 1.42857143-1.42857143z" fill="#b6c2cd"/><path d="m4.06593407 9.28571429.45435333-1.63950144h2.32459848l.45435334 1.63950144h1.98647507l-2.44082841-7.14285715h-2.26120033l-2.44082841 7.14285715zm2.41969568-2.96260787h-1.60608622l.16906171-.60402684c.20076078-.70949185.41208791-1.54362416.60228233-2.29146692h.04226543c.21132714.7286673.41208791 1.58197507.62341505 2.29146692z" fill="#fff" fill-rule="nonzero"/></g><g><rect fill="#36435c" height="11.428571" rx="1.428571" width="11.428571"/><path d="m6.33651551 10v-2.76090226h1.64507331v.42406015h1.30412547v-4.69172932h-2.94919878v-1.54285714h-1.31264916v1.54285714h-2.88100921v4.73684211h1.2444596v-.46917294h1.63654961v2.76090226zm1.64507331-4.05112782h-1.64507331v-1.68721804h1.64507331zm-2.95772247 0h-1.63654961v-1.68721804h1.63654961z" fill="#fff" fill-rule="nonzero"/></g></g></svg>