<svg height="32" viewBox="0 0 32 32" width="32" xmlns="http://www.w3.org/2000/svg"><g fill="none" fill-rule="evenodd"><circle cx="16" cy="16" r="15.5" stroke="#d8e2f1"/><g transform="translate(6 6)"><path d="m9.33707702 1.0017386c1.96586258.11213078 3.50776668 1.70490029 3.57709178 3.6511999l.0019851.19576665v1.69089316c-.0016279 1.37470135-.7661999 2.62842408-1.9732089 3.26300104l-.1843295.09048068.164923.83067897c.0251621.1276265.0698567.2482592.1310072.3585519-.2443315.3507778-.3681663.7690748-.3553152 1.1940768l.0146182.1879202c-.5588596.2491908-.97091509.7691304-1.10086982 1.3818705-.15044308.7729063-.14891337 1.5435296-.00058339 2.2907897l.04381818.1697909c.07821115.2583203.20374727.493586.36819383.6948713l-6.3390227-.0016303c-.30897049 0-.56475893-.2276753-.60871245-.5243906l-.00667254-.0909271v-2.7640074c-.00028159-.5073007.30999471-.9580124.7733667-1.1432213l.11894136-.04065 2.69292304-.7691472c.39934729-.1141709.71100107-.4207522.83476481-.8109017l.03415825-.1329957.16492307-.82944833c-1.25083692-.57159368-2.07496427-1.78761686-2.15167718-3.14941211l-.00586124-.20530025v-1.84595324c-.00046996-.99909025.4040446-1.95571528 1.12117318-2.65143067s1.68563625-1.07111469 2.68436522-1.0404758z" fill="#36435c"/><path d="m16.2634939 11.0218947c.5141952.1801159.9881926.4678791 1.3931841.8464038.1065238.1030741.1594507.2532879.1420318.404557l-.0485722.4650648c-.0391245.3805485.161274.7437878.4951012.8974131l.4083413.1889105c.1333223.0598041.2311366.1829302.2629597.3306814.1102086.5565298.1112136 1.1310009.0033498 1.6878824-.0316322.1486456-.129705.2720809-.2632947.331385l-.4113561.1906695c-.3336992.1535852-.5340719.5166355-.4951012.8970614l.0485722.46612c.0172336.150492-.0354925.3005063-.1416968.4031499-.4038034.3824892-.880236.6707263-1.3978738.8457002-.138012.045029-.2880833.0175894-.4039865-.0731721l-.3604391-.2768577c-.2946122-.2260231-.6945854-.2260231-.9891976 0l-.3634538.2786167c-.1162383.0914651-.2669795.1185528-.4053265.0724685-.5142686-.1801116-.988274-.4682046-1.3931841-.8467556-.1067377-.102879-.1596301-.2535355-.1420317-.404557l.0485722-.4643612c.0391244-.3805485-.161274-.7437878-.4951013-.8974131l-.4086762-.1892623c-.1330647-.0594893-.2307837-.1825312-.2626248-.3306814-.1104466-.5564107-.1115865-1.1306412-.0033498-1.6875306.031494-.1484949.1292931-.2718997.2626248-.331385l.412696-.1906695c.333173-.1540415.5329441-.5169839.4937613-.8970614l-.0479022-.46612c-.0172337-.150492.0354924-.3005063.1416968-.4031499.4037417-.3827417.8801787-.6712213 1.3978738-.8464038.1380119-.0446771.2880832-.0175894.4039865.0738757l.360439.2765059c.2947829.2258484.6944147.2258484.9891976 0l.3634539-.2786167c.1162382-.091465.2669795-.118201.4053264-.0724685zm-1.2634939 1.9781053c-1.1045695 0-2 .8954305-2 2s.8954305 2 2 2 2-.8954305 2-2-.8954305-2-2-2z" fill="#b6c2cd" fill-rule="nonzero"/></g></g></svg>