<svg height="20" viewBox="0 0 20 20" width="20" xmlns="http://www.w3.org/2000/svg"><g fill="none" fill-rule="evenodd"><path d="m12.2019231 14.2231571-2.52461536-.7210755c-.416305-.1191172-.73086576-.4612651-.81461537-.8860575l-.15461538-.7787616c1.23091315-.5624885 2.02108991-1.7906674 2.02269231-3.14388908v-1.58521235c.0290741-1.90709668-1.45095524-3.49790444-3.3553846-3.60653114-.9363084-.02872395-1.84428435.32321289-2.51659239.97544607-.67230804.65223317-1.05154045 1.54906914-1.05109986 2.48571626v1.73058116c.00115143 1.35363948.79139969 2.58238028 2.02269228 3.14504278l-.15461538.7776079c-.08413897.4243506-.39862862.7659757-.81461538.8849038l-2.52461534.7210755c-.49541623.1416874-.83682481.5946521-.83653863 1.1098794v2.5912568c0 .3185912.25829744.5768604.57692325.5768604h10.38461525c.3186258 0 .576923-.2582692.576923-.5768604v-2.5912568c-.0002287-.5147997-.3415334-.9671559-.8365384-1.1087257z" fill="#0080ff"/><path d="m12.8753847 1.50162993c1.9044294.1086267 3.3844587 1.69943446 3.3553846 3.60653114v1.58521235c-.0016024 1.35322163-.7917792 2.58140054-2.0226923 3.14388911l.1546154.77876157c.0837496.4247924.3983103.7669403.8146153.8860575l2.5246154.7210755c.495005.1415698.8363097.593926.8365384 1.1087257v2.5912568c0 .3185912-.2582972.5768604-.576923.5768604h-3.4235436l.0004666-1.1681172-.0059089-.1765688c-.0740054-1.1105091-.8365868-2.0650054-1.9181711-2.3743351l-1.8843815-.5389789.0848744-.0821675c.8901051-.909556 1.4143319-2.1456729 1.4158938-3.46468287l.0000011-1.58698856c.0267558-1.74759978-.8530364-3.31481512-2.2157696-4.2400425.1024319-.13836609.2179806-.26898724.3437926-.39104257.6723081-.65223318 1.580284-1.00417002 2.5165924-.97544607z" fill="#1ee7e7"/></g></svg>