<svg height="20" viewBox="0 0 20 20" width="20" xmlns="http://www.w3.org/2000/svg"><g fill="none" fill-rule="evenodd"><path d="m7.00929228 15.7726229c.89525672.4647635 1.91231387.7273771 2.99070772.7273771 3.5898509 0 6.5-2.9101491 6.5-6.5 0-1.80513309-.7358357-3.43840253-1.9239176-4.61621863-1.174645-1.1644955-2.7913646-1.88378137-4.5760824-1.88378137-3.58985087 0-6.5 2.91014913-6.5 6.5 0 1.0671527.25716717 2.0742407.71290897 2.9626716" stroke="#0080ff" stroke-width="1.5"/><path d="m12.0156327 6.54421907c-.5918658-.34595981-1.2805963-.54421907-2.0156327-.54421907-2.209139 0-4 1.790861-4 4 0 .6567093.15825672 1.2764558.43871321 1.8231825.1988858.3877114.45922514.7387016.76815912 1.0401116.28066887.2738333.60144709.5067439.95269215.6890892.55092721.2860083 1.17680854.4476167 1.84043552.4476167 2.209139 0 4-1.790861 4-4 0-.74490725-.2036199-1.44225652-.5582366-2.03942477" stroke="#0080ff" stroke-width="1.5"/><path d="m10 11.5c.8284271 0 1.5-.6715729 1.5-1.5 0-.41656917-.1698082-.79347751-.443981-1.06528122-.2710719-.26872973-.644161-.43471878-1.056019-.43471878-.82842712 0-1.5.67157288-1.5 1.5 0 .246266.05934627.4786709.16451745.6836934.07458218.1453918.17220943.2770131.28805967.3900419.10525083.1026875.22554266.1900289.35725956.2584084.20659771.1072532.4413032.1678563.69016332.1678563z" fill="#0080ff"/></g></svg>