<svg height="13" viewBox="0 0 13 13" width="13" xmlns="http://www.w3.org/2000/svg"><g fill="none" fill-rule="evenodd"><circle cx="6.5" cy="6.5" fill="#0080ff" r="6.5"/><path d="m8.99909175 4.6492898c-.01065377-.62660622-.14174346-1.24530909-.38612025-1.82236835-.23976677-.56756017-.58790134-1.08289449-1.02490559-1.51714041-.42789335-.42626878-.93636245-.76304315-1.49574736-.99067843-1.10940892-.44849844-2.35398894-.42329677-3.44434254.06974497-.53822673.24431474-1.02247003.59331682-1.4245213 1.02667583-1.22904272 1.33676967-1.56459622 3.26825023-.85846152 4.94139304.22588884.53140328.55254768 1.01400794.96192675 1.42114734.40131094.39830549.87792957.71265083 1.40202885.92468319 1.03885236.41929035 2.20415918.39408055 3.22391663-.06974496.50205476-.22907041.95344441-.55591071 1.32780379-.96143055.60604612-.65707684.99232807-1.48672737 1.10512863-2.37357853h.03298892c.1566293-.00236747.30588916-.06693654.41488352-.17947653s.16877666-.2638133.16625294-.42048013v-.05024637zm-.92293985 1.59288493c-.21109166.49526679-.51669154.94461711-.89969766 1.32290444-.37454255.37094416-.81933354.66338533-1.30831035.86018786-.48065246.19251617-.99538565.28538649-1.51299157.27298027-.51345342-.01218415-1.01905292-.1287936-1.48600064-.34272524-.46678779-.21469137-.88588433-.52068194-1.2325858-.89993499-.34840261-.37892291-.62052594-.82146276-.80148066-1.30340583-.17914939-.48161544-.26514717-.99290276-.25341484-1.50664116.01114919-.50866869.1198305-1.0104658.32014241-1.47814322.19638818-.45911809.48062666-.87539784.83671883-1.22541148.34795857-.34299904.76055325-.61346132 1.21384209-.79569252.44585113-.17750888.92306379-.26272058 1.40277861-.25048191.47450485.01239543.94154613.1210858 1.37278868.31947693.43131004.19879534.81871805.48152482 1.13961704.83168992.32171852.35049096.57250626.76000676.73850183 1.20591288.1645218.44510249.2426424.91751315.23017265 1.39189945v.05024637c-.00394072.30157454.2189711.5581037.5180759.59620693-.05594602.32564898-.15006366.64356861-.28040577.94718158z" fill="#fff" fill-rule="nonzero" transform="translate(2 2)"/></g></svg>