<svg height="32" viewBox="0 0 32 32" width="32" xmlns="http://www.w3.org/2000/svg"><g fill="none" fill-rule="evenodd"><circle cx="16" cy="16" r="15.5" stroke="#d8e2f1"/><g transform="translate(8.005413 7.06)"><path d="m6.994 0v1.662l-5.06721271 2.42080743c-.22816937.10896753-.38380136.3241556-.41914421.5698414l-.00764308.10694036v8.36096071c0 .252748.12700535.4858413.3333382.6236368l.09314616.0530002 5.06751564 2.4228131v1.662l-5.71454693-2.7315391c-.7296795-.3488765-1.21183639-1.059921-1.27288095-1.8577253l-.00657212-.1721857v-8.36096071c0-.80913305.43387161-1.55109103 1.12775595-1.95017567l.15260592-.0801696z" fill="#36435c" fill-rule="nonzero"/><path d="m8.99458736.008 5.42227514 2.58548771.1652095.0857301c.8613086.48453014 1.4011322 1.39869849 1.4011322 2.39649733v7.72886486l-.0062676.1859457c-.0665704.9855903-.6588922 1.8660557-1.5589641 2.2957521l-5.42338514 2.5887222v-1.662l4.77714794-2.2803756.1145482-.0621907c.3681809-.2254748.5969207-.6279541.5969207-1.0658537v-7.72886486l-.0067784-.13021923c-.0448916-.4295726-.3097689-.80950568-.7051951-.99806597l-4.77664334-2.27842994z" fill="#36435c" fill-rule="nonzero"/><path d="m2.99405853 10.7376705 5.00015096 2.5260931 4.99984901-2.5200931.0005289 1.7026842-5.00000004 2.5263158-5-2.5263158z" fill="#b6c2cd"/><g fill="#36435c"><path d="m2.99405853 7.16767052 5.00015096 2.52615243 4.99984901-2.52015243v1.89l-5.00047114 2.51932948-4.99952883-2.52632948z"/><path d="m7.99458736 2.97267052 4.99447114 2.524-4.99447114 2.51632948-4.98852883-2.52032948z"/></g></g></g></svg>