<svg height="20" viewBox="0 0 20 20" width="20" xmlns="http://www.w3.org/2000/svg"><path d="m9.99997494 2c-4.41828632 0-7.99997494 3.58170882-7.99997494 7.99997494 0 4.41828286 3.58167191 8.00002506 7.99995824 8.00002506 4.41836986 0 8.00004176-3.5817422 8.00004176-8 0-4.41825777-3.5816385-8-8.00002506-8zm.77637416 12.6162671c0 .2209125-.1790335.4000447-.3999979.4000447h-1.19999374c-.2208642 0-.3999645-.1791155-.3999645-.400028v-1.199967c0-.2209626.17908359-.4000614.3999645-.4000614h1.19999374c.2209477 0 .3999979.1790821.3999979.4000614zm1.982833-5.50593929c-.1607911.22924848-.525724.52135945-.982621.877519l-.5063121.34939389c-.2459059.1907424-.4639969.4128076-.5446347.6670474-.0275642.0866343-.0482122.2289979-.0621112.3827545-.0070164.0773796-.0762275.2352124-.2380209.2352124h-1.30216489c-.21165944 0-.24948083-.1657846-.24593925-.2468894.0234212-.5314997.07213461-1.003361.28868877-1.2573836.43843741-.51407586 1.43605997-1.15392684 1.43605997-1.15392684.151887-.11461589.2748566-.23922161.3678564-.37500327.1690603-.23310742.3093202-.48911798.3093202-.76895047 0-.32162944-.0940523-.61480956-.2827249-.88017515-.1880211-.26432986-.532473-.39675372-1.03156829-.39675372-.4913105 0-.83960471.1630783-1.04489933.48906787-.15165306.24085874-.24714204.46232249-.28666739.70328146-.01408279.08528117-.06876009.26489784-.25105115.26489784h-1.27002344c-.27042959 0-.32998491-.17523985-.32216671-.25971916.09789458-1.0646364.51394653-1.7920572 1.24957583-2.25914073.50021457-.32157933 1.11563067-.48295369 1.8456302-.48295369.95923318 0 1.75547028.22864708 2.39028158.68660946.6336752.45734428.9514317 1.13503304.9514317 2.03358416 0 .55027652-.1930829 1.01430297-.4679227 1.39152805z" fill="#b6c2cd"/></svg>