<?xml version="1.0" encoding="UTF-8"?>
<svg width="20px" height="20px" viewBox="0 0 20 20" version="1.1" xmlns="http://www.w3.org/2000/svg" xmlns:xlink="http://www.w3.org/1999/xlink">
    <title>icon_state_enter</title>
    <g id="Dashboard" stroke="none" stroke-width="1" fill="none" fill-rule="evenodd">
        <g id="00-Menu-交互备份" transform="translate(-699.000000, -299.000000)">
            <g id="编组-8" transform="translate(699.000000, 299.000000)">
                <path d="M15.5933195,8.50793651 L17.6409386,11.2380952 C17.7987342,11.4484894 17.7560947,11.7469663 17.5457005,11.9047619 C17.4632737,11.966582 17.3630196,12 17.2599862,12 L13.1647481,12 C12.9017554,12 12.6885576,11.7868023 12.6885576,11.5238095 C12.6885576,11.4207761 12.7219757,11.320522 12.7837957,11.2380952 L14.8314148,8.50793651 C14.9892104,8.29754232 15.2876872,8.25490277 15.4980814,8.41269841 C15.5341794,8.43977186 15.5662461,8.47183857 15.5933195,8.50793651 Z" id="三角形" fill="#0080FF" transform="translate(15.212367, 10.000000) scale(1, -1) rotate(-270.000000) translate(-15.212367, -10.000000) "></path>
                <line x1="3" y1="10" x2="15" y2="10" id="路径-3" stroke="#0080FF" stroke-width="1.5"></line>
            </g>
        </g>
    </g>
</svg>