<svg height="20" viewBox="0 0 20 20" width="20" xmlns="http://www.w3.org/2000/svg"><g fill="none" fill-rule="evenodd"><path d="m8.87538488 2.00162993c1.84094842.10500581 3.28531852 1.59502747 3.35330182 3.41691895l.0020827.18961219v1.58521235c-.0015222 1.28556055-.7147328 2.45827004-1.8414043 3.05459068l-.1812879.0892984.1546154.7787616c.04013.2035463.1332544.3881175.2651737.5382685-.67955771.5977812-1.19965441 1.3825231-1.47762093 2.2917106-.31728033 1.0377772-.28034131 2.099414.04168219 3.0548866l-5.61500413-.0008898c-.28676323 0-.52466048-.209198-.5693723-.4832906l-.00755113-.0935698v-2.5912568c-.00026215-.4722917.28659403-.8922655.71600186-1.0681167l.12053695-.0417627 2.52461534-.7210755c.37438809-.1070353.66656351-.3944552.78259202-.7602204l.03202336-.1246834.15461538-.7776079c-1.16972797-.53452935-1.94141341-1.67019442-2.01664484-2.94300125l-.00604744-.20204153v-1.73058116c-.00044059-.93664712.37879182-1.83348309 1.05109986-2.48571626.67230804-.65223318 1.58028399-1.00417002 2.51659239-.97544607zm5.65602232 11.70299757.0070545.1272553c-.0387868-.3920228-.0411383-.4344412-.0070545-.1272553z" fill="#b6c2cd"/><path d="m15.1522659 7.58733783.9998746.88.0008306 3.88546187c1.1819143.5619439 1.9989624 1.7669017 1.9989624 3.1626913 0 1.9329966-1.5670033 3.5-3.5 3.5-1.9329966 0-3.5-1.5670034-3.5-3.5 0-1.3961849.817511-2.6014298 1.9999668-3.1631686l.0006165-.3649846.9990817-1.32-.9990817-1.31999997zm-.5003324 6.49034377c-.8284271 0-1.5.6715729-1.5 1.5 0 .8284272.6715729 1.5 1.5 1.5.8284272 0 1.5-.6715728 1.5-1.5 0-.8284271-.6715728-1.5-1.5-1.5z" fill="#36435c" fill-rule="nonzero" transform="matrix(.95630476 .2923717 -.2923717 .95630476 4.529177 -3.702602)"/></g></svg>