<svg height="32" viewBox="0 0 32 32" width="32" xmlns="http://www.w3.org/2000/svg"><g fill="none" fill-rule="evenodd"><circle cx="16" cy="16" r="15.5" stroke="#d8e2f1"/><g transform="translate(6 6)"><path d="m18 6.749.0009178 2.87770777c-.9852856-.70906756-2.1943291-1.12670777-3.5009178-1.12670777-3.3137085 0-6 2.6862915-6 6 0 1.3065887.41764021 2.5156322 1.12670777 3.5009178l-2.12670777-.0009178v-11.251zm-12-4.749v16h-2c-1.1045695 0-2-.8954305-2-2v-12c0-1.1045695.8954305-2 2-2zm10 0c1.1045695 0 2 .8954305 2 2v1.249h-10.5v-3.249z" fill="#36435c"/><path d="m14.5 10c2.4852814 0 4.5 2.0147186 4.5 4.5s-2.0147186 4.5-4.5 4.5-4.5-2.0147186-4.5-4.5 2.0147186-4.5 4.5-4.5zm-1.4286304 2.056732-1.0606601 1.0606601 2.2192905 2.2196079-1.1889604.0000621v1.5h3.75v-3.75h-1.5l-.0000396 1.1889379z" fill="#b6c2cd"/></g></g></svg>