<svg height="80" viewBox="0 0 80 80" width="80" xmlns="http://www.w3.org/2000/svg" xmlns:xlink="http://www.w3.org/1999/xlink"><defs><linearGradient id="a" x1="-3.093922%" x2="84.222927%" y1="-7.837655%" y2="88.349991%"><stop offset="0" stop-color="#49a5ff"/><stop offset="1" stop-color="#1ee7e7"/></linearGradient><circle id="b" cx="40" cy="40" r="24"/><filter id="c" height="183.3%" width="183.3%" x="-41.7%" y="-33.3%"><feOffset dx="0" dy="4" in="SourceAlpha" result="shadowOffsetOuter1"/><feGaussianBlur in="shadowOffsetOuter1" result="shadowBlurOuter1" stdDeviation="6"/><feColorMatrix in="shadowBlurOuter1" type="matrix" values="0 0 0 0 0.145098039   0 0 0 0 0.866666667   0 0 0 0 0.921568627  0 0 0 0.4 0"/></filter><circle id="d" cx="40" cy="40" r="15"/><filter id="e" height="146.7%" width="146.7%" x="-23.3%" y="-16.7%"><feOffset dx="0" dy="2" in="SourceAlpha" result="shadowOffsetOuter1"/><feGaussianBlur in="shadowOffsetOuter1" result="shadowBlurOuter1" stdDeviation="2"/><feColorMatrix in="shadowBlurOuter1" type="matrix" values="0 0 0 0 0.211764706   0 0 0 0 0.262745098   0 0 0 0 0.360784314  0 0 0 0.15 0"/></filter></defs><g fill="none" fill-rule="evenodd"><g><use fill="#000" filter="url(#c)" xlink:href="#b"/><use fill="url(#a)" fill-rule="evenodd" xlink:href="#b"/></g><circle cx="40" cy="40" fill="#fff" opacity=".5" r="18"/><g><use fill="#000" filter="url(#e)" xlink:href="#d"/><use fill="#fff" fill-rule="evenodd" xlink:href="#d"/></g><g fill="#2fcdf0" transform="translate(31.639246 30.977959)"><path d="m14.917 11.990862 1.5011023.851616c.404541.2294484.404541.6014577 0 .830906l-7.32486209 4.1545297c-.40454096.2294484-1.06043145.2294484-1.46497241 0l-7.32486208-4.1545297c-.40454096-.2294483-.40454096-.6014576 0-.830906l1.50059428-.851616 5.08424007 2.8838655c.86354758.4897886 2.08148029.4897886 2.94502787 0z"/><path d="m14.917 7.73293102 1.5011023.85161601c.404541.22944834.404541.6014576 0 .83090594l-7.32486209 4.15452973c-.40454096.2294484-1.06043145.2294484-1.46497241 0l-7.32486208-4.15452973c-.40454096-.22944834-.40454096-.6014576 0-.83090594l1.50059428-.85161601 5.08424007 2.88386548c.86354758.4897886 2.08148029.4897886 2.94502787 0z"/><path d="m9.09324021.17208626 7.32486209 4.15452974c.404541.22944834.404541.60145761 0 .83090595l-7.32486209 4.15452975c-.40454096.22944834-1.06043145.22944834-1.46497241 0l-7.32486208-4.15452975c-.40454096-.22944834-.40454096-.60145761 0-.83090595l7.32486208-4.15452974c.40454096-.22944835 1.06043145-.22944835 1.46497241 0z"/></g></g></svg>