<svg height="20" viewBox="0 0 20 20" width="20" xmlns="http://www.w3.org/2000/svg"><g fill="none" fill-rule="evenodd"><path d="m17.5857864 3.58578644c.7810486.78104858.7810486 2.04737854 0 2.82842712l-.630235.63071723c-.6706903-1.17697576-1.6315054-2.16717526-2.7851057-2.87324683l.5869136-.58589752c.7810486-.78104859 2.0473786-.78104859 2.8284271 0z" fill="#36435c"/><path d="m2.41421356 3.58578644c.78104859-.78104859 2.04737854-.78104859 2.82842713 0l.58624928.58630034c-1.15329454.70604012-2.11386868 1.69607803-2.78443234 2.87282149l-.63024407-.63069471c-.78104858-.78104858-.78104858-2.04737854 0-2.82842712z" fill="#36435c"/><g fill-rule="nonzero"><path d="m9.99997807 4.75c1.72592163 0 3.28841923.69954801 4.41944013 1.83056537 1.131035 1.13103154 1.8305818 2.69354139 1.8305818 4.41943463 0 1.7258905-.6995517 3.2883976-1.8305885 4.4194285-1.1310265 1.1310206-2.6935298 1.8305715-4.41944804 1.8305715-1.72588723 0-3.28837422-.6995549-4.41939094-1.8305811-1.13102428-1.1310337-1.83057252-2.6935437-1.83057252-4.4194408 0-1.72588662.69954944-3.28838307 1.83057327-4.41940689 1.13102118-1.13102118 2.69351439-1.83057121 4.4194048-1.83057121z" stroke="#b6c2cd" stroke-width="1.5"/><path d="m9.21650266 11.7646353 3.84243894-3.92359452s.2580351-.26116641.4829955-.05753615c.0671994.06177845.1443736.23518235-.0299247.50721965l-4.0120124 5.20927572s-.30790961.4666527-.67330618-.0053029l-1.73038378-2.5912481s-.20579808-.3505198.05144952-.5610438c.08662419-.0705282.28349734-.1802976.52525757.0593922z" fill="#36435c"/></g></g></svg>