<svg height="32" viewBox="0 0 32 32" width="32" xmlns="http://www.w3.org/2000/svg" xmlns:xlink="http://www.w3.org/1999/xlink"><linearGradient id="a" x1="50%" x2="50%" y1="0%" y2="100%"><stop offset="0" stop-color="#b6c2cd"/><stop offset="1" stop-color="#36435c"/></linearGradient><g fill="none" fill-rule="evenodd"><circle cx="16" cy="16" r="15.5" stroke="#d8e2f1"/><g transform="translate(7 7.5)"><path d="m11.8428613.04652634c1.1569391.38274615 2.2234334.99424294 3.1346642 1.79860792.2396786.21903247.3587642.53823679.3195714.85968374l-.1092874.98826255c-.08803.80866559.3628666 1.58054906 1.1139778 1.90700283l.9187679.40143493c.2999751.12708369.5200573.38872656.5916594.70269803.2479693 1.18262583.2502305 2.40337674.0075371 3.58675016-.0711726.3158718-.2918364.5781717-.5924131.7041931l-.9255513.4051727c-.7508231.3263685-1.2016618 1.0978503-1.1139778 1.9062553l.1092874.9905051c.0387758.3197955-.079858.6385759-.3188177.8566936-.9085577.8127894-1.9805309 1.4252932-3.145216 1.7971128-.310527.0956866-.6481874.0373776-.9089697-.1554906l-.8109879-.5883227c-.66287736-.480299-1.56281715-.480299-2.2256945 0l-.81777123.5920604c-.26153607.1943633-.60070385.2519248-.91198453.1539956-1.15710439-.3827371-2.22361646-.9949348-3.13466416-1.7993555-.24015985-.2186181-.35916781-.5387631-.31957144-.8596838l.1092874-.9867674c.08803004-.8086656-.36286653-1.5805491-1.11397778-1.9070028l-.91952159-.4021825c-.29939555-.1264148-.51926319-.3878788-.59090568-.702698-.248505-1.18237281-.2510697-2.40261248-.00753706-3.58600261.07086137-.31555149.29090941-.57778677.59090568-.70419313l.92856606-.40517268c.74963928-.327338 1.19912424-1.0985906 1.11096296-1.90625529l-.10777999-.99050519c-.0387758-.31979543.07985805-.63857585.31881773-.85669354.90841895-.81332606 1.9804022-1.42634518 3.14521605-1.79860793.31052697-.09493898.64818734-.03737755.9089697.15698573l.81098788.58757516c.66326148.4799278 1.562433.4799278 2.2256945 0l.8177712-.59206045c.2615361-.19436329.6007039-.25117718.9119845-.15399553zm-2.8428613 2.45347366c-3.3137085 0-6 2.6862915-6 6s2.6862915 6 6 6 6-2.6862915 6-6-2.6862915-6-6-6z" fill="#36435c" fill-rule="nonzero"/><path d="m13.495102 8.2881643.004898.2118357h-2c0-.37959853-.0846028-.73943702-.2359813-1.06168826l.3162239-2.62556217c1.1068003.77594689 1.8482276 2.03755924 1.9148594 3.47541473zm-4.6023207-4.28691205-.95347892 2.23426391c-.80350883.37701924-1.37355688 1.16910844-1.4339847 2.10010815l-.00531768.16437569h-2c0-2.44944241 1.95703115-4.44179571 4.3927813-4.49874775zm1.7408894.30446641-.2536702 2.10934491c-.3625812-.24047132-.79151739-.38888947-1.25347119-.41191717l.81474669-1.90454888c.2383239.05071957.469668.12030584.6923947.20712114z" fill="#b6c2cd" fill-rule="nonzero"/><path d="m9.35585818 3.3004717c.0281511-.16327637.18333373-.27281705.34661011-.24466595.12510915.02157054.22309541.1195568.24466596.24466595l.95436195 5.5352994-.0064536.12780524c-.0640125.6303201-.5963377 1.12219476-1.24354639 1.12219476-.69035593 0-1.25-.55964406-1.25-1.25z" fill="url(#a)" transform="matrix(.96592583 .25881905 -.25881905 .96592583 2.028941 -2.274172)"/></g></g></svg>