<svg height="20" viewBox="0 0 20 20" width="20" xmlns="http://www.w3.org/2000/svg"><g fill="none" fill-rule="evenodd"><path d="m9.37575757 2c2.21515153 0 4.12424243 1.2825 5.04242423 3.1425 2.2735875.13557037 4.2035331 1.54497722 5.0790498 3.5265085-.3659532-.4134228-.9011382-.67420291-1.4972316-.67420291h-8c-1.1045695 0-2 .8954305-2 2v5.00519441c0 1.1045695.8954305 2 2 2l4.418-.001-.0422424.001h-9.3757576c-2.78878788-.1521875-5-2.33875-5-5 0-2.25625 1.58909091-4.163125 3.77121212-4.785.21060606-2.9140625 2.63666666-5.215 5.60454545-5.215z" fill="#1ee7e7" fill-rule="nonzero"/><g stroke="#0080ff" stroke-width="2"><path d="m13.1745386 15.8401964-2.7704855-3 2.7704855-2.99999997"/><path d="m15.8588923 15.8401964 2.7704855-3-2.7704855-2.99999997"/></g></g></svg>