<svg height="20" viewBox="0 0 20 20" width="20" xmlns="http://www.w3.org/2000/svg"><g fill="none" fill-rule="evenodd" transform="translate(0 3.571429)"><path d="m8.26086957 0c2.40123803 0 4.34782613 1.91877964 4.34782613 4.28571429h3.7391304c.3361733 0 .6086956.26862915.6086956.6v3.68571428c0 2.36693463-1.946588 4.28571433-4.347826 4.28571433-2.4012381 0-4.34782613-1.9187797-4.34782613-4.28571433l-.2106561-.00494211c-.74439752-.03500446-1.43974585-.25453723-2.04000233-.61321338-.30642625 1.33527243-1.51844125 2.33244122-2.96673288 2.33244122-1.68086663 0-3.04347826-1.34314576-3.04347826-3.00000001s1.36261163-3 3.04347826-3c.30348981 0 .59660441.04378696.87319653.12530145l-.00363131-.12530145c0-2.36693465 1.94658804-4.28571429 4.34782609-4.28571429z" fill="#36435c"/><path d="m19.3913043 1.28571429c.3361734 0 .6086957.26862915.6086957.6v3.94285714c0 .33137085-.2725223.6-.6086957.6l-1.298701-.00085714.0002357-2.66201415c0-.29823376-.2207431-.54564675-.5099621-.59214701l-.0987336-.00785299-2.70154-.00098585.0000054-1.279c0-.33137085.2725223-.6.6086956-.6z" fill="#b6c2cd"/></g></svg>