<svg height="20" viewBox="0 0 20 20" width="20" xmlns="http://www.w3.org/2000/svg"><g fill="none"><path d="m4.375 9.99481851-2.96410162 1.71132489c-.38675134.223291-.62499999.6359497-.62499999 1.0825317v3.4226498c0 .446582.23824865.8592407.62499999 1.0825317l2.96410162 1.7113249c.38675135.223291.86324865.223291 1.25 0l2.96410162-1.7113249c.38675134-.223291.625-.6359497.625-1.0825317v-3.4226498c0-.446582-.23824866-.8592407-.625-1.0825317l-2.96410162-1.71132489c-.38675135-.22329099-.86324865-.22329099-1.25 0z" fill="#1ee7e7"/><path d="m14.375 9.99481851-2.9641016 1.71132489c-.3867514.223291-.625.6359497-.625 1.0825317v3.4226498c0 .446582.2382486.8592407.625 1.0825317l2.9641016 1.7113249c.3867513.223291.8632487.223291 1.25 0l2.9641016-1.7113249c.3867514-.223291.625-.6359497.625-1.0825317v-3.4226498c0-.446582-.2382486-.8592407-.625-1.0825317l-2.9641016-1.71132489c-.3867513-.22329099-.8632487-.22329099-1.25 0z" fill="#1ee7e7"/><path d="m9.375.99481851-2.96410162 1.71132487c-.38675134.22329099-.625.63594977-.625 1.08253175v3.42264974c0 .44658198.23824866.85924076.625 1.08253175l2.96410162 1.71132488c.38675135.223291.8632487.223291 1.25 0l2.9641016-1.71132488c.3867514-.22329099.625-.63594977.625-1.08253175v-3.42264974c0-.44658198-.2382486-.85924076-.625-1.08253175l-2.9641016-1.71132487c-.3867513-.22329099-.86324865-.22329099-1.25 0z" fill="#0080ff"/></g></svg>