<svg height="20" viewBox="0 0 20 20" width="20" xmlns="http://www.w3.org/2000/svg"><g fill="none" fill-rule="evenodd" stroke-width="1.5"><path d="m18.8641115 8.47898042c-.0940767-.53025182-.5644599-.92534141-1.1184669-.90454722-.7421603.02079418-1.4216028-.36389831-1.7874564-.99812108-.3658537-.63422276-.3554007-1.41400485.0313588-2.03783052.28223-.46786925.1881533-1.07090073-.2299651-1.41400485-.7944251-.65501696-1.6829268-1.17487168-2.6445993-1.52837289-.5121951-.18714771-1.087108.03119128-1.3484321.50945763-.3449477.64461986-1.0243902 1.05010654-1.7665505 1.05010654-.73170732 0-1.41114983-.40548668-1.76655052-1.05010654-.26132404-.47826635-.83623694-.69660534-1.34843206-.50945763-.96167247.35350121-1.86062718.86295884-2.6445993 1.52837289-.41811847.34310412-.51219512.95653269-.22996516 1.41400485.38675958.62382567.39721255 1.40360776.03135889 2.03783052-.36585366.63422277-1.05574913 1.00851817-1.78745645.99812108h-.03135888c-.53310105 0-1.00348432.38469249-1.08710802.90454722-.08362369.49906053-.1358885 1.01891526-.1358885 1.51797579 0 .50945759.04181185 1.01891529.1358885 1.51797579.09407666.5302518.57491289.9253414 1.1184669.9045472.73170732-.0207942 1.42160279.3638983 1.78745645.9981211s.35540069 1.4140049-.03135889 2.0378305c-.28222996.4678693-.18815331 1.0709008.22996516 1.4140049.79442509.6550169 1.68292683 1.1748717 2.6445993 1.5283729.51219512.1871477 1.08710802-.0311913 1.34843206-.5094577.34494773-.6446198 1.02439024-1.0501065 1.76655052-1.0501065.7421603 0 1.4111498.4054867 1.7665505 1.0501065.1986063.3638984.5749129.5822373.9721255.5822373.1254355 0 .250871-.0207942.3763066-.0623825.9616725-.3535012 1.8606272-.8629589 2.6445993-1.5283729.4181184-.3431041.5121951-.9565327.2299651-1.4140049-.3867595-.6238256-.3972125-1.4036077-.0313588-2.0378305.3658536-.6342228 1.0557491-1.0085182 1.7874564-.9981211.543554.0103971 1.0243902-.3742954 1.1184669-.9045472.0836237-.4990605.1358885-1.0189153.1358885-1.5179758 0-.49906053-.0522648-1.02931235-.1358885-1.52837288z" fill-rule="nonzero" stroke="#b6c2cd"/><circle cx="10" cy="10" r="3" stroke="#36435c"/></g></svg>