<?xml version="1.0" encoding="UTF-8"?>
<svg width="20px" height="20px" viewBox="0 0 20 20" version="1.1" xmlns="http://www.w3.org/2000/svg" xmlns:xlink="http://www.w3.org/1999/xlink">
    
    <g id="Dashboard" stroke="none" stroke-width="1" fill="none" fill-rule="evenodd">
        <g id="00-Menu-交互备份" transform="translate(-219.000000, -383.000000)">
            <g id="编组-8" transform="translate(219.000000, 383.000000)">
                <polygon id="矩形" fill="#36435C" points="10 7.14285714 14.2857143 7.14285714 14.2857143 12.8571429 12.1428571 10.7142857 10 12.8571429"></polygon>
                <path d="M5,6.42857143 L16.8571429,6.42857143 C17.4094276,6.42857143 17.8571429,6.87628668 17.8571429,7.42857143 L17.8571429,16.8571429 C17.8571429,17.4094276 17.4094276,17.8571429 16.8571429,17.8571429 L5.14285714,17.8571429 C3.48600289,17.8571429 2.14285714,16.5139971 2.14285714,14.8571429 L2.14285714,9.28571429 C2.14285714,7.70775786 3.42204357,6.42857143 5,6.42857143 Z" id="矩形" stroke="#B6C2CD" stroke-width="1.5"></path>
                <path d="M15.7142857,6.42857143 L4.28571429,6.42857143 C3.10224696,6.42857143 2.14285714,5.46918161 2.14285714,4.28571429 C2.14285714,3.10224696 3.10224696,2.14285714 4.28571429,2.14285714 L17.8571429,2.14285714" id="路径" stroke="#B6C2CD" stroke-width="1.5"></path>
                <line x1="2.14285714" y1="10" x2="2.14285714" y2="4.28571429" id="路径-6" stroke="#B6C2CD" stroke-width="1.5"></line>
            </g>
        </g>
    </g>
</svg>