<svg height="32" viewBox="0 0 32 32" width="32" xmlns="http://www.w3.org/2000/svg"><g fill="none" fill-rule="evenodd"><circle cx="16" cy="16" r="15.5" stroke="#d8e2f1"/><g transform="translate(6 6)"><path d="m10 1.5c4.6944204 0 8.5 3.80557963 8.5 8.5 0 .4449555-.0341893.8819257-.1000841 1.3084268l-1.9511017-.488765c.03378-.2684674.0511858-.5420319.0511858-.8196618 0-3.58985087-2.9101491-6.5-6.5-6.5-3.58985087 0-6.5 2.91014913-6.5 6.5 0 3.5898509 2.91014913 6.5 6.5 6.5.2817736 0 .5593596-.0179293.8316794-.0527093l.4928368 1.9501235c-.4315989.067531-.8739638.1025858-1.3245162.1025858-4.69442037 0-8.5-3.8055796-8.5-8.5 0-4.69442037 3.80557963-8.5 8.5-8.5zm6.0903561 10.7760672 1.9498245.4888638c-.2284915.6645737-.5370593 1.2919041-.9141799 1.8704679l-1.6823917.8082101-.7951118 1.6738367c-.5775466.3779721-1.2038996.6875446-1.8675523.9172111l-.4928771-1.9488011c1.7532641-.6594835 3.1461632-2.0548827 3.8022883-3.8097885z" fill="#36435c" fill-rule="nonzero"/><path d="m10 7c1.6568542 0 3 1.34314575 3 3l-.002-.046-4.06808372-1.0192108 1.02802852 4.064922c-1.63746777-.0224989-2.9579448-1.3568981-2.9579448-2.9997112 0-1.65685425 1.34314575-3 3-3zm1 4 1.6466203.4138376c-.2794858.5220879-.7089398.9518498-1.230793 1.2317166z" fill="#36435c"/><path d="m15.443609 15.443609-2.1654135 4.556391-2.2781955-9 9 2.2556391z" fill="#b6c2cd" fill-rule="nonzero"/></g></g></svg>