<svg height="20" viewBox="0 0 20 20" width="20" xmlns="http://www.w3.org/2000/svg"><g fill="none" fill-rule="evenodd" transform="translate(1.5 1.5)"><g fill="#1ee7e7"><path d="m1 0h5.75c.55228475 0 1 .44771525 1 1v7.5c0 .55228475-.44771525 1-1 1h-5.75c-.55228475 0-1-.44771525-1-1v-7.5c0-.55228475.44771525-1 1-1z"/><rect height="9.5" rx="1" width="7.75" x="9.25" y="7.5"/><path d="m1 11h5.75c.55228475 0 1 .4477153 1 1v4c0 .5522847-.44771525 1-1 1h-5.75c-.55228475 0-1-.4477153-1-1v-4c0-.5522847.44771525-1 1-1z"/></g><path d="m10.25 0h5.75c.5522847 0 1 .44771525 1 1v4c0 .55228475-.4477153 1-1 1h-5.75c-.55228475 0-1-.44771525-1-1v-4c0-.55228475.44771525-1 1-1z" fill="#0080ff"/></g></svg>