<?xml version="1.0" encoding="UTF-8"?>
<svg width="32px" height="32px" viewBox="0 0 32 32" version="1.1" xmlns="http://www.w3.org/2000/svg" xmlns:xlink="http://www.w3.org/1999/xlink">
    <title>icon_switch_sleep</title>
    <g id="Dashboard" stroke="none" stroke-width="1" fill="none" fill-rule="evenodd">
        <g id="02-开发空间-创建空间-创建隔离开发环境-资源限制开启" transform="translate(-64.000000, -1134.000000)">
            <g id="编组-12备份-5" transform="translate(28.000000, 72.000000)">
                <g id="编组-2" transform="translate(24.000000, 232.000000)">
                    <g id="编组-18备份-3" transform="translate(0.000000, 816.000000)">
                        <g id="编组-22" transform="translate(12.000000, 14.000000)">
                            <circle id="icon_switch_sleep" stroke="#D8E2F1" cx="16" cy="16" r="15.5"></circle>
                            <g id="疑问备份-3" transform="translate(6.000000, 6.000000)" fill-rule="nonzero">
                                <path d="M6,6 C6,10.418278 9.581722,14 14,14 C14.6533722,14 15.2884503,13.9216738 15.8963568,13.7738989 C14.6521589,15.7142401 12.4762384,17 9.99996346,17 C6.13396292,17 3,13.8659756 3,9.99997807 C3,7.52376122 4.28574068,5.34784845 6.22604521,4.10343054 C6.07831227,4.71166264 6,5.34668592 6,6 Z" id="形状结合" stroke="#36435C" stroke-width="1.5" fill="#36435C"></path>
                                <path d="M10.5179294,10.2162293 L13.3435311,10.2162293 L13.3435311,9.09293374 L11.6399702,9.09293374 L13.2142579,7.50641059 C13.6514439,7.06636538 13.3749081,6.38817307 12.7540622,6.38817307 L10,6.38817307 L10,7.51189007 L11.631603,7.51189007 L10.0568969,9.09841324 C9.61636409,9.54183045 9.90084872,10.2162293 10.5179294,10.2162293 Z" id="形状" fill="#B6C2CD"></path>
                                <path d="M14.7527674,6 L17.9065834,6 L17.9065834,4.82624971 L16.0051415,4.82624971 L17.7622942,3.16846511 C18.2502625,2.70865449 17.941605,2 17.2486434,2 L14.1746768,2 L14.1746768,3.1741907 L15.9958024,3.1741907 L14.2381827,4.83197533 C13.7464788,5.2953094 14.0640083,6 14.7527674,6 Z" id="形状备份" fill="#B6C2CD"></path>
                            </g>
                        </g>
                    </g>
                </g>
            </g>
        </g>
    </g>
</svg>