<svg height="20" viewBox="0 0 20 20" width="20" xmlns="http://www.w3.org/2000/svg"><g fill="none" fill-rule="evenodd" stroke="#f88600" stroke-width="1.5"><path d="m10 16.5c3.5898509 0 6.5-2.9101491 6.5-6.5 0-1.80513309-.7358357-3.43840253-1.9239176-4.61621863-1.174645-1.1644955-2.7913646-1.88378137-4.5760824-1.88378137-3.58985087 0-6.5 2.91014913-6.5 6.5 0 1.8239243.75123537 3.4723881 1.96116753 4.6528529 1.17145841 1.1429281 2.77290586 1.8471471 4.53883247 1.8471471z" stroke-dasharray="2" transform="matrix(.99862953 -.05233596 .05233596 .99862953 -.509655 .537064)"/><path d="m14.5760824 5.38378137c-1.174645-1.1644955-2.7913646-1.88378137-4.5760824-1.88378137-3.58985087 0-6.5 2.91014913-6.5 6.5 0 1.8239243.75123537 3.4723881 1.96116753 4.6528529" fill="#f88600"/><path d="m16.5 3.5-13 13"/></g></svg>