<svg height="78" viewBox="0 0 104 78" width="104" xmlns="http://www.w3.org/2000/svg" xmlns:xlink="http://www.w3.org/1999/xlink"><linearGradient id="a" x1="50%" x2="50%" y1="0%" y2="100%"><stop offset="0" stop-color="#91b1d7"/><stop offset="1" stop-color="#c0d4ec" stop-opacity="0"/></linearGradient><mask id="b" fill="#fff"><rect fill="#fff" fill-rule="evenodd" height="56" rx="4" width="104"/></mask><g fill="none" fill-rule="evenodd"><g transform="translate(42 65)"><path d="m0 0h20v10h-20z" fill="#c0d4ec"/><path d="m0 0h20v10h-20z" fill="url(#a)" opacity=".399128"/></g><path d="m37.9645002 75h28.0709996c2.3508354 0 4.562959 1.1126449 5.9645002 3h-40c1.4015412-1.8873551 3.6136648-3 5.9645002-3z" fill="#e0eeff"/><rect fill="#e0eeff" height="65" rx="4" width="104"/><rect height="53" rx="4" stroke="#314d82" stroke-width="3" width="101" x="1.5" y="1.5"/><g mask="url(#b)"><g transform="translate(3 3)"><path d="m1 0h96c.5522847 0 1 .44771525 1 1v7h-98v-7c0-.55228475.44771525-1 1-1z" fill="#e6ecf6"/><path d="m0 8h98v42h-98z" fill="#f5f9ff"/><path d="m4.5 5.5c.82842712 0 1.5-.67157288 1.5-1.5s-.67157288-1.5-1.5-1.5-1.5.67157288-1.5 1.5.67157288 1.5 1.5 1.5z" fill="#ff3f3f"/><path d="m10.5 5.5c.8284271 0 1.5-.67157288 1.5-1.5s-.6715729-1.5-1.5-1.5c-.82842712 0-1.5.67157288-1.5 1.5s.67157288 1.5 1.5 1.5z" fill="#ff943f"/><path d="m16.5 5.5c.8284271 0 1.5-.67157288 1.5-1.5s-.6715729-1.5-1.5-1.5-1.5.67157288-1.5 1.5.6715729 1.5 1.5 1.5z" fill="#1ac46f"/></g></g></g></svg>