<?xml version="1.0" encoding="UTF-8"?>
<svg width="280px" height="150px" viewBox="0 0 280 150" version="1.1" xmlns="http://www.w3.org/2000/svg" xmlns:xlink="http://www.w3.org/1999/xlink">
    
    <defs>
        <linearGradient x1="53.595264%" y1="63.3853988%" x2="50%" y2="100%" id="linearGradient-1">
            <stop stop-color="#DFE7EE" offset="0%"></stop>
            <stop stop-color="#EFF4F9" stop-opacity="0" offset="100%"></stop>
        </linearGradient>
        <linearGradient x1="36.1029949%" y1="37.4657886%" x2="64.1182611%" y2="100%" id="linearGradient-2">
            <stop stop-color="#DFE7EE" offset="0%"></stop>
            <stop stop-color="#EFF4F9" stop-opacity="0" offset="100%"></stop>
        </linearGradient>
        <linearGradient x1="64.9830103%" y1="28.7697539%" x2="34.6188683%" y2="100%" id="linearGradient-3">
            <stop stop-color="#DFE7EE" offset="0%"></stop>
            <stop stop-color="#EFF4F9" stop-opacity="0" offset="100%"></stop>
        </linearGradient>
        <linearGradient x1="50%" y1="0%" x2="50%" y2="27.6741639%" id="linearGradient-4">
            <stop stop-color="#DFE7EE" offset="0%"></stop>
            <stop stop-color="#EFF4F9" stop-opacity="0" offset="100%"></stop>
        </linearGradient>
        <linearGradient x1="50%" y1="50%" x2="50%" y2="100%" id="linearGradient-5">
            <stop stop-color="#DFE7EE" offset="0%"></stop>
            <stop stop-color="#DFE7EE" offset="100%"></stop>
        </linearGradient>
        <linearGradient x1="37.9734467%" y1="-28.1381919%" x2="50%" y2="100%" id="linearGradient-6">
            <stop stop-color="#1EE7E7" offset="0%"></stop>
            <stop stop-color="#0080FF" offset="100%"></stop>
        </linearGradient>
        <circle id="path-7" cx="22" cy="22" r="22"></circle>
        <linearGradient x1="50%" y1="0%" x2="50%" y2="132.650821%" id="linearGradient-8">
            <stop stop-color="#DFE7EE" offset="0%"></stop>
            <stop stop-color="#EFF4F9" stop-opacity="0" offset="100%"></stop>
        </linearGradient>
        <linearGradient x1="50%" y1="0%" x2="50%" y2="126.227559%" id="linearGradient-9">
            <stop stop-color="#DFE7EE" offset="0%"></stop>
            <stop stop-color="#EFF4F9" stop-opacity="0" offset="100%"></stop>
        </linearGradient>
    </defs>
    <g id="Dashboard" stroke="none" stroke-width="1" fill="none" fill-rule="evenodd">
        <g id="09-用户-搜索为空" transform="translate(-690.000000, -496.000000)">
            <g id="List" transform="translate(244.000000, 264.000000)">
                <g id="椭圆形" transform="translate(446.000000, 232.000000)">
                    <path d="M221.957594,78.0874389 C219.789123,83.8459073 219.411178,87.6771503 220.823762,89.5811681 C222.942636,92.4371948 223.313147,95.2867919 222.667702,98.564672 C222.237406,100.749925 220.035547,103.380803 216.062127,106.457304 C221.74417,108.828592 220.410338,114.140675 212.060632,122.393553 C209.067975,122.56905 206.401102,122.624765 204.060013,122.560697 C204.598578,119.628638 205.644796,115.771544 207.198885,110.98928 C209.491273,103.93511 211.807143,98.1961105 214.146496,93.7722803 C205.582737,106.107256 200.49424,115.566497 198.881007,122.150002 C193.458172,121.353981 191.000497,119.467597 191.507801,116.491067 C192.731438,109.311552 196.582438,108.715191 200.628913,105.341237 C202.781293,103.54658 202.928147,101.360164 202.879333,99.2372664 L202.864787,98.7292237 C202.809957,97.0413672 202.722563,95.4174732 203.529252,94.0906445 C205.424973,90.9725971 212.139239,92.4221599 213.798267,86.2703483 C214.904286,82.1691406 217.624062,79.4415041 221.957594,78.0874389 Z" id="形状结合" fill="url(#linearGradient-1)"></path>
                    <path d="M60.7585218,122.393553 C53.5239028,122.393553 48.8604903,119.157518 46.7682842,112.685447 C43.6299751,102.977765 46.0053522,102.977765 46.7682842,102.977765 C47.5312162,102.977765 54.0801549,113.370894 56.0334756,112.685447 C57.9867963,112 50.8519039,99.0879314 50.8519039,89.6058032 C50.8519039,80.1236749 54.6265701,74.013504 58.7052691,73.167327 C62.7839681,72.32115 68.6715976,76.9051899 68.6715976,91.0782797 C68.6715976,99.8486955 70.5708103,100.811389 71.9034566,99.9191724 C73.4502939,98.8835535 75.511435,86.8363271 80.7272487,86.8363271 C87.5938853,86.8363271 93.4955075,97.3623987 91.0825518,114.786158 C89.9758381,117.277637 79.8678281,119.813435 60.7585218,122.393553 Z" id="路径-3" fill="url(#linearGradient-2)"></path>
                    <path d="M240.526315,101.568193 C238.218001,100.237646 235.698203,100.326128 231.91932,102.686269 C228.140438,105.04641 221.737807,111.082225 218.125869,123.396087 L233.262581,127.780746 C235.079397,122.998656 237.500642,118.599892 240.526315,114.584456 C245.064825,108.561301 242.834629,102.89874 240.526315,101.568193 Z" id="路径-10" fill="url(#linearGradient-3)"></path>
                    <ellipse fill="url(#linearGradient-4)" cx="140" cy="179" rx="156" ry="67"></ellipse>
                    <g id="编组-5" transform="translate(92.000000, 26.000000)">
                        <path d="M82,84 C82,91.7319865 75.7319865,98 68,98 L14,98 L14,14 C14,6.2680135 20.2680135,-3.56013962e-16 28,0 L82,0 C89.7319865,-1.42034288e-15 96,6.2680135 96,14 L96,17 C96,13.1340068 92.8659932,10 89,10 C85.2145483,10 82.1309013,13.0047834 82.004059,16.7593502 L82,17 L82,84 Z" id="形状结合" fill="#F4F8FC"></path>
                        <rect id="矩形备份-4" fill="#D4DFEB" x="26" y="18" width="44" height="3" rx="1.5"></rect>
                        <rect id="矩形备份-6" fill="#D4DFEB" x="26" y="33" width="44" height="3" rx="1.5"></rect>
                        <rect id="矩形备份-7" fill="#D4DFEB" x="26" y="48" width="44" height="3" rx="1.5"></rect>
                        <rect id="矩形备份-8" fill="#D4DFEB" x="26" y="63" width="26" height="3" rx="1.5"></rect>
                        <path d="M68,98 L11,98 C4.92486775,98 7.43989126e-16,93.0751322 0,87 L0,82 C-4.05812251e-16,78.6862915 2.6862915,76 6,76 L68,76 L68,84 C68,87.8659932 71.1340068,91 75,91 C78.8659932,91 82,87.8659932 82,84 C82,91.7319865 75.7319865,98 68,98 Z" id="形状结合" fill="url(#linearGradient-5)"></path>
                        <path d="M89,8 C92.8659932,8 96,11.1340068 96,15 L96,28 C96,31.3137085 93.3137085,34 90,34 L82,34 L82,34 L82,15 C82,11.1340068 85.1340068,8 89,8 Z" id="矩形" fill="#D7E0E7"></path>
                    </g>
                    <g id="编组-6" transform="translate(178.060660, 108.560660) rotate(-45.000000) translate(-178.060660, -108.560660) translate(156.060660, 75.560660)">
                        <g id="椭圆形" stroke-linejoin="square" stroke-width="4">
                            <circle stroke="url(#linearGradient-6)" fill-opacity="0.15" fill="#0080FF" fill-rule="evenodd" cx="22" cy="22" r="20"></circle>
                            <circle stroke-opacity="0.3" stroke="#FFFFFF" cx="22" cy="22" r="20"></circle>
                        </g>
                        <path d="M27.5,8.72182541 C21.4248678,8.72182541 16.5,13.6466932 16.5,19.7218254" id="路径" stroke="#FFFFFF" stroke-width="5" stroke-linecap="round" transform="translate(22.000000, 14.221825) rotate(-315.000000) translate(-22.000000, -14.221825) "></path>
                        <rect id="矩形" fill="#4EA9FE" x="20" y="42" width="4" height="8"></rect>
                        <rect id="矩形备份-9" fill="#4EA9FE" x="18" y="49" width="8" height="17"></rect>
                    </g>
                    <path d="M58.5,28 C55.4624339,28 53,25.5375661 53,22.5 C53,19.4624339 55.4624339,17 58.5,17 C59.1399775,17 59.7544252,17.1093056 60.3256928,17.3102663 C61.2617095,14.2362742 64.1196998,12 67.5,12 C71.6421356,12 75,15.3578644 75,19.5 C75,19.6780687 74.9937943,19.8546879 74.9815874,20.0296533 C76.9632507,20.2660979 78.5,21.9535855 78.5,24 C78.5,26.209139 76.709139,28 74.5,28 L74.5,28 Z" id="形状结合" fill="url(#linearGradient-8)" opacity="0.75"></path>
                    <path d="M115,20 C111.134007,20 108,16.8659932 108,13 C108,9.13400675 111.134007,6 115,6 C115.879935,6 116.721949,6.16235995 117.497718,6.45875648 C118.765499,2.70346338 122.317036,0 126.5,0 C131.746705,0 136,4.25329488 136,9.5 C136,9.70064532 135.99378,9.89983782 135.981521,10.0973952 C138.272803,10.5522206 140,12.574406 140,15 C140,17.7614237 137.761424,20 135,20 L135,20 Z" id="形状结合备份" fill="url(#linearGradient-9)" opacity="0.75"></path>
                </g>
            </g>
        </g>
    </g>
</svg>