<svg height="150" viewBox="0 0 280 150" width="280" xmlns="http://www.w3.org/2000/svg" xmlns:xlink="http://www.w3.org/1999/xlink"><defs><linearGradient id="a"><stop offset="0" stop-color="#dfe7ee"/><stop offset="1" stop-color="#eff4f9" stop-opacity="0"/></linearGradient><linearGradient id="b" x1="53.595264%" x2="50%" xlink:href="#a" y1="63.385399%" y2="100%"/><linearGradient id="c" x1="36.102995%" x2="64.118261%" xlink:href="#a" y1="37.465789%" y2="100%"/><linearGradient id="d" x1="64.98301%" x2="34.618868%" xlink:href="#a" y1="28.769754%" y2="100%"/><linearGradient id="e" x1="50%" x2="50%" xlink:href="#a" y1="0%" y2="27.674164%"/><linearGradient id="f" x1="16.197531%" x2="47.015045%" y1="0%" y2="82.713087%"><stop offset="0" stop-color="#e5ecf2"/><stop offset="1" stop-color="#dfe7ee"/></linearGradient><linearGradient id="g" x1="-13.81734%" x2="83.326801%" y1="-17.854192%" y2="90.002919%"><stop offset="0" stop-color="#1ee7e7"/><stop offset="1" stop-color="#0080ff"/></linearGradient><circle id="h" cx="22.5" cy="22.5" r="22.5"/><linearGradient id="i" x1="50%" x2="50%" xlink:href="#a" y1="0%" y2="132.650821%"/><linearGradient id="j" x1="50%" x2="50%" xlink:href="#a" y1="0%" y2="126.227559%"/></defs><g fill="none" fill-rule="evenodd"><path d="m221.957594 78.0874389c-2.168471 5.7584684-2.546416 9.5897114-1.133832 11.4937292 2.118874 2.8560267 2.489385 5.7056238 1.84394 8.9835039-.430296 2.185253-2.632155 4.816131-6.605575 7.892632 5.682043 2.371288 4.348211 7.683371-4.001495 15.936249-2.992657.175497-5.65953.231212-8.000619.167144.538565-2.932059 1.584783-6.789153 3.138872-11.571417 2.292388-7.05417 4.608258-12.7931695 6.947611-17.2169997-8.563759 12.3349757-13.652256 21.7942167-15.265489 28.3777217-5.422835-.796021-7.88051-2.682405-7.373206-5.658935 1.223637-7.179515 5.074637-7.775876 9.121112-11.14983 2.15238-1.794657 2.299234-3.981073 2.25042-6.1039706l-.014546-.5080427c-.05483-1.6878565-.142224-3.3117505.664465-4.6385792 1.895721-3.1180474 8.609987-1.6684846 10.269015-7.8202962 1.106019-4.1012077 3.825795-6.8288442 8.159327-8.1829094z" fill="url(#b)"/><path d="m60.7585218 122.393553c-7.234619 0-11.8980315-3.236035-13.9902376-9.708106-3.1383091-9.707682-.762932-9.707682 0-9.707682s7.3118707 10.393129 9.2651914 9.707682-5.1815717-13.5975156-5.1815717-23.0796438c0-9.4821283 3.7746662-15.5922992 7.8533652-16.4384762s9.9663285 3.7378629 9.9663285 17.9109527c0 8.7704158 1.8992127 9.7331093 3.231859 8.8408927 1.5468373-1.0356189 3.6079784-13.0828453 8.8237921-13.0828453 6.8666366 0 12.7682588 10.5260716 10.3553031 27.9498309-1.1067137 2.491479-11.2147237 5.027277-30.32403 7.607395z" fill="url(#c)"/><path d="m240.526315 101.568193c-2.308314-1.330547-4.828112-1.242065-8.606995 1.118076-3.778882 2.360141-10.181513 8.395956-13.793451 20.709818l15.136712 4.384659c1.816816-4.78209 4.238061-9.180854 7.263734-13.19629 4.53851-6.023155 2.308314-11.685716 0-13.016263z" fill="url(#d)"/><ellipse cx="140" cy="179" fill="url(#e)" rx="156" ry="67"/><g transform="translate(103 33)"><rect fill="#f4f8fc" height="85" rx="8" stroke="url(#f)" stroke-width="5" width="69" x="2.5" y="5.5"/><rect fill="#dfe7ee" height="11" rx="3" width="34" x="20"/><rect fill="#d4dfeb" height="3" rx="1.5" width="12" x="12" y="25"/><rect fill="#e0e9f2" height="3" opacity=".8" rx="1.5" width="12" x="50" y="40"/><rect fill="#d4dfeb" height="3" rx="1.5" width="34" x="28" y="25"/><g fill="#e0e9f2"><rect height="3" opacity=".8" rx="1.5" width="34" x="12" y="40"/><rect height="3" opacity=".8" rx="1.5" width="20" x="12" y="55"/><rect height="3" opacity=".8" rx="1.5" width="25" x="12" y="70"/><rect height="3" opacity=".8" rx="1.5" width="26" x="36" y="55"/></g></g><g transform="translate(143 86)"><use fill="url(#g)" xlink:href="#h"/><use fill="#fff" fill-opacity=".3" xlink:href="#h"/></g><g fill="#fff"><rect height="24" rx="2.5" width="5" x="163" y="96.5"/><rect height="12" rx="2.5" width="5" x="156" y="108.5"/><rect height="18" rx="2.5" width="5" x="170" y="102.5"/></g><path d="m58.5 28c-3.0375661 0-5.5-2.4624339-5.5-5.5s2.4624339-5.5 5.5-5.5c.6399775 0 1.2544252.1093056 1.8256928.3102663.9360167-3.0739921 3.794007-5.3102663 7.1743072-5.3102663 4.1421356 0 7.5 3.3578644 7.5 7.5 0 .1780687-.0062057.3546879-.0184126.5296533 1.9816633.2364446 3.5184126 1.9239322 3.5184126 3.9703467 0 2.209139-1.790861 4-4 4z" fill="url(#i)" opacity=".75"/><path d="m115 20c-3.865993 0-7-3.1340068-7-7 0-3.86599325 3.134007-7 7-7 .879935 0 1.721949.16235995 2.497718.45875648 1.267781-3.7552931 4.819318-6.45875648 9.002282-6.45875648 5.246705 0 9.5 4.25329488 9.5 9.5 0 .20064532-.00622.39983782-.018479.5973952 2.291282.4548254 4.018479 2.4770108 4.018479 4.9026048 0 2.7614237-2.238576 5-5 5z" fill="url(#j)" opacity=".75"/></g></svg>