<svg height="150" viewBox="0 0 280 150" width="280" xmlns="http://www.w3.org/2000/svg" xmlns:xlink="http://www.w3.org/1999/xlink"><defs><linearGradient id="a"><stop offset="0" stop-color="#dfe7ee"/><stop offset="1" stop-color="#eff4f9" stop-opacity="0"/></linearGradient><linearGradient id="b" x1="53.595264%" x2="50%" xlink:href="#a" y1="63.385399%" y2="100%"/><linearGradient id="c" x1="36.102995%" x2="64.118261%" xlink:href="#a" y1="37.465789%" y2="100%"/><linearGradient id="d" x1="64.98301%" x2="34.618868%" xlink:href="#a" y1="28.769754%" y2="100%"/><linearGradient id="e" x1="50%" x2="50%" xlink:href="#a" y1="0%" y2="27.674164%"/><linearGradient id="f" x1="50%" x2="50%" y1="0%" y2="100%"><stop offset="0" stop-color="#e8eef3"/><stop offset="1" stop-color="#fff"/></linearGradient><linearGradient id="g" x1="50%" x2="48.940909%" y1="43.496372%" y2="58.317864%"><stop offset="0" stop-color="#dfe7ee"/><stop offset="1" stop-color="#f3f6f9"/></linearGradient><linearGradient id="h" x1="37.701956%" x2="39.556151%" y1="44.854513%" y2="57.518693%"><stop offset="0" stop-color="#ebf0f6"/><stop offset="1" stop-color="#eff4f9" stop-opacity="0"/></linearGradient><linearGradient id="i"><stop offset="0" stop-color="#1ee7e7"/><stop offset="1" stop-color="#0080ff"/></linearGradient><linearGradient id="j" x1="-13.81734%" x2="83.326801%" xlink:href="#i" y1="13.667103%" y2="71.419781%"/><path id="k" d="m26.8166992 44.5406733c.9105489 0 1.8591977-.0466666 2.8433256-.14.9806371-.0933333 1.7131251-.1666666 2.1993332-.22l-1.0283387-4.72h2.9115042c1.0737462 0 1.8951679-.2133333 2.4556867-.64.5491411-.4266666.6456008-1.1466666.2995072-2.16-.1812714-.5333333-.4676067-1.04-.8557128-1.52-.383128-.48-.7315388-.8666666-1.046776-1.16h-4.933662l-2.1854263-10.64c-.1434336-.72-.4038878-1.32-.7767265-1.8-.3661009-.48-.8040151-.86-1.3139326-1.14-.5035007-.28-1.0501693-.48-1.6422251-.6-.5886293-.12-1.1883279-.18-1.8016612-.18-.5333334 0-1.1240978.0533334-1.7748939.16-.6542688.1066667-1.237977.24-1.7515686.4l-13.28664028 12.28c-.57217378.4533334-1.05177701.9866667-1.4366924 1.6-.39130387.6133334-.67586882 1.1733334-.84973566 1.68-.31400322.9066667-.25529583 1.6733334.18997175 2.3.46015893.6266667 1.11673952 1.1 1.96712755 1.42h15.54867104l.0273809 2.24c.0068474.64.1442423 1.1466667.4152257 1.52.2746123.3733334.6742407.66 1.1990479.86.5286765.2 1.1818946.3266667 1.9579018.38.7775495.0533334 1.6677048.08 2.6693085.08zm-5.8583341-10.56h-7.5390789l7.1560139-7.52h.1411718z"/><path id="l" d="m77.8166992 49.5406733c.9105489 0 1.8591977-.0466666 2.8433256-.14.9806371-.0933333 1.7131251-.1666666 2.1993332-.22l-1.0283387-4.72h2.9115042c1.0737462 0 1.8951679-.2133333 2.4556867-.64.5491411-.4266666.6456008-1.1466666.2995072-2.16-.1812714-.5333333-.4676067-1.04-.8557128-1.52-.383128-.48-.7315388-.8666666-1.046776-1.16h-4.933662l-2.1854263-10.64c-.1434336-.72-.4038878-1.32-.7767265-1.8-.3661009-.48-.8040151-.86-1.3139326-1.14-.5035007-.28-1.0501693-.48-1.6422251-.6-.5886293-.12-1.1883279-.18-1.8016612-.18-.5333334 0-1.1240978.0533334-1.7748939.16-.6542688.1066667-1.237977.24-1.7515686.4l-13.2866403 12.28c-.5721738.4533334-1.051777.9866667-1.4366924 1.6-.3913038.6133334-.6758688 1.1733334-.8497356 1.68-.3140033.9066667-.2552959 1.6733334.1899717 2.3.4601589.6266667 1.1167395 1.1 1.9671276 1.42h15.548671l.0273809 2.24c.0068474.64.1442423 1.1466667.4152257 1.52.2746123.3733334.6742407.66 1.1990479.86.5286765.2 1.1818946.3266667 1.9579018.38.7775495.0533334 1.6677048.08 2.6693085.08zm-5.8583341-10.56h-7.5390789l7.1560139-7.52h.1411718z"/><linearGradient id="m" x1="-13.074047%" x2="82.938637%" xlink:href="#i" y1="-17.854192%" y2="90.002919%"/><path id="n" d="m47.7265214 28.8606733c2.0689055 0 3.9751876-.28 5.7041986-.84 1.7094809-.56 3.131374-1.38 4.2600676-2.46 1.1016812-1.08 1.8825679-2.42 2.3460101-4.02.4408967-1.6.5075-3.4266666.2167192-5.48-.2907809-2.0533333-.8464906-3.8733333-1.6503608-5.46-.7815125-1.58666662-1.7296635-2.91999995-2.8409618-3.99999995-1.0842859-1.08-2.3117345-1.9-3.6879574-2.46-1.3566928-.56-2.8010488-.84-4.3477155-.84-1.5733333 0-3.0311706.28-4.3881593.84-1.3765188.56-2.6044007 1.38-3.6892573 2.46-1.111869 1.08-2.0535546 2.41333333-2.8211468 3.99999995-.7893908 1.5866667-1.3376511 3.4066667-1.628432 5.46-.2907809 2.0533334-.2323097 3.88.1919001 5.48.4461915 1.6 1.2179562 2.94 2.3190667 4.02 1.1281229 1.08 2.5495827 1.9 4.2587678 2.46 1.7287151.56 3.6526845.84 5.7572608.84zm-.0506527-5.4c-1.5871198 0-2.7751514-.6466666-3.5473514-1.94-.7498751-1.2933333-1.0563007-3.1133333-.9360203-5.46.1202803-2.3466666.577003-4.16 1.3535969-5.44.7544993-1.27999995 1.7948337-1.91999995 3.1375741-1.91999995s2.3967957.64 3.179413 1.91999995c.8056138 1.28 1.2771845 3.0933334 1.3974649 5.44.1202804 2.3466667-.20246 4.1666667-.985648 5.46-.806424 1.2933334-2.0119094 1.94-3.5990292 1.94z"/><linearGradient id="o" x1="50%" x2="50%" xlink:href="#a" y1="0%" y2="132.650821%"/><linearGradient id="p" x1="50%" x2="50%" xlink:href="#a" y1="0%" y2="126.227559%"/></defs><g fill="none" fill-rule="evenodd"><path d="m221.957594 78.0874389c-2.168471 5.7584684-2.546416 9.5897114-1.133832 11.4937292 2.118874 2.8560267 2.489385 5.7056238 1.84394 8.9835039-.430296 2.185253-2.632155 4.816131-6.605575 7.892632 5.682043 2.371288 4.348211 7.683371-4.001495 15.936249-2.992657.175497-5.65953.231212-8.000619.167144.538565-2.932059 1.584783-6.789153 3.138872-11.571417 2.292388-7.05417 4.608258-12.7931695 6.947611-17.2169997-8.563759 12.3349757-13.652256 21.7942167-15.265489 28.3777217-5.422835-.796021-7.88051-2.682405-7.373206-5.658935 1.223637-7.179515 5.074637-7.775876 9.121112-11.14983 2.15238-1.794657 2.299234-3.981073 2.25042-6.1039706l-.014546-.5080427c-.05483-1.6878565-.142224-3.3117505.664465-4.6385792 1.895721-3.1180474 8.609987-1.6684846 10.269015-7.8202962 1.106019-4.1012077 3.825795-6.8288442 8.159327-8.1829094z" fill="url(#b)"/><path d="m60.7585218 122.393553c-7.234619 0-11.8980315-3.236035-13.9902376-9.708106-3.1383091-9.707682-.762932-9.707682 0-9.707682s7.3118707 10.393129 9.2651914 9.707682-5.1815717-13.5975156-5.1815717-23.0796438c0-9.4821283 3.7746662-15.5922992 7.8533652-16.4384762s9.9663285 3.7378629 9.9663285 17.9109527c0 8.7704158 1.8992127 9.7331093 3.231859 8.8408927 1.5468373-1.0356189 3.6079784-13.0828453 8.8237921-13.0828453 6.8666366 0 12.7682588 10.5260716 10.3553031 27.9498309-1.1067137 2.491479-11.2147237 5.027277-30.32403 7.607395z" fill="url(#c)"/><path d="m240.526315 101.568193c-2.308314-1.330547-4.828112-1.242065-8.606995 1.118076-3.778882 2.360141-10.181513 8.395956-13.793451 20.709818l15.136712 4.384659c1.816816-4.78209 4.238061-9.180854 7.263734-13.19629 4.53851-6.023155 2.308314-11.685716 0-13.016263z" fill="url(#d)"/><ellipse cx="140" cy="179" fill="url(#e)" rx="156" ry="67"/><g transform="matrix(.93969262 -.34202014 .34202014 .93969262 62.927087 45.34598)"><path d="m61 0c1.6568542 0 3 1.34314575 3 3 0 1.48625501-1.0807897 2.72007807-2.4993038 2.9584039l-.0006962 4.0415961h-1l.0002947-4.0414298c-1.4190017-.23791761-2.5002947-1.47196914-2.5002947-2.9585702 0-1.65685425 1.3431458-3 3-3z" fill="#e0e8ef"/><circle cx="61" cy="39" fill="url(#f)" r="31"/><ellipse cx="61" cy="52" fill="url(#g)" rx="61" ry="22"/><g fill="#fff"><ellipse cx="41" cy="40" rx="6" ry="4"/><ellipse cx="18.5" cy="56" rx="4.5" ry="3"/><ellipse cx="103.5" cy="56" rx="4.5" ry="3"/><ellipse cx="81" cy="40" rx="6" ry="4"/><ellipse cx="61" cy="57.5" rx="33" ry="11.5"/></g><path d="m33.727265 57.5h54.54547l27.95044 58h-110.44635028z" fill="url(#h)"/></g><g fill-rule="nonzero" transform="translate(107.393479 87.779327)"><g transform="matrix(.96592583 -.25881905 .25881905 .96592583 -7.632769 6.184713)"><use fill="url(#j)" xlink:href="#k"/><use fill="#fff" fill-opacity=".3" xlink:href="#k"/></g><g transform="matrix(.96592583 .25881905 -.25881905 .96592583 12.005288 -17.027868)"><use fill="url(#j)" xlink:href="#l"/><use fill="#fff" fill-opacity=".3" xlink:href="#l"/></g><g transform="matrix(.95105652 .30901699 -.30901699 .95105652 7.305004 -13.960632)"><use fill="url(#m)" xlink:href="#n"/><use fill="#fff" fill-opacity=".3" xlink:href="#n"/></g></g><path d="m58.5 28c-3.0375661 0-5.5-2.4624339-5.5-5.5s2.4624339-5.5 5.5-5.5c.6399775 0 1.2544252.1093056 1.8256928.3102663.9360167-3.0739921 3.794007-5.3102663 7.1743072-5.3102663 4.1421356 0 7.5 3.3578644 7.5 7.5 0 .1780687-.0062057.3546879-.0184126.5296533 1.9816633.2364446 3.5184126 1.9239322 3.5184126 3.9703467 0 2.209139-1.790861 4-4 4z" fill="url(#o)" opacity=".75"/><path d="m115 20c-3.865993 0-7-3.1340068-7-7 0-3.86599325 3.134007-7 7-7 .879935 0 1.721949.16235995 2.497718.45875648 1.267781-3.7552931 4.819318-6.45875648 9.002282-6.45875648 5.246705 0 9.5 4.25329488 9.5 9.5 0 .20064532-.00622.39983782-.018479.5973952 2.291282.4548254 4.018479 2.4770108 4.018479 4.9026048 0 2.7614237-2.238576 5-5 5z" fill="url(#p)" opacity=".75"/></g></svg>