<svg height="24" viewBox="0 0 37 24" width="37" xmlns="http://www.w3.org/2000/svg"><g fill="none" fill-rule="evenodd"><ellipse cx="15.282609" cy="8" fill="#6f38ff" rx="8.043478" ry="8"/><rect fill="#0080ff" height="9.6" rx="1.12" width="9.652174" x="27.347826" y="2.4"/><path d="m30.2495652 8c.6185589 0 1.12.50144108 1.12 1.12v6.88c0 4.418278-3.6011879 8-8.0434782 8-4.4422904 0-8.0434783-3.581722-8.0434783-8s3.6011879-8 8.0434783-8z" fill="#1ee7e7"/><path d="m30.2495652 8c.6185589 0 1.12.50144108 1.12 1.12l-.0007391 2.88h-2.901c-.6185589 0-1.12-.5014411-1.12-1.12v-2.88z" fill="#03bde3"/><path d="m23.326087 8-.0038276.24917933c-.1323658 4.30298287-3.6811771 7.75082067-8.0396507 7.75082067 0-4.3349143 3.466576-7.86454287 7.7929447-7.99619318z" fill="#5570ff"/><ellipse cx="5.630435" cy="13.6" fill="#ed58ed" rx="5.630435" ry="5.6"/><path d="m7.24257485 8.23292371c2.32399272.68953464 4.01829475 2.83151229 4.01829475 5.36707629 0 .4283747-.0483604.8455153-.1399472 1.2463158-2.32706419-1.4013415-3.88179197-3.943247-3.88179197-6.8463158z" fill="#cb6afb"/></g></svg>