<?xml version="1.0" encoding="UTF-8"?>
<svg width="37px" height="24px" viewBox="0 0 37 24" version="1.1" xmlns="http://www.w3.org/2000/svg" xmlns:xlink="http://www.w3.org/1999/xlink">
    
    <g id="Dashboard" stroke="none" stroke-width="1" fill="none" fill-rule="evenodd">
        <g id="00-切图" transform="translate(-551.000000, -158.000000)">
            <g id="Group-15-Copy-2" transform="translate(551.000000, 158.000000)">
                <ellipse id="Oval" fill="#6F38FF" cx="15.2826087" cy="8" rx="8.04347826" ry="8"></ellipse>
                <rect id="Rectangle" fill="#0080FF" x="27.3478261" y="2.4" width="9.65217391" height="9.6" rx="1.12"></rect>
                <path d="M30.2495652,8 C30.8681241,8 31.3695652,8.50144108 31.3695652,9.12 L31.3695652,16 C31.3695652,20.418278 27.7683773,24 23.326087,24 C18.8837966,24 15.2826087,20.418278 15.2826087,16 C15.2826087,11.581722 18.8837966,8 23.326087,8 L23.326087,8 L30.2495652,8 Z" id="Combined-Shape" fill="#1EE7E7"></path>
                <path d="M30.2495652,8 C30.8681241,8 31.3695652,8.50144108 31.3695652,9.12 L31.3688261,12 L28.4678261,12 C27.8492672,12 27.3478261,11.4985589 27.3478261,10.88 L27.3478261,8 L30.2495652,8 Z" id="Combined-Shape" fill="#03BDE3"></path>
                <path d="M23.326087,8 L23.3222594,8.24917933 C23.1898936,12.5521622 19.6410823,16 15.2826087,16 L15.2826087,16 C15.2826087,11.6650857 18.7491847,8.13545713 23.0755534,8.00380682 L23.326087,8 Z" id="Combined-Shape" fill="#5570FF"></path>
                <ellipse id="Oval-Copy-2" fill="#ED58ED" cx="5.63043478" cy="13.6" rx="5.63043478" ry="5.6"></ellipse>
                <path d="M7.24257485,8.23292371 C9.56656757,8.92245835 11.2608696,11.064436 11.2608696,13.6 C11.2608696,14.0283747 11.2125092,14.4455153 11.1209224,14.8463158 C8.79385821,13.4449743 7.23913043,10.9030688 7.23913043,8 Z" id="Combined-Shape" fill="#CB6AFB"></path>
            </g>
        </g>
    </g>
</svg>