<svg height="48" viewBox="0 0 48 48" width="48" xmlns="http://www.w3.org/2000/svg"><g fill="none"><path d="m0 24c0 8.574374 4.574374 16.4974225 12 20.7846097 7.4256258 4.2871871 16.5743742 4.2871871 24 0 7.425626-4.2871872 12-12.2102357 12-20.7846097 0-13.2548341-10.745166-24-24-24s-24 10.7451659-24 24z" fill="#dee8f1"/><path d="m34.8208 15.3775999.5072 23.0783998-9.7216-2.8741333-.5914667-3.9733333zm-20.9653333 0-.7605334 21.2181332 10.1445334-1.0144-.4229334-4.0576z" fill="#312b28"/><path d="m23.7466667 41.9215997c4.8186666 0 9.2144-1.6058667 12.68-4.3114666-.5072-.6762667-1.3525334-1.5216-2.7893334-2.1978667-2.1978666-1.0986667-4.7338666-1.0986667-4.7338666-1.0986667l-5.3258667 1.6058667-4.1424-1.6906667s-2.8741333.1690667-4.9029333 1.3525334c-1.4373334.8453333-2.4517334 1.8597333-2.9589334 2.3669333 3.4661334 2.536 7.6928 3.9733333 12.1733334 3.9733333z" fill="#ed58ed"/><path d="m21.8021333 30.6783998h4.5648v3.1279999l5.072.7610667s-3.2122666 2.1130667-7.5237333 2.1130667c-3.7194667 0-6.5941333-2.1978667-6.5941333-2.1978667l4.4805333-.7605333v-3.0437333z" fill="#f4d2b8"/><path d="m14.9546667 13.0101332-.1690667 4.5648s.2533333 3.6352.6762667 6.0864c.3381333 1.6906666 1.0144 3.0431999 2.1136 4.6495999 1.6906666 2.1978667 4.8186666 3.8885333 6.3402666 3.8885333 1.6058667 0 4.3114667-1.4373333 6.0016-3.3813333 1.0144-1.1834666 2.536-3.2970666 2.7898667-4.8186666.5072-3.2122667.8453333-8.6223999.8453333-8.6223999l-3.0432-4.0576z" fill="#ffe0c7"/><path d="m23.6618667 6.07839995c-8.2 0-9.8064 6.84746665-9.8064 9.04533325 0 3.3813333-.3381334 8.1152-.3381334 8.1152s.8453334-3.2122667.8453334-3.0432c.0848.5914666.1690666 1.944.1690666 1.944.1690667-.0842667 1.3525334.6762666 1.3525334.6762666l-.0848-5.1567999s2.3669333.0848 4.3957333-.8453334c1.6906667-.8453333 1.9445333-3.9733333 1.9445333-3.9733333s1.0144 3.6352 3.4661334 4.2266667c2.3669333.5914666 6.3402666-.592 6.6784 1.0986666.5072 2.3669333.2538666 3.4661333.0848 4.9877333l1.0144-.5914666s.1690666-1.4373334.2533333-1.9445334c.0848-.8453333.592 2.1978667.592 2.1136 0-.6762666.6762667-3.8042666.6762667-7.3546666-.0842667-4.4794666-4.0576-9.29813325-11.2432-9.29813325z" fill="#312b28"/><path d="m15.3776 20.2805332s-.3381333-1.0144-1.1834667-.5072c-.5072.3381333-.5072 1.6906666-.3381333 2.3669333.2538667.9301333.6762667 1.2682667 1.0144 1.5216.3381333.1690667.7605333.1690667.7605333.1690667zm17.8368-.6762667s.4224-.0848.8453333.1690667c.5072.2533333.5072 1.6906666.3381334 2.3669333-.2538667.9301333-.6762667 1.2682667-1.0144 1.5216-.3381334.1690667-.8453334.2538667-.8453334.1690667z" fill="#ffe0c7"/><path d="m24.0848 28.4805331c-.7610667 0-1.4373333-.2533333-2.0288-.7605333 0 0-.0848-.0848-.0848-.1690667 0-.0848 0-.0848.0848-.1690666.0842667-.0848.2533333-.0848.3381333 0 .9296.8453333 2.4517334.8453333 3.3813334 0 0 0 .0848-.0848.1690666-.0848.0848 0 .0848 0 .1690667.0848 0 0 .0848.0842666.0848.1690666 0 .0842667 0 .0842667-.0848.1690667-.592.5066667-1.3530667.7605333-2.0288.7605333z" fill="#eac3a9"/></g></svg>