<svg height="48" viewBox="0 0 48 48" width="48" xmlns="http://www.w3.org/2000/svg"><g fill="none"><path d="m24 0c13.3333333 0 24 10.6666667 24 24s-10.6666667 24-24 24-24-10.6666667-24-24 10.6666667-24 24-24z" fill="#dee8f1"/><path d="m28.16 32.8533333v-1.4933333c-.2133333.2133333-.5333333.32-.7466667.64-.96.64-1.4933333.7466667-3.3066666.7466667-1.4933334-.1066667-2.4533334-.2133333-3.52-.96-.2133334-.1066667-.3200001-.2133333-.5333334-.4266667v1.4933333l4.0533334 2.1333334zm-4.0533333 2.24c.1066667.15.1066667.15.2133333.15l-.2133333-.15-.2133334.15c.1066667-.15.1066667-.15.2133334-.15z" fill="#f4d2b8"/><path d="m14.9333333 20.6933333s-.1066666-.4266666-.64-.4266666c-.8533333 0-1.28.7466667-1.3866666 1.0666666-.2133334.4266667-.4266667 1.92.64 2.9866667.64.5333334 1.4933333.4266667 1.8133333.4266667-.2133333-1.0666667-.32-2.4533334-.4266667-4.0533334zm17.8133334 1.3866667-.2133334 1.28c-.1066667.5333334-.1066667 1.0666667-.2133333 1.4933333.2133333 0 1.0666667.1066667 1.92-.4266666 1.0666667-1.0666667.8533333-2.56.64-2.9866667 0-.2133333-.5333333-1.0666667-1.3866667-1.0666667-.2133333 0-.4266666.1066667-.5333333.2133334l-.32 2.1333333c.1066667.1066667.1066667-.64.1066667-.64z" fill="#ffe0c7"/><path d="m28.16 31.04v.32c1.6-1.1733333 2.9866667-2.6666667 3.84-4.2666667.2133333-.32.32-1.1733333.4266667-2.24l.2133333-1.4933333c.1066667-.7466667.1066667-1.4933333.2133333-2.3466667 0-.7466667-.1066667-1.7066667-.32-3.0933333-.64-2.88-1.8133333-3.4133334-2.4533333-3.6266667-8-2.24-12.48 1.4933334-12.48 1.4933334s-1.92.96-2.24 1.92c-.2133333.96-.2133333 4.5866666-.2133333 4.5866666l-.2133334-1.6v.2133334l.5333334 3.9466666h-.1066667c.1066667.64.2133333 1.28.32 1.6.96 2.4533334 2.88 3.84 4.3733333 5.0133334v-.32zm-5.9733333-2.0266667c.1066667-.1066667.2133333-.1066667.32 0 .4266666.32.96.5333334 1.7066666.5333334.7466667 0 1.28-.2133334 1.7066667-.5333334.1066667-.1066667.2133333-.1066667.32 0s.1066667.2133334 0 .32c-.7466667.64-1.6.64-2.1333333.64-.64 0-1.3866667-.1066667-1.92-.64-.1066667-.1066666-.1066667-.32 0-.32z" fill="#ffe0c7"/><path d="m24.1066667 32.7466667c1.7066667 0 2.3466666-.1066667 3.3066666-.7466667.2133334-.2133333.5333334-.32.7466667-.64v-.32h-8.1066667v.32c.2133333.2133333.32.2133333.5333334.4266667 1.0666666.7466667 1.92.8533333 3.52.96zm-9.1733334-11.9466667c.1066667 1.3866666.2133334 2.88.4266667 3.9466667h.1066667zm17.4933334 4.0533333c.1066667-.4266666.2133333-.96.2133333-1.4933333z" fill="#ffe0c7"/><path d="m22.08 37.5466667-1.92-1.6 3.2 5.44.2133333-3.84-.64-.96 1.0666667-1.4933334h-.1066667zm4.0533333.1066666-1.92-2.4533333h-.1066666l1.0666666 1.4933333-.64.96.2133334 4.0533334 2.88-5.44z" fill="#edf2f2"/><path d="m24.1342593 35.1448958c-.16875 0 0 0 0 0s.16875 0 0 0zm.5057407 2.4017709.64-.96-1.0666667-1.4933334h-.2133333l-1.0666667 1.4933334.64.96-.2133333 3.84.4266667.7466666h1.0666666l.2133334-.5333333c-.1066667.1066667-.4266667-4.0533333-.4266667-4.0533333z" fill="#ef6565"/><path d="m15.1466667 22.4s-.1066667-3.7333333.2133333-4.5866667c.2133333-1.0666666 2.24-1.92 2.24-1.92s4.48-3.7333333 12.48-1.4933333c.64.2133333 1.7066667.64 2.4533333 3.6266667.32 1.4933333.32 2.3466666.32 3.0933333v1.7066667l.32-2.1333334 1.0666667-6.72s-.2133333-3.9466666-3.7333333-3.7333333c-.1066667-2.77333333-3.3066667-5.65333333-10.3466667-3.19999998-5.5466667 1.81333331-6.2933333 6.82666668-6.2933333 6.82666668l1.0666666 6.72z" fill="#312b28"/><path d="m29.76 34.24c.8533333.1066667 2.4533333.32 3.7333333.96s2.0266667 1.6 2.6666667 2.4533333c-2.9866667 2.56-6.8266667 4.2666667-10.9866667 4.48h-.32l.2133334-.5333333 2.88-5.44 1.0666666-1.0666667.8533334-.7466666zm-11.4133333 0-.1066667.1066667 1.1733333 1.0666666.64.5333334 3.0933334 5.44.4266666.7466666h-.4266666c-4.2666667-.2133333-8.1066667-1.8133333-11.0933334-4.3733333.5333334-.96 1.28-1.8133333 2.3466667-2.4533333 1.3866667-.8533334 2.9866667-.96 3.9466667-1.0666667z" fill="#0080ff"/><g fill="#fff"><path d="m24.2133333 35.0933333h4.16l.4266667-.8533333h.96l-1.6-1.4933333v1.8133333c0 .1066667-2.0266667.5333333-3.9466667.5333333z"/><path d="m24.2133333 35.0933333c1.92 0 3.84-.5333333 3.84-.5333333v-1.8133333l-4.0533333 2.1333333zm3.6266667 1.0666667.5333333-1.0666667h-4.16l1.92 2.4533334zm.96-1.92-.4266667.8533333h.64l.8533334-.7466666-.1066667-.1066667z"/><path d="m27.84 36.16 1.0666667-1.0666667h-.64zm-8.64-1.92.5333333.8533333h4.2666667c-1.92 0-3.84-.5333333-3.84-.5333333v-1.8133333l-1.7066667 1.4933333z"/><path d="m23.8933333 35.0933333.2133334-.2133333-4.0533334-2.1333333v1.8133333c0 .1066667 1.92.5333333 3.84.5333333zm-1.8133333 2.4533334 1.92-2.4533334h-4.16l.32.7466667zm-2.56-2.1333334-.2133333-.2133333h.32l-.4266667-.96h-.7466667l-.1066666.1066667z"/><path d="m19.7333333 35.0933333h-.32l.2133334.2133334.5333333.5333333z"/></g><path d="m24.2133333 29.8666667c.5333334 0 1.3866667 0 2.1333334-.64.1066666-.1066667.1066666-.2133334 0-.32-.1066667-.1066667-.2133334-.1066667-.32 0-.4266667.32-.96.5333333-1.7066667.5333333s-1.28-.2133333-1.7066667-.5333333c-.1066666-.1066667-.2133333-.1066667-.32 0s-.1066667.2133333 0 .32c.5333334.64 1.28.64 1.92.64z" fill="#eac3a9"/></g></svg>