<svg width="72" height="72" viewBox="0 0 72 72" fill="none" xmlns="http://www.w3.org/2000/svg">
    <g clip-path="url(#clip0_54_270)">
        <path d="M44.3333 13.0834H25.5833C24.3333 13.0834 23.5 13.9167 23.5 15.1667V25.5834L44.3333 36L52.6667 39.125L61 36V25.5834L44.3333 13.0834Z"
              fill="#21A366"/>
        <path d="M23.5 25.5834H44.3333V36H23.5V25.5834Z" fill="#107C41"/>
        <path d="M60.9999 15.1667V25.5834H44.3333V13.0834H58.9166C59.9583 13.0834 60.9999 14.125 60.9999 15.1667Z"
              fill="#33C481"/>
        <path d="M44.3333 36H23.5V56.8333C23.5 58.0833 24.3333 58.9167 25.5833 58.9167H58.9167C60.1667 58.9167 61 58.0833 61 56.8333V46.4167L44.3333 36Z"
              fill="#185C37"/>
        <path opacity="0.5"
              d="M39.75 23.5H23.5V52.6667H39.3333C40.7917 52.6667 42.25 51.2083 42.25 49.75V26C42.25 24.5417 41.2083 23.5 39.75 23.5Z"
              fill="black"/>
        <path d="M37.6667 50.5833H13.5C12.0417 50.5833 11 49.5416 11 48.0833V23.9166C11 22.4583 12.0417 21.4166 13.5 21.4166H37.875C39.125 21.4166 40.1667 22.4583 40.1667 23.9166V48.2916C40.1667 49.5416 39.125 50.5833 37.6667 50.5833Z"
              fill="#107C41"/>
        <path d="M18.0833 44.3333L23.4999 36L18.4999 27.6666H22.4583L25.1666 32.875C25.5833 33.5 25.5833 33.9166 25.7916 34.125L26.4166 32.875L29.3333 27.6666H33.0833L28.0833 36L33.2916 44.3333H29.1249L25.9999 38.5C25.9999 38.2916 25.7916 38.0833 25.5833 37.6666C25.5833 37.875 25.3749 38.0833 25.1666 38.5L22.0416 44.3333H18.0833Z"
              fill="white"/>
        <path d="M44.3333 36H60.9999V46.4167H44.3333V36Z" fill="#107C41"/>
    </g>
    <defs>
        <clipPath id="clip0_54_270">
            <rect width="50" height="50" fill="white" transform="translate(11 11)"/>
        </clipPath>
    </defs>
</svg>
