<svg fill="none" height="72" viewBox="0 0 72 72" width="72" xmlns="http://www.w3.org/2000/svg" xmlns:xlink="http://www.w3.org/1999/xlink"><clipPath id="a"><path d="m11 11h50v50h-50z"/></clipPath><g clip-path="url(#a)"><path d="m44.3333 13.0834h-18.75c-1.25 0-2.0833.8333-2.0833 2.0833v10.4167l20.8333 10.4166 8.3334 3.125 8.3333-3.125v-10.4166z" fill="#21a366"/><path d="m23.5 25.5834h20.8333v10.4166h-20.8333z" fill="#107c41"/><path d="m60.9999 15.1667v10.4167h-16.6666v-12.5h14.5833c1.0417 0 2.0833 1.0416 2.0833 2.0833z" fill="#33c481"/><path d="m44.3333 36h-20.8333v20.8333c0 1.25.8333 2.0834 2.0833 2.0834h33.3334c1.25 0 2.0833-.8334 2.0833-2.0834v-10.4166z" fill="#185c37"/><path d="m39.75 23.5h-16.25v29.1667h15.8333c1.4584 0 2.9167-1.4584 2.9167-2.9167v-23.75c0-1.4583-1.0417-2.5-2.5-2.5z" fill="#000" opacity=".5"/><path d="m37.6667 50.5833h-24.1667c-1.4583 0-2.5-1.0417-2.5-2.5v-24.1667c0-1.4583 1.0417-2.5 2.5-2.5h24.375c1.25 0 2.2917 1.0417 2.2917 2.5v24.375c0 1.25-1.0417 2.2917-2.5 2.2917z" fill="#107c41"/><path d="m18.0833 44.3333 5.4166-8.3333-5-8.3334h3.9584l2.7083 5.2084c.4167.625.4167 1.0416.625 1.25l.625-1.25 2.9167-5.2084h3.75l-5 8.3334 5.2083 8.3333h-4.1667l-3.125-5.8333c0-.2084-.2083-.4167-.4166-.8334 0 .2084-.2084.4167-.4167.8334l-3.125 5.8333z" fill="#fff"/><path d="m44.3333 36h16.6666v10.4167h-16.6666z" fill="#107c41"/></g></svg>