<svg fill="none" height="72" viewBox="0 0 72 72" width="72" xmlns="http://www.w3.org/2000/svg"><path d="m48.1094 23.5c-.2149 0-.3906.1758-.3906.3906v2.3438c0 .2148.1757.3906.3906.3906h6.25c.2148 0 .3906-.1758.3906-.3906v-2.3438c0-.2148-.1758-.3906-.3906-.3906zm0 5.4688c-.2149 0-.3906.1757-.3906.3906v2.3437c0 .2149.1757.3907.3906.3907h6.25c.2148 0 .3906-.1758.3906-.3907v-2.3437c0-.2149-.1758-.3906-.3906-.3906zm0 5.4687c-.2149 0-.3906.1758-.3906.3906v2.3438c0 .2148.1757.3906.3906.3906h6.25c.2148 0 .3906-.1758.3906-.3906v-2.3438c0-.2148-.1758-.3906-.3906-.3906z" fill="#dae1e8"/><path d="m59.5 43v18m0-18-7.5 6m7.5-6 7.5 6" stroke="#dae1e8" stroke-width="3"/><path clip-rule="evenodd" d="m39.125 15.6875h20.3125c.8643 0 1.5625.6982 1.5625 1.5625v20.3164h-3.125v-18.3633c0-.2148-.1758-.3906-.3906-.3906h-18.3594v4.2969c0 .2148.1758.3906.3906.3906h4.6875c.2149 0 .3907.1758.3907.3906v2.3438c0 .2148-.1758.3906-.3907.3906h-4.6875c-.2148 0-.3906.1758-.3906.3906v1.5625c0 .2148.1758.3906.3906.3906h4.6875c.2149 0 .3907.1758.3907.3907v2.3437c0 .2148-.1758.3906-.3907.3906h-4.6875c-.2148 0-.3906.1758-.3906.3907v1.5625c0 .2148.1758.3906.3906.3906h4.6875c.2149 0 .3907.1758.3907.3906v2.3438c0 .2148-.1758.3906-.3907.3906h-4.6875c-.2148 0-.3906.1758-.3906.3906v1.5625c0 .2148.1758.3906.3906.3906h4.6875c.2149 0 .3907.1758.3907.3907v2.3437c0 .2148-.1758.3906-.3907.3906h-4.6875c-.2148 0-.3906.1758-.3906.3907v1.5625c0 .2148.1758.3906.3906.3906h4.6875c.2149 0 .3907.1758.3907.3906v2.3438c0 .2148-.1758.3906-.3907.3906h-4.6875c-.2148 0-.3906.1758-.3906.3906v4.2969h8.6049v3.125h-8.6049v.8984c0 1.9629-1.792 3.4424-3.7207 3.0664l-21.875-4.2529c-1.4697-.2832-2.5293-1.5723-2.5293-3.0664v-33.9209c0-1.4941 1.0547-2.7783 2.5195-3.0664l21.875-4.3311c1.9287-.3808 3.7305 1.0987 3.7305 3.0664zm-17.8564 20.7226-3.6817 6.9385c-.1269.2344.0147.5225.2735.5811l2.0996.3662c.3466.0635.6884-.1123.8398-.4297l2.3096-4.8047c.1806-.5078.2978-.8936.3515-1.167h.0391c.1074.5615.21.9522.3076 1.1719l2.7588 6.04c.1074.2344.3223.4004.5762.4444l3.5498.625c.3222.0537.5713-.2881.4101-.5762l-5.1171-9.2285c-.127-.2344-.127-.5225 0-.7569l4.9755-9.0576c.1563-.2881-.0879-.6299-.4101-.5713l-3.2764.5762c-.2539.044-.4687.21-.5762.4443l-2.5439 5.5274c-.2051.5517-.376 1.0693-.5127 1.5576h-.0391c-.1318-.5273-.288-1.001-.4687-1.4307l-1.8994-4.4238c-.1465-.332-.4981-.5225-.8545-.459l-2.207.3858c-.254.0439-.3956.3222-.2833.5566l3.3936 6.9824c.1074.2246.1025.4883-.0146.708z" fill="#dae1e8" fill-rule="evenodd"/></svg>