<svg fill="none" height="20" viewBox="0 0 20 20" width="20" xmlns="http://www.w3.org/2000/svg"><path d="m9.99997 2c-4.41828 0-7.99997 3.58171-7.99997 7.99997 0 4.41833 3.58167 8.00003 7.99996 8.00003 4.41834 0 8.00004-3.5817 8.00004-8.00001 0-4.41825-3.5816-7.99999-8.00003-7.99999z" fill="#4ac285"/><path d="m6.43148 9.59461 2.07877 1.81709 5.17495-5.23143s.3476-.34822.6505-.07672c.0906.08238.1945.31358-.0403.6763l-5.40334 6.94565s-.41469.6223-.90681-.007l-2.33048-3.455s-.27717-.46738.06929-.74808c.11667-.09404.38182-.24039.70742.07919h.00035z" fill="#fff"/></svg>